<ttFont>
    <TTGlyph name="A" xMin="-39" yMin="-8" xMax="592" yMax="653">
      <contour>
        <pt x="578" y="-3" on="1"/>
        <pt x="501" y="0" on="0"/>
        <pt x="462" y="0" on="1"/>
        <pt x="386" y="0" on="0"/>
        <pt x="294" y="-8" on="1"/>
        <pt x="290" y="0" on="1"/>
        <pt x="302" y="59" on="1"/>
        <pt x="350" y="63" on="0"/>
        <pt x="381" y="79" on="0"/>
        <pt x="381" y="101" on="1"/>
        <pt x="381" y="113" on="0"/>
        <pt x="370" y="207" on="1"/>
        <pt x="344" y="209" on="0"/>
        <pt x="236" y="209" on="0"/>
        <pt x="190" y="202" on="1"/>
        <pt x="158" y="125" on="1"/>
        <pt x="148" y="101" on="0"/>
        <pt x="148" y="88" on="1"/>
        <pt x="148" y="62" on="0"/>
        <pt x="187" y="62" on="1"/>
        <pt x="229" y="62" on="1"/>
        <pt x="232" y="56" on="1"/>
        <pt x="218" y="-6" on="1"/>
        <pt x="139" y="0" on="0"/>
        <pt x="78" y="0" on="1"/>
        <pt x="-39" y="-3" on="1"/>
        <pt x="-24" y="63" on="1"/>
        <pt x="19" y="70" on="0"/>
        <pt x="47" y="130" on="1"/>
        <pt x="277" y="636" on="1"/>
        <pt x="434" y="653" on="1"/>
        <pt x="445" y="648" on="1"/>
        <pt x="491" y="303" on="0"/>
        <pt x="522" y="131" on="1"/>
        <pt x="528" y="95" on="0"/>
        <pt x="556" y="66" on="0"/>
        <pt x="588" y="62" on="1"/>
        <pt x="592" y="55" on="1"/>
      </contour>
      <contour>
        <pt x="292" y="285" on="1"/>
        <pt x="319" y="285" on="0"/>
        <pt x="363" y="289" on="1"/>
        <pt x="335" y="512" on="1"/>
        <pt x="321" y="512" on="1"/>
        <pt x="225" y="285" on="1"/>
      </contour>
    </TTGlyph>
    <TTGlyph name="AE" xMin="-28" yMin="-8" xMax="818" yMax="654">
      <contour>
        <pt x="376" y="157" on="1"/>
        <pt x="376" y="249" on="1"/>
        <pt x="291" y="239" on="1"/>
        <pt x="208" y="223" on="1"/>
        <pt x="155" y="125" on="1"/>
        <pt x="140" y="96" on="0"/>
        <pt x="140" y="71" on="0"/>
        <pt x="161" y="63" on="0"/>
        <pt x="190" y="63" on="1"/>
        <pt x="220" y="58" on="1"/>
        <pt x="206" y="-6" on="1"/>
        <pt x="205" y="-5" on="0"/>
        <pt x="148" y="-3" on="0"/>
        <pt x="69" y="0" on="0"/>
        <pt x="44" y="0" on="1"/>
        <pt x="-28" y="-3" on="1"/>
        <pt x="-25" y="56" on="1"/>
        <pt x="-14" y="58" on="0"/>
        <pt x="24" y="99" on="0"/>
        <pt x="42" y="130" on="1"/>
        <pt x="290" y="556" on="1"/>
        <pt x="287" y="578" on="0"/>
        <pt x="268" y="578" on="1"/>
        <pt x="238" y="576" on="1"/>
        <pt x="232" y="585" on="1"/>
        <pt x="248" y="645" on="1"/>
        <pt x="248" y="642" on="0"/>
        <pt x="719" y="642" on="0"/>
        <pt x="798" y="654" on="1"/>
        <pt x="805" y="643" on="1"/>
        <pt x="777" y="555" on="0"/>
        <pt x="760" y="462" on="1"/>
        <pt x="669" y="455" on="1"/>
        <pt x="677" y="490" on="0"/>
        <pt x="677" y="541" on="0"/>
        <pt x="632" y="559" on="0"/>
        <pt x="529" y="559" on="0"/>
        <pt x="508" y="547" on="0"/>
        <pt x="508" y="531" on="1"/>
        <pt x="512" y="349" on="1"/>
        <pt x="606" y="361" on="1"/>
        <pt x="701" y="380" on="1"/>
        <pt x="710" y="369" on="1"/>
        <pt x="688" y="286" on="1"/>
        <pt x="599" y="280" on="1"/>
        <pt x="513" y="269" on="1"/>
        <pt x="517" y="145" on="1"/>
        <pt x="518" y="110" on="0"/>
        <pt x="545" y="78" on="0"/>
        <pt x="576" y="78" on="1"/>
        <pt x="655" y="78" on="0"/>
        <pt x="706" y="117" on="0"/>
        <pt x="726" y="192" on="1"/>
        <pt x="811" y="199" on="1"/>
        <pt x="818" y="190" on="1"/>
        <pt x="789" y="100" on="0"/>
        <pt x="768" y="4" on="1"/>
        <pt x="757" y="-7" on="1"/>
        <pt x="759" y="-5" on="0"/>
        <pt x="501" y="0" on="0"/>
        <pt x="451" y="0" on="1"/>
        <pt x="365" y="0" on="0"/>
        <pt x="281" y="-8" on="1"/>
        <pt x="277" y="0" on="1"/>
        <pt x="288" y="60" on="1"/>
        <pt x="373" y="67" on="0"/>
        <pt x="374" y="123" on="1"/>
        <pt x="376" y="143" on="0"/>
      </contour>
      <contour>
        <pt x="257" y="317" on="1"/>
        <pt x="317" y="321" on="1"/>
        <pt x="378" y="329" on="1"/>
        <pt x="379" y="510" on="1"/>
        <pt x="364" y="510" on="1"/>
      </contour>
    </TTGlyph>
    <TTGlyph name="AEacute" xMin="-28" yMin="-8" xMax="818" yMax="912">
      <contour>
        <pt x="376" y="157" on="1"/>
        <pt x="376" y="249" on="1"/>
        <pt x="291" y="239" on="1"/>
        <pt x="208" y="223" on="1"/>
        <pt x="155" y="125" on="1"/>
        <pt x="140" y="96" on="0"/>
        <pt x="140" y="71" on="0"/>
        <pt x="161" y="63" on="0"/>
        <pt x="190" y="63" on="1"/>
        <pt x="220" y="58" on="1"/>
        <pt x="206" y="-6" on="1"/>
        <pt x="205" y="-5" on="0"/>
        <pt x="148" y="-3" on="0"/>
        <pt x="69" y="0" on="0"/>
        <pt x="44" y="0" on="1"/>
        <pt x="-28" y="-3" on="1"/>
        <pt x="-25" y="56" on="1"/>
        <pt x="-14" y="58" on="0"/>
        <pt x="24" y="99" on="0"/>
        <pt x="42" y="130" on="1"/>
        <pt x="290" y="556" on="1"/>
        <pt x="287" y="578" on="0"/>
        <pt x="268" y="578" on="1"/>
        <pt x="238" y="576" on="1"/>
        <pt x="232" y="585" on="1"/>
        <pt x="248" y="645" on="1"/>
        <pt x="248" y="642" on="0"/>
        <pt x="719" y="642" on="0"/>
        <pt x="798" y="654" on="1"/>
        <pt x="805" y="643" on="1"/>
        <pt x="777" y="555" on="0"/>
        <pt x="760" y="462" on="1"/>
        <pt x="669" y="455" on="1"/>
        <pt x="677" y="490" on="0"/>
        <pt x="677" y="541" on="0"/>
        <pt x="632" y="559" on="0"/>
        <pt x="529" y="559" on="0"/>
        <pt x="508" y="547" on="0"/>
        <pt x="508" y="531" on="1"/>
        <pt x="512" y="349" on="1"/>
        <pt x="606" y="361" on="1"/>
        <pt x="701" y="380" on="1"/>
        <pt x="710" y="369" on="1"/>
        <pt x="688" y="286" on="1"/>
        <pt x="599" y="280" on="1"/>
        <pt x="513" y="269" on="1"/>
        <pt x="517" y="145" on="1"/>
        <pt x="518" y="110" on="0"/>
        <pt x="545" y="78" on="0"/>
        <pt x="576" y="78" on="1"/>
        <pt x="655" y="78" on="0"/>
        <pt x="706" y="117" on="0"/>
        <pt x="726" y="192" on="1"/>
        <pt x="811" y="199" on="1"/>
        <pt x="818" y="190" on="1"/>
        <pt x="789" y="100" on="0"/>
        <pt x="768" y="4" on="1"/>
        <pt x="757" y="-7" on="1"/>
        <pt x="759" y="-5" on="0"/>
        <pt x="501" y="0" on="0"/>
        <pt x="451" y="0" on="1"/>
        <pt x="365" y="0" on="0"/>
        <pt x="281" y="-8" on="1"/>
        <pt x="277" y="0" on="1"/>
        <pt x="288" y="60" on="1"/>
        <pt x="373" y="67" on="0"/>
        <pt x="374" y="123" on="1"/>
        <pt x="376" y="143" on="0"/>
      </contour>
      <contour>
        <pt x="257" y="317" on="1"/>
        <pt x="317" y="321" on="1"/>
        <pt x="378" y="329" on="1"/>
        <pt x="379" y="510" on="1"/>
        <pt x="364" y="510" on="1"/>
      </contour>
      <contour>
        <pt x="658" y="841" on="1"/>
        <pt x="657" y="827" on="1"/>
        <pt x="561" y="767" on="0"/>
        <pt x="468" y="698" on="1"/>
        <pt x="453" y="702" on="1"/>
        <pt x="423" y="741" on="1"/>
        <pt x="508" y="824" on="0"/>
        <pt x="591" y="912" on="1"/>
        <pt x="604" y="911" on="1"/>
      </contour>
    </TTGlyph>
    <TTGlyph name="Aacute" xMin="-39" yMin="-8" xMax="592" yMax="857">
      <contour>
        <pt x="578" y="-3" on="1"/>
        <pt x="501" y="0" on="0"/>
        <pt x="462" y="0" on="1"/>
        <pt x="386" y="0" on="0"/>
        <pt x="294" y="-8" on="1"/>
        <pt x="290" y="0" on="1"/>
        <pt x="302" y="59" on="1"/>
        <pt x="350" y="63" on="0"/>
        <pt x="381" y="79" on="0"/>
        <pt x="381" y="101" on="1"/>
        <pt x="381" y="113" on="0"/>
        <pt x="370" y="207" on="1"/>
        <pt x="344" y="209" on="0"/>
        <pt x="236" y="209" on="0"/>
        <pt x="190" y="202" on="1"/>
        <pt x="158" y="125" on="1"/>
        <pt x="148" y="101" on="0"/>
        <pt x="148" y="88" on="1"/>
        <pt x="148" y="62" on="0"/>
        <pt x="187" y="62" on="1"/>
        <pt x="229" y="62" on="1"/>
        <pt x="232" y="56" on="1"/>
        <pt x="218" y="-6" on="1"/>
        <pt x="139" y="0" on="0"/>
        <pt x="78" y="0" on="1"/>
        <pt x="-39" y="-3" on="1"/>
        <pt x="-24" y="63" on="1"/>
        <pt x="19" y="70" on="0"/>
        <pt x="47" y="130" on="1"/>
        <pt x="277" y="636" on="1"/>
        <pt x="434" y="653" on="1"/>
        <pt x="445" y="648" on="1"/>
        <pt x="491" y="303" on="0"/>
        <pt x="522" y="131" on="1"/>
        <pt x="528" y="95" on="0"/>
        <pt x="556" y="66" on="0"/>
        <pt x="588" y="62" on="1"/>
        <pt x="592" y="55" on="1"/>
      </contour>
      <contour>
        <pt x="292" y="285" on="1"/>
        <pt x="319" y="285" on="0"/>
        <pt x="363" y="289" on="1"/>
        <pt x="335" y="512" on="1"/>
        <pt x="321" y="512" on="1"/>
        <pt x="225" y="285" on="1"/>
      </contour>
      <contour>
        <pt x="530" y="775" on="1"/>
        <pt x="525" y="762" on="1"/>
        <pt x="410" y="733" on="0"/>
        <pt x="296" y="697" on="1"/>
        <pt x="283" y="706" on="1"/>
        <pt x="269" y="753" on="1"/>
        <pt x="492" y="857" on="1"/>
        <pt x="505" y="852" on="1"/>
      </contour>
    </TTGlyph>
    <TTGlyph name="Abreve" xMin="-39" yMin="-8" xMax="592" yMax="857">
      <contour>
        <pt x="578" y="-3" on="1"/>
        <pt x="501" y="0" on="0"/>
        <pt x="462" y="0" on="1"/>
        <pt x="386" y="0" on="0"/>
        <pt x="294" y="-8" on="1"/>
        <pt x="290" y="0" on="1"/>
        <pt x="302" y="59" on="1"/>
        <pt x="350" y="63" on="0"/>
        <pt x="381" y="79" on="0"/>
        <pt x="381" y="101" on="1"/>
        <pt x="381" y="113" on="0"/>
        <pt x="370" y="207" on="1"/>
        <pt x="344" y="209" on="0"/>
        <pt x="236" y="209" on="0"/>
        <pt x="190" y="202" on="1"/>
        <pt x="158" y="125" on="1"/>
        <pt x="148" y="101" on="0"/>
        <pt x="148" y="88" on="1"/>
        <pt x="148" y="62" on="0"/>
        <pt x="187" y="62" on="1"/>
        <pt x="229" y="62" on="1"/>
        <pt x="232" y="56" on="1"/>
        <pt x="218" y="-6" on="1"/>
        <pt x="139" y="0" on="0"/>
        <pt x="78" y="0" on="1"/>
        <pt x="-39" y="-3" on="1"/>
        <pt x="-24" y="63" on="1"/>
        <pt x="19" y="70" on="0"/>
        <pt x="47" y="130" on="1"/>
        <pt x="277" y="636" on="1"/>
        <pt x="434" y="653" on="1"/>
        <pt x="445" y="648" on="1"/>
        <pt x="491" y="303" on="0"/>
        <pt x="522" y="131" on="1"/>
        <pt x="528" y="95" on="0"/>
        <pt x="556" y="66" on="0"/>
        <pt x="588" y="62" on="1"/>
        <pt x="592" y="55" on="1"/>
      </contour>
      <contour>
        <pt x="292" y="285" on="1"/>
        <pt x="319" y="285" on="0"/>
        <pt x="363" y="289" on="1"/>
        <pt x="335" y="512" on="1"/>
        <pt x="321" y="512" on="1"/>
        <pt x="225" y="285" on="1"/>
      </contour>
      <contour>
        <pt x="286" y="857" on="1"/>
        <pt x="305" y="798" on="0"/>
        <pt x="453" y="798" on="0"/>
        <pt x="487" y="857" on="1"/>
        <pt x="503" y="854" on="1"/>
        <pt x="526" y="819" on="1"/>
        <pt x="506" y="770" on="0"/>
        <pt x="425" y="703" on="0"/>
        <pt x="309" y="703" on="0"/>
        <pt x="244" y="770" on="0"/>
        <pt x="236" y="819" on="1"/>
        <pt x="269" y="854" on="1"/>
      </contour>
    </TTGlyph>
    <TTGlyph name="Acircumflex" xMin="-39" yMin="-8" xMax="592" yMax="876">
      <contour>
        <pt x="578" y="-3" on="1"/>
        <pt x="501" y="0" on="0"/>
        <pt x="462" y="0" on="1"/>
        <pt x="386" y="0" on="0"/>
        <pt x="294" y="-8" on="1"/>
        <pt x="290" y="0" on="1"/>
        <pt x="302" y="59" on="1"/>
        <pt x="350" y="63" on="0"/>
        <pt x="381" y="79" on="0"/>
        <pt x="381" y="101" on="1"/>
        <pt x="381" y="113" on="0"/>
        <pt x="370" y="207" on="1"/>
        <pt x="344" y="209" on="0"/>
        <pt x="236" y="209" on="0"/>
        <pt x="190" y="202" on="1"/>
        <pt x="158" y="125" on="1"/>
        <pt x="148" y="101" on="0"/>
        <pt x="148" y="88" on="1"/>
        <pt x="148" y="62" on="0"/>
        <pt x="187" y="62" on="1"/>
        <pt x="229" y="62" on="1"/>
        <pt x="232" y="56" on="1"/>
        <pt x="218" y="-6" on="1"/>
        <pt x="139" y="0" on="0"/>
        <pt x="78" y="0" on="1"/>
        <pt x="-39" y="-3" on="1"/>
        <pt x="-24" y="63" on="1"/>
        <pt x="19" y="70" on="0"/>
        <pt x="47" y="130" on="1"/>
        <pt x="277" y="636" on="1"/>
        <pt x="434" y="653" on="1"/>
        <pt x="445" y="648" on="1"/>
        <pt x="491" y="303" on="0"/>
        <pt x="522" y="131" on="1"/>
        <pt x="528" y="95" on="0"/>
        <pt x="556" y="66" on="0"/>
        <pt x="588" y="62" on="1"/>
        <pt x="592" y="55" on="1"/>
      </contour>
      <contour>
        <pt x="292" y="285" on="1"/>
        <pt x="319" y="285" on="0"/>
        <pt x="363" y="289" on="1"/>
        <pt x="335" y="512" on="1"/>
        <pt x="321" y="512" on="1"/>
        <pt x="225" y="285" on="1"/>
      </contour>
      <contour>
        <pt x="376" y="765" on="1"/>
        <pt x="246" y="707" on="1"/>
        <pt x="231" y="711" on="1"/>
        <pt x="212" y="752" on="1"/>
        <pt x="380" y="876" on="1"/>
        <pt x="400" y="876" on="1"/>
        <pt x="400" y="877" on="0"/>
        <pt x="426" y="853" on="1"/>
        <pt x="515" y="771" on="0"/>
        <pt x="537" y="752" on="1"/>
        <pt x="508" y="711" on="1"/>
        <pt x="491" y="707" on="1"/>
      </contour>
    </TTGlyph>
    <TTGlyph name="Adieresis" xMin="-39" yMin="-8" xMax="592" yMax="839">
      <contour>
        <pt x="578" y="-3" on="1"/>
        <pt x="501" y="0" on="0"/>
        <pt x="462" y="0" on="1"/>
        <pt x="386" y="0" on="0"/>
        <pt x="294" y="-8" on="1"/>
        <pt x="290" y="0" on="1"/>
        <pt x="302" y="59" on="1"/>
        <pt x="350" y="63" on="0"/>
        <pt x="381" y="79" on="0"/>
        <pt x="381" y="101" on="1"/>
        <pt x="381" y="113" on="0"/>
        <pt x="370" y="207" on="1"/>
        <pt x="344" y="209" on="0"/>
        <pt x="236" y="209" on="0"/>
        <pt x="190" y="202" on="1"/>
        <pt x="158" y="125" on="1"/>
        <pt x="148" y="101" on="0"/>
        <pt x="148" y="88" on="1"/>
        <pt x="148" y="62" on="0"/>
        <pt x="187" y="62" on="1"/>
        <pt x="229" y="62" on="1"/>
        <pt x="232" y="56" on="1"/>
        <pt x="218" y="-6" on="1"/>
        <pt x="139" y="0" on="0"/>
        <pt x="78" y="0" on="1"/>
        <pt x="-39" y="-3" on="1"/>
        <pt x="-24" y="63" on="1"/>
        <pt x="19" y="70" on="0"/>
        <pt x="47" y="130" on="1"/>
        <pt x="277" y="636" on="1"/>
        <pt x="434" y="653" on="1"/>
        <pt x="445" y="648" on="1"/>
        <pt x="491" y="303" on="0"/>
        <pt x="522" y="131" on="1"/>
        <pt x="528" y="95" on="0"/>
        <pt x="556" y="66" on="0"/>
        <pt x="588" y="62" on="1"/>
        <pt x="592" y="55" on="1"/>
      </contour>
      <contour>
        <pt x="292" y="285" on="1"/>
        <pt x="319" y="285" on="0"/>
        <pt x="363" y="289" on="1"/>
        <pt x="335" y="512" on="1"/>
        <pt x="321" y="512" on="1"/>
        <pt x="225" y="285" on="1"/>
      </contour>
      <contour>
        <pt x="527" y="754" on="0"/>
        <pt x="485" y="711" on="0"/>
        <pt x="456" y="711" on="1"/>
        <pt x="400" y="711" on="0"/>
        <pt x="400" y="763" on="1"/>
        <pt x="400" y="796" on="0"/>
        <pt x="443" y="839" on="0"/>
        <pt x="500" y="839" on="0"/>
        <pt x="527" y="811" on="0"/>
      </contour>
      <contour>
        <pt x="279" y="711" on="1"/>
        <pt x="227" y="711" on="0"/>
        <pt x="227" y="763" on="1"/>
        <pt x="227" y="796" on="0"/>
        <pt x="269" y="839" on="0"/>
        <pt x="298" y="839" on="1"/>
        <pt x="354" y="839" on="0"/>
        <pt x="354" y="787" on="1"/>
        <pt x="354" y="754" on="0"/>
        <pt x="312" y="711" on="0"/>
      </contour>
    </TTGlyph>
    <TTGlyph name="Agrave" xMin="-39" yMin="-8" xMax="592" yMax="857">
      <contour>
        <pt x="578" y="-3" on="1"/>
        <pt x="501" y="0" on="0"/>
        <pt x="462" y="0" on="1"/>
        <pt x="386" y="0" on="0"/>
        <pt x="294" y="-8" on="1"/>
        <pt x="290" y="0" on="1"/>
        <pt x="302" y="59" on="1"/>
        <pt x="350" y="63" on="0"/>
        <pt x="381" y="79" on="0"/>
        <pt x="381" y="101" on="1"/>
        <pt x="381" y="113" on="0"/>
        <pt x="370" y="207" on="1"/>
        <pt x="344" y="209" on="0"/>
        <pt x="236" y="209" on="0"/>
        <pt x="190" y="202" on="1"/>
        <pt x="158" y="125" on="1"/>
        <pt x="148" y="101" on="0"/>
        <pt x="148" y="88" on="1"/>
        <pt x="148" y="62" on="0"/>
        <pt x="187" y="62" on="1"/>
        <pt x="229" y="62" on="1"/>
        <pt x="232" y="56" on="1"/>
        <pt x="218" y="-6" on="1"/>
        <pt x="139" y="0" on="0"/>
        <pt x="78" y="0" on="1"/>
        <pt x="-39" y="-3" on="1"/>
        <pt x="-24" y="63" on="1"/>
        <pt x="19" y="70" on="0"/>
        <pt x="47" y="130" on="1"/>
        <pt x="277" y="636" on="1"/>
        <pt x="434" y="653" on="1"/>
        <pt x="445" y="648" on="1"/>
        <pt x="491" y="303" on="0"/>
        <pt x="522" y="131" on="1"/>
        <pt x="528" y="95" on="0"/>
        <pt x="556" y="66" on="0"/>
        <pt x="588" y="62" on="1"/>
        <pt x="592" y="55" on="1"/>
      </contour>
      <contour>
        <pt x="292" y="285" on="1"/>
        <pt x="319" y="285" on="0"/>
        <pt x="363" y="289" on="1"/>
        <pt x="335" y="512" on="1"/>
        <pt x="321" y="512" on="1"/>
        <pt x="225" y="285" on="1"/>
      </contour>
      <contour>
        <pt x="229" y="762" on="1"/>
        <pt x="224" y="775" on="1"/>
        <pt x="249" y="852" on="1"/>
        <pt x="262" y="857" on="1"/>
        <pt x="377" y="800" on="0"/>
        <pt x="485" y="753" on="1"/>
        <pt x="472" y="706" on="1"/>
        <pt x="458" y="697" on="1"/>
        <pt x="336" y="735" on="0"/>
      </contour>
    </TTGlyph>
    <TTGlyph name="Amacron" xMin="-39" yMin="-8" xMax="592" yMax="805">
      <contour>
        <pt x="578" y="-3" on="1"/>
        <pt x="501" y="0" on="0"/>
        <pt x="462" y="0" on="1"/>
        <pt x="386" y="0" on="0"/>
        <pt x="294" y="-8" on="1"/>
        <pt x="290" y="0" on="1"/>
        <pt x="302" y="59" on="1"/>
        <pt x="350" y="63" on="0"/>
        <pt x="381" y="79" on="0"/>
        <pt x="381" y="101" on="1"/>
        <pt x="381" y="113" on="0"/>
        <pt x="370" y="207" on="1"/>
        <pt x="344" y="209" on="0"/>
        <pt x="236" y="209" on="0"/>
        <pt x="190" y="202" on="1"/>
        <pt x="158" y="125" on="1"/>
        <pt x="148" y="101" on="0"/>
        <pt x="148" y="88" on="1"/>
        <pt x="148" y="62" on="0"/>
        <pt x="187" y="62" on="1"/>
        <pt x="229" y="62" on="1"/>
        <pt x="232" y="56" on="1"/>
        <pt x="218" y="-6" on="1"/>
        <pt x="139" y="0" on="0"/>
        <pt x="78" y="0" on="1"/>
        <pt x="-39" y="-3" on="1"/>
        <pt x="-24" y="63" on="1"/>
        <pt x="19" y="70" on="0"/>
        <pt x="47" y="130" on="1"/>
        <pt x="277" y="636" on="1"/>
        <pt x="434" y="653" on="1"/>
        <pt x="445" y="648" on="1"/>
        <pt x="491" y="303" on="0"/>
        <pt x="522" y="131" on="1"/>
        <pt x="528" y="95" on="0"/>
        <pt x="556" y="66" on="0"/>
        <pt x="588" y="62" on="1"/>
        <pt x="592" y="55" on="1"/>
      </contour>
      <contour>
        <pt x="292" y="285" on="1"/>
        <pt x="319" y="285" on="0"/>
        <pt x="363" y="289" on="1"/>
        <pt x="335" y="512" on="1"/>
        <pt x="321" y="512" on="1"/>
        <pt x="225" y="285" on="1"/>
      </contour>
      <contour>
        <pt x="521" y="805" on="1"/>
        <pt x="528" y="791" on="1"/>
        <pt x="506" y="714" on="1"/>
        <pt x="236" y="712" on="1"/>
        <pt x="227" y="724" on="1"/>
        <pt x="250" y="800" on="1"/>
        <pt x="342" y="799" on="0"/>
        <pt x="398" y="799" on="1"/>
      </contour>
    </TTGlyph>
    <TTGlyph name="Aogonek" xMin="-39" yMin="-242" xMax="592" yMax="653">
      <contour>
        <pt x="422" y="-242" on="0"/>
        <pt x="365" y="-199" on="0"/>
        <pt x="365" y="-127" on="0"/>
        <pt x="415" y="-55" on="0"/>
        <pt x="472" y="0" on="1"/>
        <pt x="459" y="0" on="1"/>
        <pt x="386" y="0" on="0"/>
        <pt x="294" y="-8" on="1"/>
        <pt x="290" y="0" on="1"/>
        <pt x="302" y="59" on="1"/>
        <pt x="350" y="63" on="0"/>
        <pt x="381" y="79" on="0"/>
        <pt x="381" y="101" on="1"/>
        <pt x="381" y="113" on="0"/>
        <pt x="370" y="207" on="1"/>
        <pt x="344" y="209" on="0"/>
        <pt x="236" y="209" on="0"/>
        <pt x="190" y="202" on="1"/>
        <pt x="158" y="125" on="1"/>
        <pt x="148" y="101" on="0"/>
        <pt x="148" y="88" on="1"/>
        <pt x="148" y="62" on="0"/>
        <pt x="187" y="62" on="1"/>
        <pt x="229" y="62" on="1"/>
        <pt x="232" y="56" on="1"/>
        <pt x="218" y="-6" on="1"/>
        <pt x="139" y="0" on="0"/>
        <pt x="78" y="0" on="1"/>
        <pt x="-39" y="-3" on="1"/>
        <pt x="-24" y="63" on="1"/>
        <pt x="19" y="70" on="0"/>
        <pt x="47" y="130" on="1"/>
        <pt x="277" y="636" on="1"/>
        <pt x="434" y="653" on="1"/>
        <pt x="445" y="648" on="1"/>
        <pt x="491" y="303" on="0"/>
        <pt x="522" y="131" on="1"/>
        <pt x="528" y="95" on="0"/>
        <pt x="556" y="66" on="0"/>
        <pt x="588" y="62" on="1"/>
        <pt x="592" y="55" on="1"/>
        <pt x="578" y="-3" on="1"/>
        <pt x="556" y="-2" on="0"/>
        <pt x="531" y="-1" on="1"/>
        <pt x="483" y="-53" on="0"/>
        <pt x="450" y="-104" on="0"/>
        <pt x="450" y="-147" on="0"/>
        <pt x="472" y="-170" on="0"/>
        <pt x="489" y="-170" on="1"/>
        <pt x="521" y="-170" on="0"/>
        <pt x="563" y="-146" on="1"/>
        <pt x="578" y="-175" on="1"/>
        <pt x="521" y="-225" on="0"/>
        <pt x="471" y="-242" on="1"/>
      </contour>
      <contour>
        <pt x="292" y="285" on="1"/>
        <pt x="319" y="285" on="0"/>
        <pt x="363" y="289" on="1"/>
        <pt x="335" y="512" on="1"/>
        <pt x="321" y="512" on="1"/>
        <pt x="225" y="285" on="1"/>
      </contour>
    </TTGlyph>
    <TTGlyph name="Aring" xMin="-39" yMin="-8" xMax="592" yMax="864">
      <contour>
        <pt x="578" y="-3" on="1"/>
        <pt x="501" y="0" on="0"/>
        <pt x="462" y="0" on="1"/>
        <pt x="386" y="0" on="0"/>
        <pt x="294" y="-8" on="1"/>
        <pt x="290" y="0" on="1"/>
        <pt x="302" y="59" on="1"/>
        <pt x="350" y="63" on="0"/>
        <pt x="381" y="79" on="0"/>
        <pt x="381" y="101" on="1"/>
        <pt x="381" y="113" on="0"/>
        <pt x="370" y="207" on="1"/>
        <pt x="344" y="209" on="0"/>
        <pt x="236" y="209" on="0"/>
        <pt x="190" y="202" on="1"/>
        <pt x="158" y="125" on="1"/>
        <pt x="148" y="101" on="0"/>
        <pt x="148" y="88" on="1"/>
        <pt x="148" y="62" on="0"/>
        <pt x="187" y="62" on="1"/>
        <pt x="229" y="62" on="1"/>
        <pt x="232" y="56" on="1"/>
        <pt x="218" y="-6" on="1"/>
        <pt x="139" y="0" on="0"/>
        <pt x="78" y="0" on="1"/>
        <pt x="-39" y="-3" on="1"/>
        <pt x="-24" y="63" on="1"/>
        <pt x="19" y="70" on="0"/>
        <pt x="47" y="130" on="1"/>
        <pt x="277" y="636" on="1"/>
        <pt x="434" y="653" on="1"/>
        <pt x="445" y="648" on="1"/>
        <pt x="491" y="303" on="0"/>
        <pt x="522" y="131" on="1"/>
        <pt x="528" y="95" on="0"/>
        <pt x="556" y="66" on="0"/>
        <pt x="588" y="62" on="1"/>
        <pt x="592" y="55" on="1"/>
      </contour>
      <contour>
        <pt x="292" y="285" on="1"/>
        <pt x="319" y="285" on="0"/>
        <pt x="363" y="289" on="1"/>
        <pt x="335" y="512" on="1"/>
        <pt x="321" y="512" on="1"/>
        <pt x="225" y="285" on="1"/>
      </contour>
      <contour>
        <pt x="375" y="731" on="1"/>
        <pt x="419" y="731" on="0"/>
        <pt x="419" y="773" on="1"/>
        <pt x="419" y="809" on="0"/>
        <pt x="379" y="809" on="1"/>
        <pt x="359" y="809" on="0"/>
        <pt x="337" y="786" on="0"/>
        <pt x="337" y="750" on="0"/>
        <pt x="361" y="731" on="0"/>
      </contour>
      <contour>
        <pt x="470" y="745" on="0"/>
        <pt x="410" y="678" on="0"/>
        <pt x="325" y="678" on="0"/>
        <pt x="286" y="721" on="0"/>
        <pt x="286" y="802" on="0"/>
        <pt x="347" y="864" on="0"/>
        <pt x="432" y="864" on="0"/>
        <pt x="470" y="821" on="0"/>
      </contour>
    </TTGlyph>
    <TTGlyph name="Aringacute" xMin="-39" yMin="-8" xMax="592" yMax="977">
      <contour>
        <pt x="578" y="-3" on="1"/>
        <pt x="501" y="0" on="0"/>
        <pt x="462" y="0" on="1"/>
        <pt x="386" y="0" on="0"/>
        <pt x="294" y="-8" on="1"/>
        <pt x="290" y="0" on="1"/>
        <pt x="302" y="59" on="1"/>
        <pt x="350" y="63" on="0"/>
        <pt x="381" y="79" on="0"/>
        <pt x="381" y="101" on="1"/>
        <pt x="381" y="113" on="0"/>
        <pt x="370" y="207" on="1"/>
        <pt x="344" y="209" on="0"/>
        <pt x="236" y="209" on="0"/>
        <pt x="190" y="202" on="1"/>
        <pt x="158" y="125" on="1"/>
        <pt x="148" y="101" on="0"/>
        <pt x="148" y="88" on="1"/>
        <pt x="148" y="62" on="0"/>
        <pt x="187" y="62" on="1"/>
        <pt x="229" y="62" on="1"/>
        <pt x="232" y="56" on="1"/>
        <pt x="218" y="-6" on="1"/>
        <pt x="139" y="0" on="0"/>
        <pt x="78" y="0" on="1"/>
        <pt x="-39" y="-3" on="1"/>
        <pt x="-24" y="63" on="1"/>
        <pt x="19" y="70" on="0"/>
        <pt x="47" y="130" on="1"/>
        <pt x="277" y="636" on="1"/>
        <pt x="434" y="653" on="1"/>
        <pt x="445" y="648" on="1"/>
        <pt x="491" y="303" on="0"/>
        <pt x="522" y="131" on="1"/>
        <pt x="528" y="95" on="0"/>
        <pt x="556" y="66" on="0"/>
        <pt x="588" y="62" on="1"/>
        <pt x="592" y="55" on="1"/>
      </contour>
      <contour>
        <pt x="292" y="285" on="1"/>
        <pt x="319" y="285" on="0"/>
        <pt x="363" y="289" on="1"/>
        <pt x="335" y="512" on="1"/>
        <pt x="321" y="512" on="1"/>
        <pt x="225" y="285" on="1"/>
      </contour>
      <contour>
        <pt x="374" y="713" on="1"/>
        <pt x="414" y="713" on="0"/>
        <pt x="414" y="751" on="1"/>
        <pt x="414" y="783" on="0"/>
        <pt x="378" y="783" on="1"/>
        <pt x="360" y="783" on="0"/>
        <pt x="340" y="763" on="0"/>
        <pt x="340" y="730" on="0"/>
        <pt x="361" y="713" on="0"/>
      </contour>
      <contour>
        <pt x="460" y="725" on="0"/>
        <pt x="406" y="665" on="0"/>
        <pt x="330" y="665" on="0"/>
        <pt x="294" y="703" on="0"/>
        <pt x="294" y="777" on="0"/>
        <pt x="349" y="833" on="0"/>
        <pt x="426" y="833" on="0"/>
        <pt x="460" y="794" on="0"/>
      </contour>
      <contour>
        <pt x="511" y="903" on="1"/>
        <pt x="506" y="892" on="1"/>
        <pt x="403" y="866" on="0"/>
        <pt x="300" y="833" on="1"/>
        <pt x="288" y="841" on="1"/>
        <pt x="276" y="884" on="1"/>
        <pt x="476" y="977" on="1"/>
        <pt x="488" y="973" on="1"/>
      </contour>
    </TTGlyph>
    <TTGlyph name="Atilde" xMin="-39" yMin="-8" xMax="592" yMax="853">
      <contour>
        <pt x="578" y="-3" on="1"/>
        <pt x="501" y="0" on="0"/>
        <pt x="462" y="0" on="1"/>
        <pt x="386" y="0" on="0"/>
        <pt x="294" y="-8" on="1"/>
        <pt x="290" y="0" on="1"/>
        <pt x="302" y="59" on="1"/>
        <pt x="350" y="63" on="0"/>
        <pt x="381" y="79" on="0"/>
        <pt x="381" y="101" on="1"/>
        <pt x="381" y="113" on="0"/>
        <pt x="370" y="207" on="1"/>
        <pt x="344" y="209" on="0"/>
        <pt x="236" y="209" on="0"/>
        <pt x="190" y="202" on="1"/>
        <pt x="158" y="125" on="1"/>
        <pt x="148" y="101" on="0"/>
        <pt x="148" y="88" on="1"/>
        <pt x="148" y="62" on="0"/>
        <pt x="187" y="62" on="1"/>
        <pt x="229" y="62" on="1"/>
        <pt x="232" y="56" on="1"/>
        <pt x="218" y="-6" on="1"/>
        <pt x="139" y="0" on="0"/>
        <pt x="78" y="0" on="1"/>
        <pt x="-39" y="-3" on="1"/>
        <pt x="-24" y="63" on="1"/>
        <pt x="19" y="70" on="0"/>
        <pt x="47" y="130" on="1"/>
        <pt x="277" y="636" on="1"/>
        <pt x="434" y="653" on="1"/>
        <pt x="445" y="648" on="1"/>
        <pt x="491" y="303" on="0"/>
        <pt x="522" y="131" on="1"/>
        <pt x="528" y="95" on="0"/>
        <pt x="556" y="66" on="0"/>
        <pt x="588" y="62" on="1"/>
        <pt x="592" y="55" on="1"/>
      </contour>
      <contour>
        <pt x="292" y="285" on="1"/>
        <pt x="319" y="285" on="0"/>
        <pt x="363" y="289" on="1"/>
        <pt x="335" y="512" on="1"/>
        <pt x="321" y="512" on="1"/>
        <pt x="225" y="285" on="1"/>
      </contour>
      <contour>
        <pt x="320" y="835" on="0"/>
        <pt x="431" y="801" on="0"/>
        <pt x="454" y="801" on="0"/>
        <pt x="489" y="827" on="0"/>
        <pt x="513" y="853" on="1"/>
        <pt x="524" y="853" on="1"/>
        <pt x="559" y="816" on="1"/>
        <pt x="558" y="806" on="1"/>
        <pt x="470" y="709" on="1"/>
        <pt x="453" y="705" on="1"/>
        <pt x="437" y="705" on="0"/>
        <pt x="326" y="739" on="0"/>
        <pt x="314" y="739" on="1"/>
        <pt x="292" y="739" on="0"/>
        <pt x="256" y="700" on="1"/>
        <pt x="244" y="687" on="1"/>
        <pt x="233" y="687" on="1"/>
        <pt x="198" y="724" on="1"/>
        <pt x="199" y="735" on="1"/>
        <pt x="287" y="831" on="1"/>
        <pt x="303" y="835" on="1"/>
      </contour>
    </TTGlyph>
    <TTGlyph name="B" xMin="5" yMin="-10" xMax="574" yMax="647">
      <contour>
        <pt x="297" y="-10" on="1"/>
        <pt x="149" y="0" on="1"/>
        <pt x="99" y="0" on="0"/>
        <pt x="5" y="-10" on="1"/>
        <pt x="20" y="56" on="1"/>
        <pt x="63" y="64" on="0"/>
        <pt x="97" y="97" on="0"/>
        <pt x="101" y="136" on="1"/>
        <pt x="151" y="536" on="0"/>
        <pt x="151" y="560" on="0"/>
        <pt x="142" y="578" on="0"/>
        <pt x="125" y="578" on="1"/>
        <pt x="92" y="576" on="1"/>
        <pt x="86" y="584" on="1"/>
        <pt x="103" y="644" on="1"/>
        <pt x="203" y="641" on="0"/>
        <pt x="237" y="641" on="1"/>
        <pt x="377" y="647" on="1"/>
        <pt x="470" y="647" on="0"/>
        <pt x="574" y="576" on="0"/>
        <pt x="574" y="511" on="1"/>
        <pt x="574" y="403" on="0"/>
        <pt x="450" y="339" on="1"/>
        <pt x="507" y="321" on="0"/>
        <pt x="569" y="250" on="0"/>
        <pt x="569" y="203" on="1"/>
        <pt x="569" y="108" on="0"/>
        <pt x="419" y="-10" on="0"/>
      </contour>
      <contour>
        <pt x="226" y="121" on="1"/>
        <pt x="226" y="98" on="0"/>
        <pt x="262" y="74" on="0"/>
        <pt x="362" y="74" on="0"/>
        <pt x="422" y="135" on="0"/>
        <pt x="422" y="187" on="1"/>
        <pt x="422" y="262" on="0"/>
        <pt x="338" y="282" on="1"/>
        <pt x="250" y="281" on="1"/>
        <pt x="226" y="127" on="0"/>
      </contour>
      <contour>
        <pt x="432" y="481" on="1"/>
        <pt x="432" y="566" on="0"/>
        <pt x="312" y="566" on="1"/>
        <pt x="302" y="566" on="0"/>
        <pt x="298" y="562" on="1"/>
        <pt x="290" y="555" on="0"/>
        <pt x="262" y="368" on="1"/>
        <pt x="335" y="359" on="0"/>
        <pt x="352" y="359" on="1"/>
        <pt x="363" y="362" on="0"/>
        <pt x="394" y="385" on="0"/>
        <pt x="404" y="398" on="1"/>
        <pt x="432" y="430" on="0"/>
      </contour>
    </TTGlyph>
    <TTGlyph name="C" xMin="32" yMin="-12" xMax="603" yMax="653">
      <contour>
        <pt x="502" y="28" on="1"/>
        <pt x="414" y="-12" on="0"/>
        <pt x="172" y="-12" on="0"/>
        <pt x="32" y="131" on="0"/>
        <pt x="32" y="256" on="1"/>
        <pt x="32" y="437" on="0"/>
        <pt x="233" y="653" on="0"/>
        <pt x="402" y="653" on="1"/>
        <pt x="473" y="653" on="0"/>
        <pt x="599" y="629" on="1"/>
        <pt x="603" y="616" on="1"/>
        <pt x="573" y="533" on="0"/>
        <pt x="554" y="428" on="1"/>
        <pt x="457" y="422" on="1"/>
        <pt x="466" y="469" on="0"/>
        <pt x="466" y="488" on="1"/>
        <pt x="466" y="559" on="0"/>
        <pt x="367" y="559" on="1"/>
        <pt x="282" y="559" on="0"/>
        <pt x="188" y="412" on="0"/>
        <pt x="188" y="275" on="1"/>
        <pt x="188" y="180" on="0"/>
        <pt x="255" y="80" on="0"/>
        <pt x="371" y="80" on="0"/>
        <pt x="435" y="144" on="0"/>
        <pt x="457" y="218" on="1"/>
        <pt x="554" y="225" on="1"/>
        <pt x="525" y="122" on="0"/>
        <pt x="512" y="40" on="1"/>
      </contour>
    </TTGlyph>
    <TTGlyph name="Cacute" xMin="32" yMin="-12" xMax="603" yMax="857">
      <contour>
        <pt x="502" y="28" on="1"/>
        <pt x="414" y="-12" on="0"/>
        <pt x="172" y="-12" on="0"/>
        <pt x="32" y="131" on="0"/>
        <pt x="32" y="256" on="1"/>
        <pt x="32" y="437" on="0"/>
        <pt x="233" y="653" on="0"/>
        <pt x="402" y="653" on="1"/>
        <pt x="473" y="653" on="0"/>
        <pt x="599" y="629" on="1"/>
        <pt x="603" y="616" on="1"/>
        <pt x="573" y="533" on="0"/>
        <pt x="554" y="428" on="1"/>
        <pt x="457" y="422" on="1"/>
        <pt x="466" y="469" on="0"/>
        <pt x="466" y="488" on="1"/>
        <pt x="466" y="559" on="0"/>
        <pt x="367" y="559" on="1"/>
        <pt x="282" y="559" on="0"/>
        <pt x="188" y="412" on="0"/>
        <pt x="188" y="275" on="1"/>
        <pt x="188" y="180" on="0"/>
        <pt x="255" y="80" on="0"/>
        <pt x="371" y="80" on="0"/>
        <pt x="435" y="144" on="0"/>
        <pt x="457" y="218" on="1"/>
        <pt x="554" y="225" on="1"/>
        <pt x="525" y="122" on="0"/>
        <pt x="512" y="40" on="1"/>
      </contour>
      <contour>
        <pt x="536" y="775" on="1"/>
        <pt x="531" y="762" on="1"/>
        <pt x="416" y="733" on="0"/>
        <pt x="302" y="697" on="1"/>
        <pt x="289" y="706" on="1"/>
        <pt x="275" y="753" on="1"/>
        <pt x="498" y="857" on="1"/>
        <pt x="511" y="852" on="1"/>
      </contour>
    </TTGlyph>
    <TTGlyph name="Ccaron" xMin="32" yMin="-12" xMax="603" yMax="865">
      <contour>
        <pt x="502" y="28" on="1"/>
        <pt x="414" y="-12" on="0"/>
        <pt x="172" y="-12" on="0"/>
        <pt x="32" y="131" on="0"/>
        <pt x="32" y="256" on="1"/>
        <pt x="32" y="437" on="0"/>
        <pt x="233" y="653" on="0"/>
        <pt x="402" y="653" on="1"/>
        <pt x="473" y="653" on="0"/>
        <pt x="599" y="629" on="1"/>
        <pt x="603" y="616" on="1"/>
        <pt x="573" y="533" on="0"/>
        <pt x="554" y="428" on="1"/>
        <pt x="457" y="422" on="1"/>
        <pt x="466" y="469" on="0"/>
        <pt x="466" y="488" on="1"/>
        <pt x="466" y="559" on="0"/>
        <pt x="367" y="559" on="1"/>
        <pt x="282" y="559" on="0"/>
        <pt x="188" y="412" on="0"/>
        <pt x="188" y="275" on="1"/>
        <pt x="188" y="180" on="0"/>
        <pt x="255" y="80" on="0"/>
        <pt x="371" y="80" on="0"/>
        <pt x="435" y="144" on="0"/>
        <pt x="457" y="218" on="1"/>
        <pt x="554" y="225" on="1"/>
        <pt x="525" y="122" on="0"/>
        <pt x="512" y="40" on="1"/>
      </contour>
      <contour>
        <pt x="406" y="807" on="1"/>
        <pt x="536" y="865" on="1"/>
        <pt x="551" y="861" on="1"/>
        <pt x="571" y="820" on="1"/>
        <pt x="402" y="696" on="1"/>
        <pt x="383" y="696" on="1"/>
        <pt x="281" y="791" on="0"/>
        <pt x="246" y="820" on="1"/>
        <pt x="274" y="861" on="1"/>
        <pt x="291" y="865" on="1"/>
      </contour>
    </TTGlyph>
    <TTGlyph name="Ccedilla" xMin="32" yMin="-238" xMax="603" yMax="653">
      <contour>
        <pt x="32" y="256" on="1"/>
        <pt x="32" y="437" on="0"/>
        <pt x="233" y="653" on="0"/>
        <pt x="402" y="653" on="1"/>
        <pt x="473" y="653" on="0"/>
        <pt x="599" y="629" on="1"/>
        <pt x="603" y="616" on="1"/>
        <pt x="573" y="533" on="0"/>
        <pt x="554" y="428" on="1"/>
        <pt x="457" y="422" on="1"/>
        <pt x="466" y="469" on="0"/>
        <pt x="466" y="488" on="1"/>
        <pt x="466" y="559" on="0"/>
        <pt x="367" y="559" on="1"/>
        <pt x="282" y="559" on="0"/>
        <pt x="188" y="412" on="0"/>
        <pt x="188" y="275" on="1"/>
        <pt x="188" y="180" on="0"/>
        <pt x="255" y="80" on="0"/>
        <pt x="371" y="80" on="0"/>
        <pt x="435" y="144" on="0"/>
        <pt x="457" y="218" on="1"/>
        <pt x="554" y="225" on="1"/>
        <pt x="525" y="122" on="0"/>
        <pt x="512" y="40" on="1"/>
        <pt x="502" y="28" on="1"/>
        <pt x="425" y="-7" on="0"/>
        <pt x="317" y="-11" on="1"/>
        <pt x="304" y="-44" on="1"/>
        <pt x="388" y="-95" on="0"/>
        <pt x="388" y="-176" on="0"/>
        <pt x="298" y="-238" on="0"/>
        <pt x="244" y="-238" on="1"/>
        <pt x="218" y="-238" on="0"/>
        <pt x="172" y="-214" on="0"/>
        <pt x="172" y="-179" on="0"/>
        <pt x="218" y="-130" on="1"/>
        <pt x="226" y="-130" on="1"/>
        <pt x="226" y="-134" on="0"/>
        <pt x="226" y="-159" on="0"/>
        <pt x="247" y="-186" on="0"/>
        <pt x="287" y="-186" on="0"/>
        <pt x="311" y="-168" on="0"/>
        <pt x="311" y="-154" on="1"/>
        <pt x="311" y="-130" on="0"/>
        <pt x="236" y="-86" on="1"/>
        <pt x="265" y="-11" on="1"/>
        <pt x="156" y="-3" on="0"/>
        <pt x="32" y="139" on="0"/>
      </contour>
    </TTGlyph>
    <TTGlyph name="Ccircumflex" xMin="32" yMin="-12" xMax="603" yMax="904">
      <contour>
        <pt x="502" y="28" on="1"/>
        <pt x="414" y="-12" on="0"/>
        <pt x="172" y="-12" on="0"/>
        <pt x="32" y="131" on="0"/>
        <pt x="32" y="256" on="1"/>
        <pt x="32" y="437" on="0"/>
        <pt x="233" y="653" on="0"/>
        <pt x="402" y="653" on="1"/>
        <pt x="473" y="653" on="0"/>
        <pt x="599" y="629" on="1"/>
        <pt x="603" y="616" on="1"/>
        <pt x="573" y="533" on="0"/>
        <pt x="554" y="428" on="1"/>
        <pt x="457" y="422" on="1"/>
        <pt x="466" y="469" on="0"/>
        <pt x="466" y="488" on="1"/>
        <pt x="466" y="559" on="0"/>
        <pt x="367" y="559" on="1"/>
        <pt x="282" y="559" on="0"/>
        <pt x="188" y="412" on="0"/>
        <pt x="188" y="275" on="1"/>
        <pt x="188" y="180" on="0"/>
        <pt x="255" y="80" on="0"/>
        <pt x="371" y="80" on="0"/>
        <pt x="435" y="144" on="0"/>
        <pt x="457" y="218" on="1"/>
        <pt x="554" y="225" on="1"/>
        <pt x="525" y="122" on="0"/>
        <pt x="512" y="40" on="1"/>
      </contour>
      <contour>
        <pt x="494" y="705" on="1"/>
        <pt x="408" y="777" on="0"/>
        <pt x="391" y="788" on="1"/>
        <pt x="388" y="786" on="0"/>
        <pt x="269" y="705" on="1"/>
        <pt x="253" y="709" on="1"/>
        <pt x="229" y="750" on="1"/>
        <pt x="265" y="780" on="0"/>
        <pt x="395" y="904" on="1"/>
        <pt x="415" y="904" on="1"/>
        <pt x="512" y="783" on="0"/>
        <pt x="544" y="750" on="1"/>
        <pt x="510" y="709" on="1"/>
      </contour>
    </TTGlyph>
    <TTGlyph name="Cdotaccent" xMin="32" yMin="-12" xMax="603" yMax="854">
      <contour>
        <pt x="502" y="28" on="1"/>
        <pt x="414" y="-12" on="0"/>
        <pt x="172" y="-12" on="0"/>
        <pt x="32" y="131" on="0"/>
        <pt x="32" y="256" on="1"/>
        <pt x="32" y="437" on="0"/>
        <pt x="233" y="653" on="0"/>
        <pt x="402" y="653" on="1"/>
        <pt x="473" y="653" on="0"/>
        <pt x="599" y="629" on="1"/>
        <pt x="603" y="616" on="1"/>
        <pt x="573" y="533" on="0"/>
        <pt x="554" y="428" on="1"/>
        <pt x="457" y="422" on="1"/>
        <pt x="466" y="469" on="0"/>
        <pt x="466" y="488" on="1"/>
        <pt x="466" y="559" on="0"/>
        <pt x="367" y="559" on="1"/>
        <pt x="282" y="559" on="0"/>
        <pt x="188" y="412" on="0"/>
        <pt x="188" y="275" on="1"/>
        <pt x="188" y="180" on="0"/>
        <pt x="255" y="80" on="0"/>
        <pt x="371" y="80" on="0"/>
        <pt x="435" y="144" on="0"/>
        <pt x="457" y="218" on="1"/>
        <pt x="554" y="225" on="1"/>
        <pt x="525" y="122" on="0"/>
        <pt x="512" y="40" on="1"/>
      </contour>
      <contour>
        <pt x="484" y="753" on="0"/>
        <pt x="434" y="702" on="0"/>
        <pt x="400" y="702" on="1"/>
        <pt x="333" y="702" on="0"/>
        <pt x="333" y="764" on="1"/>
        <pt x="333" y="803" on="0"/>
        <pt x="384" y="854" on="0"/>
        <pt x="452" y="854" on="0"/>
        <pt x="484" y="820" on="0"/>
      </contour>
    </TTGlyph>
    <TTGlyph name="D" xMin="7" yMin="-12" xMax="659" yMax="646">
      <contour>
        <pt x="283" y="-12" on="1"/>
        <pt x="188" y="0" on="0"/>
        <pt x="149" y="0" on="1"/>
        <pt x="87" y="0" on="0"/>
        <pt x="7" y="-10" on="1"/>
        <pt x="22" y="57" on="1"/>
        <pt x="63" y="64" on="0"/>
        <pt x="96" y="99" on="0"/>
        <pt x="102" y="141" on="1"/>
        <pt x="151" y="537" on="0"/>
        <pt x="151" y="560" on="0"/>
        <pt x="143" y="577" on="0"/>
        <pt x="126" y="577" on="1"/>
        <pt x="93" y="575" on="1"/>
        <pt x="89" y="584" on="1"/>
        <pt x="104" y="644" on="1"/>
        <pt x="189" y="641" on="0"/>
        <pt x="227" y="641" on="1"/>
        <pt x="372" y="646" on="1"/>
        <pt x="504" y="646" on="0"/>
        <pt x="659" y="509" on="0"/>
        <pt x="659" y="388" on="1"/>
        <pt x="659" y="216" on="0"/>
        <pt x="445" y="-12" on="0"/>
      </contour>
      <contour>
        <pt x="320" y="562" on="1"/>
        <pt x="304" y="562" on="0"/>
        <pt x="292" y="552" on="0"/>
        <pt x="290" y="538" on="1"/>
        <pt x="227" y="153" on="0"/>
        <pt x="227" y="94" on="0"/>
        <pt x="258" y="72" on="0"/>
        <pt x="299" y="72" on="1"/>
        <pt x="394" y="72" on="0"/>
        <pt x="504" y="235" on="0"/>
        <pt x="504" y="376" on="1"/>
        <pt x="504" y="562" on="0"/>
      </contour>
    </TTGlyph>
    <TTGlyph name="Dcaron" xMin="7" yMin="-12" xMax="659" yMax="865">
      <contour>
        <pt x="283" y="-12" on="1"/>
        <pt x="188" y="0" on="0"/>
        <pt x="149" y="0" on="1"/>
        <pt x="87" y="0" on="0"/>
        <pt x="7" y="-10" on="1"/>
        <pt x="22" y="57" on="1"/>
        <pt x="63" y="64" on="0"/>
        <pt x="96" y="99" on="0"/>
        <pt x="102" y="141" on="1"/>
        <pt x="151" y="537" on="0"/>
        <pt x="151" y="560" on="0"/>
        <pt x="143" y="577" on="0"/>
        <pt x="126" y="577" on="1"/>
        <pt x="93" y="575" on="1"/>
        <pt x="89" y="584" on="1"/>
        <pt x="104" y="644" on="1"/>
        <pt x="189" y="641" on="0"/>
        <pt x="227" y="641" on="1"/>
        <pt x="372" y="646" on="1"/>
        <pt x="504" y="646" on="0"/>
        <pt x="659" y="509" on="0"/>
        <pt x="659" y="388" on="1"/>
        <pt x="659" y="216" on="0"/>
        <pt x="445" y="-12" on="0"/>
      </contour>
      <contour>
        <pt x="320" y="562" on="1"/>
        <pt x="304" y="562" on="0"/>
        <pt x="292" y="552" on="0"/>
        <pt x="290" y="538" on="1"/>
        <pt x="227" y="153" on="0"/>
        <pt x="227" y="94" on="0"/>
        <pt x="258" y="72" on="0"/>
        <pt x="299" y="72" on="1"/>
        <pt x="394" y="72" on="0"/>
        <pt x="504" y="235" on="0"/>
        <pt x="504" y="376" on="1"/>
        <pt x="504" y="562" on="0"/>
      </contour>
      <contour>
        <pt x="392" y="807" on="1"/>
        <pt x="522" y="865" on="1"/>
        <pt x="537" y="861" on="1"/>
        <pt x="557" y="820" on="1"/>
        <pt x="388" y="696" on="1"/>
        <pt x="369" y="696" on="1"/>
        <pt x="267" y="791" on="0"/>
        <pt x="232" y="820" on="1"/>
        <pt x="260" y="861" on="1"/>
        <pt x="277" y="865" on="1"/>
      </contour>
    </TTGlyph>
    <TTGlyph name="Dcroat" xMin="16" yMin="-12" xMax="674" yMax="646">
      <contour>
        <pt x="298" y="-12" on="1"/>
        <pt x="203" y="0" on="0"/>
        <pt x="164" y="0" on="1"/>
        <pt x="102" y="0" on="0"/>
        <pt x="22" y="-10" on="1"/>
        <pt x="37" y="57" on="1"/>
        <pt x="78" y="64" on="0"/>
        <pt x="111" y="99" on="0"/>
        <pt x="117" y="141" on="1"/>
        <pt x="135" y="286" on="1"/>
        <pt x="23" y="286" on="1"/>
        <pt x="16" y="293" on="1"/>
        <pt x="33" y="353" on="1"/>
        <pt x="143" y="353" on="1"/>
        <pt x="166" y="537" on="0"/>
        <pt x="166" y="560" on="0"/>
        <pt x="158" y="577" on="0"/>
        <pt x="141" y="577" on="1"/>
        <pt x="108" y="575" on="1"/>
        <pt x="104" y="584" on="1"/>
        <pt x="119" y="644" on="1"/>
        <pt x="204" y="641" on="0"/>
        <pt x="242" y="641" on="1"/>
        <pt x="387" y="646" on="1"/>
        <pt x="519" y="646" on="0"/>
        <pt x="674" y="509" on="0"/>
        <pt x="674" y="388" on="1"/>
        <pt x="674" y="216" on="0"/>
        <pt x="460" y="-12" on="0"/>
      </contour>
      <contour>
        <pt x="335" y="562" on="1"/>
        <pt x="319" y="562" on="0"/>
        <pt x="307" y="552" on="0"/>
        <pt x="303" y="527" on="0"/>
        <pt x="275" y="353" on="1"/>
        <pt x="392" y="355" on="1"/>
        <pt x="398" y="346" on="1"/>
        <pt x="384" y="286" on="1"/>
        <pt x="264" y="286" on="1"/>
        <pt x="242" y="146" on="0"/>
        <pt x="242" y="94" on="0"/>
        <pt x="273" y="72" on="0"/>
        <pt x="314" y="72" on="1"/>
        <pt x="409" y="72" on="0"/>
        <pt x="519" y="235" on="0"/>
        <pt x="519" y="376" on="1"/>
        <pt x="519" y="562" on="0"/>
      </contour>
    </TTGlyph>
    <TTGlyph name="Delta" xMin="-17" yMin="0" xMax="540" yMax="654">
      <contour>
        <pt x="-8" y="0" on="1"/>
        <pt x="-17" y="13" on="1"/>
        <pt x="266" y="637" on="1"/>
        <pt x="431" y="654" on="1"/>
        <pt x="440" y="654" on="1"/>
        <pt x="492" y="264" on="0"/>
        <pt x="540" y="7" on="1"/>
        <pt x="531" y="0" on="1"/>
      </contour>
      <contour>
        <pt x="330" y="519" on="1"/>
        <pt x="314" y="519" on="1"/>
        <pt x="136" y="95" on="1"/>
        <pt x="377" y="95" on="1"/>
      </contour>
    </TTGlyph>
    <TTGlyph name="E" xMin="5" yMin="-10" xMax="584" yMax="653">
      <contour>
        <pt x="262" y="369" on="1"/>
        <pt x="352" y="368" on="1"/>
        <pt x="465" y="376" on="1"/>
        <pt x="471" y="368" on="1"/>
        <pt x="447" y="283" on="1"/>
        <pt x="370" y="286" on="0"/>
        <pt x="299" y="286" on="0"/>
        <pt x="248" y="280" on="1"/>
        <pt x="225" y="123" on="0"/>
        <pt x="225" y="90" on="0"/>
        <pt x="247" y="77" on="0"/>
        <pt x="282" y="77" on="1"/>
        <pt x="371" y="77" on="0"/>
        <pt x="426" y="115" on="0"/>
        <pt x="446" y="191" on="1"/>
        <pt x="529" y="198" on="1"/>
        <pt x="535" y="188" on="1"/>
        <pt x="506" y="99" on="0"/>
        <pt x="485" y="3" on="1"/>
        <pt x="474" y="-7" on="1"/>
        <pt x="295" y="0" on="0"/>
        <pt x="216" y="0" on="1"/>
        <pt x="99" y="0" on="0"/>
        <pt x="5" y="-10" on="1"/>
        <pt x="21" y="57" on="1"/>
        <pt x="62" y="63" on="0"/>
        <pt x="95" y="99" on="0"/>
        <pt x="100" y="142" on="1"/>
        <pt x="150" y="539" on="0"/>
        <pt x="150" y="562" on="0"/>
        <pt x="143" y="578" on="0"/>
        <pt x="124" y="578" on="1"/>
        <pt x="94" y="576" on="1"/>
        <pt x="89" y="585" on="1"/>
        <pt x="104" y="644" on="1"/>
        <pt x="210" y="641" on="0"/>
        <pt x="488" y="641" on="0"/>
        <pt x="578" y="653" on="1"/>
        <pt x="584" y="643" on="1"/>
        <pt x="556" y="555" on="0"/>
        <pt x="540" y="462" on="1"/>
        <pt x="450" y="456" on="1"/>
        <pt x="458" y="491" on="0"/>
        <pt x="458" y="543" on="0"/>
        <pt x="414" y="560" on="0"/>
        <pt x="309" y="560" on="0"/>
        <pt x="292" y="550" on="0"/>
        <pt x="288" y="527" on="1"/>
      </contour>
    </TTGlyph>
    <TTGlyph name="Eacute" xMin="5" yMin="-10" xMax="584" yMax="857">
      <contour>
        <pt x="262" y="369" on="1"/>
        <pt x="352" y="368" on="1"/>
        <pt x="465" y="376" on="1"/>
        <pt x="471" y="368" on="1"/>
        <pt x="447" y="283" on="1"/>
        <pt x="370" y="286" on="0"/>
        <pt x="299" y="286" on="0"/>
        <pt x="248" y="280" on="1"/>
        <pt x="225" y="123" on="0"/>
        <pt x="225" y="90" on="0"/>
        <pt x="247" y="77" on="0"/>
        <pt x="282" y="77" on="1"/>
        <pt x="371" y="77" on="0"/>
        <pt x="426" y="115" on="0"/>
        <pt x="446" y="191" on="1"/>
        <pt x="529" y="198" on="1"/>
        <pt x="535" y="188" on="1"/>
        <pt x="506" y="99" on="0"/>
        <pt x="485" y="3" on="1"/>
        <pt x="474" y="-7" on="1"/>
        <pt x="295" y="0" on="0"/>
        <pt x="216" y="0" on="1"/>
        <pt x="99" y="0" on="0"/>
        <pt x="5" y="-10" on="1"/>
        <pt x="21" y="57" on="1"/>
        <pt x="62" y="63" on="0"/>
        <pt x="95" y="99" on="0"/>
        <pt x="100" y="142" on="1"/>
        <pt x="150" y="539" on="0"/>
        <pt x="150" y="562" on="0"/>
        <pt x="143" y="578" on="0"/>
        <pt x="124" y="578" on="1"/>
        <pt x="94" y="576" on="1"/>
        <pt x="89" y="585" on="1"/>
        <pt x="104" y="644" on="1"/>
        <pt x="210" y="641" on="0"/>
        <pt x="488" y="641" on="0"/>
        <pt x="578" y="653" on="1"/>
        <pt x="584" y="643" on="1"/>
        <pt x="556" y="555" on="0"/>
        <pt x="540" y="462" on="1"/>
        <pt x="450" y="456" on="1"/>
        <pt x="458" y="491" on="0"/>
        <pt x="458" y="543" on="0"/>
        <pt x="414" y="560" on="0"/>
        <pt x="309" y="560" on="0"/>
        <pt x="292" y="550" on="0"/>
        <pt x="288" y="527" on="1"/>
      </contour>
      <contour>
        <pt x="500" y="775" on="1"/>
        <pt x="495" y="762" on="1"/>
        <pt x="380" y="733" on="0"/>
        <pt x="266" y="697" on="1"/>
        <pt x="253" y="706" on="1"/>
        <pt x="239" y="753" on="1"/>
        <pt x="462" y="857" on="1"/>
        <pt x="475" y="852" on="1"/>
      </contour>
    </TTGlyph>
    <TTGlyph name="Ebreve" xMin="5" yMin="-10" xMax="584" yMax="870">
      <contour>
        <pt x="262" y="369" on="1"/>
        <pt x="352" y="368" on="1"/>
        <pt x="465" y="376" on="1"/>
        <pt x="471" y="368" on="1"/>
        <pt x="447" y="283" on="1"/>
        <pt x="370" y="286" on="0"/>
        <pt x="299" y="286" on="0"/>
        <pt x="248" y="280" on="1"/>
        <pt x="225" y="123" on="0"/>
        <pt x="225" y="90" on="0"/>
        <pt x="247" y="77" on="0"/>
        <pt x="282" y="77" on="1"/>
        <pt x="371" y="77" on="0"/>
        <pt x="426" y="115" on="0"/>
        <pt x="446" y="191" on="1"/>
        <pt x="529" y="198" on="1"/>
        <pt x="535" y="188" on="1"/>
        <pt x="506" y="99" on="0"/>
        <pt x="485" y="3" on="1"/>
        <pt x="474" y="-7" on="1"/>
        <pt x="295" y="0" on="0"/>
        <pt x="216" y="0" on="1"/>
        <pt x="99" y="0" on="0"/>
        <pt x="5" y="-10" on="1"/>
        <pt x="21" y="57" on="1"/>
        <pt x="62" y="63" on="0"/>
        <pt x="95" y="99" on="0"/>
        <pt x="100" y="142" on="1"/>
        <pt x="150" y="539" on="0"/>
        <pt x="150" y="562" on="0"/>
        <pt x="143" y="578" on="0"/>
        <pt x="124" y="578" on="1"/>
        <pt x="94" y="576" on="1"/>
        <pt x="89" y="585" on="1"/>
        <pt x="104" y="644" on="1"/>
        <pt x="210" y="641" on="0"/>
        <pt x="488" y="641" on="0"/>
        <pt x="578" y="653" on="1"/>
        <pt x="584" y="643" on="1"/>
        <pt x="556" y="555" on="0"/>
        <pt x="540" y="462" on="1"/>
        <pt x="450" y="456" on="1"/>
        <pt x="458" y="491" on="0"/>
        <pt x="458" y="543" on="0"/>
        <pt x="414" y="560" on="0"/>
        <pt x="309" y="560" on="0"/>
        <pt x="292" y="550" on="0"/>
        <pt x="288" y="527" on="1"/>
      </contour>
      <contour>
        <pt x="297" y="802" on="0"/>
        <pt x="445" y="802" on="0"/>
        <pt x="479" y="870" on="1"/>
        <pt x="497" y="866" on="1"/>
        <pt x="519" y="832" on="1"/>
        <pt x="499" y="779" on="0"/>
        <pt x="417" y="707" on="0"/>
        <pt x="302" y="707" on="0"/>
        <pt x="238" y="779" on="0"/>
        <pt x="230" y="832" on="1"/>
        <pt x="261" y="866" on="1"/>
        <pt x="279" y="870" on="1"/>
      </contour>
    </TTGlyph>
    <TTGlyph name="Ecaron" xMin="5" yMin="-10" xMax="584" yMax="865">
      <contour>
        <pt x="262" y="369" on="1"/>
        <pt x="352" y="368" on="1"/>
        <pt x="465" y="376" on="1"/>
        <pt x="471" y="368" on="1"/>
        <pt x="447" y="283" on="1"/>
        <pt x="370" y="286" on="0"/>
        <pt x="299" y="286" on="0"/>
        <pt x="248" y="280" on="1"/>
        <pt x="225" y="123" on="0"/>
        <pt x="225" y="90" on="0"/>
        <pt x="247" y="77" on="0"/>
        <pt x="282" y="77" on="1"/>
        <pt x="371" y="77" on="0"/>
        <pt x="426" y="115" on="0"/>
        <pt x="446" y="191" on="1"/>
        <pt x="529" y="198" on="1"/>
        <pt x="535" y="188" on="1"/>
        <pt x="506" y="99" on="0"/>
        <pt x="485" y="3" on="1"/>
        <pt x="474" y="-7" on="1"/>
        <pt x="295" y="0" on="0"/>
        <pt x="216" y="0" on="1"/>
        <pt x="99" y="0" on="0"/>
        <pt x="5" y="-10" on="1"/>
        <pt x="21" y="57" on="1"/>
        <pt x="62" y="63" on="0"/>
        <pt x="95" y="99" on="0"/>
        <pt x="100" y="142" on="1"/>
        <pt x="150" y="539" on="0"/>
        <pt x="150" y="562" on="0"/>
        <pt x="143" y="578" on="0"/>
        <pt x="124" y="578" on="1"/>
        <pt x="94" y="576" on="1"/>
        <pt x="89" y="585" on="1"/>
        <pt x="104" y="644" on="1"/>
        <pt x="210" y="641" on="0"/>
        <pt x="488" y="641" on="0"/>
        <pt x="578" y="653" on="1"/>
        <pt x="584" y="643" on="1"/>
        <pt x="556" y="555" on="0"/>
        <pt x="540" y="462" on="1"/>
        <pt x="450" y="456" on="1"/>
        <pt x="458" y="491" on="0"/>
        <pt x="458" y="543" on="0"/>
        <pt x="414" y="560" on="0"/>
        <pt x="309" y="560" on="0"/>
        <pt x="292" y="550" on="0"/>
        <pt x="288" y="527" on="1"/>
      </contour>
      <contour>
        <pt x="381" y="807" on="1"/>
        <pt x="511" y="865" on="1"/>
        <pt x="526" y="861" on="1"/>
        <pt x="546" y="820" on="1"/>
        <pt x="377" y="696" on="1"/>
        <pt x="358" y="696" on="1"/>
        <pt x="256" y="791" on="0"/>
        <pt x="221" y="820" on="1"/>
        <pt x="249" y="861" on="1"/>
        <pt x="266" y="865" on="1"/>
      </contour>
    </TTGlyph>
    <TTGlyph name="Ecircumflex" xMin="5" yMin="-10" xMax="584" yMax="876">
      <contour>
        <pt x="262" y="369" on="1"/>
        <pt x="352" y="368" on="1"/>
        <pt x="465" y="376" on="1"/>
        <pt x="471" y="368" on="1"/>
        <pt x="447" y="283" on="1"/>
        <pt x="370" y="286" on="0"/>
        <pt x="299" y="286" on="0"/>
        <pt x="248" y="280" on="1"/>
        <pt x="225" y="123" on="0"/>
        <pt x="225" y="90" on="0"/>
        <pt x="247" y="77" on="0"/>
        <pt x="282" y="77" on="1"/>
        <pt x="371" y="77" on="0"/>
        <pt x="426" y="115" on="0"/>
        <pt x="446" y="191" on="1"/>
        <pt x="529" y="198" on="1"/>
        <pt x="535" y="188" on="1"/>
        <pt x="506" y="99" on="0"/>
        <pt x="485" y="3" on="1"/>
        <pt x="474" y="-7" on="1"/>
        <pt x="295" y="0" on="0"/>
        <pt x="216" y="0" on="1"/>
        <pt x="99" y="0" on="0"/>
        <pt x="5" y="-10" on="1"/>
        <pt x="21" y="57" on="1"/>
        <pt x="62" y="63" on="0"/>
        <pt x="95" y="99" on="0"/>
        <pt x="100" y="142" on="1"/>
        <pt x="150" y="539" on="0"/>
        <pt x="150" y="562" on="0"/>
        <pt x="143" y="578" on="0"/>
        <pt x="124" y="578" on="1"/>
        <pt x="94" y="576" on="1"/>
        <pt x="89" y="585" on="1"/>
        <pt x="104" y="644" on="1"/>
        <pt x="210" y="641" on="0"/>
        <pt x="488" y="641" on="0"/>
        <pt x="578" y="653" on="1"/>
        <pt x="584" y="643" on="1"/>
        <pt x="556" y="555" on="0"/>
        <pt x="540" y="462" on="1"/>
        <pt x="450" y="456" on="1"/>
        <pt x="458" y="491" on="0"/>
        <pt x="458" y="543" on="0"/>
        <pt x="414" y="560" on="0"/>
        <pt x="309" y="560" on="0"/>
        <pt x="292" y="550" on="0"/>
        <pt x="288" y="527" on="1"/>
      </contour>
      <contour>
        <pt x="377" y="765" on="1"/>
        <pt x="247" y="707" on="1"/>
        <pt x="232" y="711" on="1"/>
        <pt x="213" y="752" on="1"/>
        <pt x="381" y="876" on="1"/>
        <pt x="401" y="876" on="1"/>
        <pt x="401" y="877" on="0"/>
        <pt x="427" y="853" on="1"/>
        <pt x="516" y="771" on="0"/>
        <pt x="538" y="752" on="1"/>
        <pt x="509" y="711" on="1"/>
        <pt x="492" y="707" on="1"/>
      </contour>
    </TTGlyph>
    <TTGlyph name="Edieresis" xMin="5" yMin="-10" xMax="584" yMax="839">
      <contour>
        <pt x="262" y="369" on="1"/>
        <pt x="352" y="368" on="1"/>
        <pt x="465" y="376" on="1"/>
        <pt x="471" y="368" on="1"/>
        <pt x="447" y="283" on="1"/>
        <pt x="370" y="286" on="0"/>
        <pt x="299" y="286" on="0"/>
        <pt x="248" y="280" on="1"/>
        <pt x="225" y="123" on="0"/>
        <pt x="225" y="90" on="0"/>
        <pt x="247" y="77" on="0"/>
        <pt x="282" y="77" on="1"/>
        <pt x="371" y="77" on="0"/>
        <pt x="426" y="115" on="0"/>
        <pt x="446" y="191" on="1"/>
        <pt x="529" y="198" on="1"/>
        <pt x="535" y="188" on="1"/>
        <pt x="506" y="99" on="0"/>
        <pt x="485" y="3" on="1"/>
        <pt x="474" y="-7" on="1"/>
        <pt x="295" y="0" on="0"/>
        <pt x="216" y="0" on="1"/>
        <pt x="99" y="0" on="0"/>
        <pt x="5" y="-10" on="1"/>
        <pt x="21" y="57" on="1"/>
        <pt x="62" y="63" on="0"/>
        <pt x="95" y="99" on="0"/>
        <pt x="100" y="142" on="1"/>
        <pt x="150" y="539" on="0"/>
        <pt x="150" y="562" on="0"/>
        <pt x="143" y="578" on="0"/>
        <pt x="124" y="578" on="1"/>
        <pt x="94" y="576" on="1"/>
        <pt x="89" y="585" on="1"/>
        <pt x="104" y="644" on="1"/>
        <pt x="210" y="641" on="0"/>
        <pt x="488" y="641" on="0"/>
        <pt x="578" y="653" on="1"/>
        <pt x="584" y="643" on="1"/>
        <pt x="556" y="555" on="0"/>
        <pt x="540" y="462" on="1"/>
        <pt x="450" y="456" on="1"/>
        <pt x="458" y="491" on="0"/>
        <pt x="458" y="543" on="0"/>
        <pt x="414" y="560" on="0"/>
        <pt x="309" y="560" on="0"/>
        <pt x="292" y="550" on="0"/>
        <pt x="288" y="527" on="1"/>
      </contour>
      <contour>
        <pt x="527" y="754" on="0"/>
        <pt x="485" y="711" on="0"/>
        <pt x="456" y="711" on="1"/>
        <pt x="400" y="711" on="0"/>
        <pt x="400" y="763" on="1"/>
        <pt x="400" y="796" on="0"/>
        <pt x="443" y="839" on="0"/>
        <pt x="500" y="839" on="0"/>
        <pt x="527" y="811" on="0"/>
      </contour>
      <contour>
        <pt x="279" y="711" on="1"/>
        <pt x="227" y="711" on="0"/>
        <pt x="227" y="763" on="1"/>
        <pt x="227" y="796" on="0"/>
        <pt x="269" y="839" on="0"/>
        <pt x="298" y="839" on="1"/>
        <pt x="354" y="839" on="0"/>
        <pt x="354" y="787" on="1"/>
        <pt x="354" y="754" on="0"/>
        <pt x="312" y="711" on="0"/>
      </contour>
    </TTGlyph>
    <TTGlyph name="Edotaccent" xMin="5" yMin="-10" xMax="584" yMax="854">
      <contour>
        <pt x="262" y="369" on="1"/>
        <pt x="352" y="368" on="1"/>
        <pt x="465" y="376" on="1"/>
        <pt x="471" y="368" on="1"/>
        <pt x="447" y="283" on="1"/>
        <pt x="370" y="286" on="0"/>
        <pt x="299" y="286" on="0"/>
        <pt x="248" y="280" on="1"/>
        <pt x="225" y="123" on="0"/>
        <pt x="225" y="90" on="0"/>
        <pt x="247" y="77" on="0"/>
        <pt x="282" y="77" on="1"/>
        <pt x="371" y="77" on="0"/>
        <pt x="426" y="115" on="0"/>
        <pt x="446" y="191" on="1"/>
        <pt x="529" y="198" on="1"/>
        <pt x="535" y="188" on="1"/>
        <pt x="506" y="99" on="0"/>
        <pt x="485" y="3" on="1"/>
        <pt x="474" y="-7" on="1"/>
        <pt x="295" y="0" on="0"/>
        <pt x="216" y="0" on="1"/>
        <pt x="99" y="0" on="0"/>
        <pt x="5" y="-10" on="1"/>
        <pt x="21" y="57" on="1"/>
        <pt x="62" y="63" on="0"/>
        <pt x="95" y="99" on="0"/>
        <pt x="100" y="142" on="1"/>
        <pt x="150" y="539" on="0"/>
        <pt x="150" y="562" on="0"/>
        <pt x="143" y="578" on="0"/>
        <pt x="124" y="578" on="1"/>
        <pt x="94" y="576" on="1"/>
        <pt x="89" y="585" on="1"/>
        <pt x="104" y="644" on="1"/>
        <pt x="210" y="641" on="0"/>
        <pt x="488" y="641" on="0"/>
        <pt x="578" y="653" on="1"/>
        <pt x="584" y="643" on="1"/>
        <pt x="556" y="555" on="0"/>
        <pt x="540" y="462" on="1"/>
        <pt x="450" y="456" on="1"/>
        <pt x="458" y="491" on="0"/>
        <pt x="458" y="543" on="0"/>
        <pt x="414" y="560" on="0"/>
        <pt x="309" y="560" on="0"/>
        <pt x="292" y="550" on="0"/>
        <pt x="288" y="527" on="1"/>
      </contour>
      <contour>
        <pt x="454" y="753" on="0"/>
        <pt x="404" y="702" on="0"/>
        <pt x="370" y="702" on="1"/>
        <pt x="303" y="702" on="0"/>
        <pt x="303" y="764" on="1"/>
        <pt x="303" y="803" on="0"/>
        <pt x="354" y="854" on="0"/>
        <pt x="422" y="854" on="0"/>
        <pt x="454" y="820" on="0"/>
      </contour>
    </TTGlyph>
    <TTGlyph name="Egrave" xMin="5" yMin="-10" xMax="584" yMax="857">
      <contour>
        <pt x="262" y="369" on="1"/>
        <pt x="352" y="368" on="1"/>
        <pt x="465" y="376" on="1"/>
        <pt x="471" y="368" on="1"/>
        <pt x="447" y="283" on="1"/>
        <pt x="370" y="286" on="0"/>
        <pt x="299" y="286" on="0"/>
        <pt x="248" y="280" on="1"/>
        <pt x="225" y="123" on="0"/>
        <pt x="225" y="90" on="0"/>
        <pt x="247" y="77" on="0"/>
        <pt x="282" y="77" on="1"/>
        <pt x="371" y="77" on="0"/>
        <pt x="426" y="115" on="0"/>
        <pt x="446" y="191" on="1"/>
        <pt x="529" y="198" on="1"/>
        <pt x="535" y="188" on="1"/>
        <pt x="506" y="99" on="0"/>
        <pt x="485" y="3" on="1"/>
        <pt x="474" y="-7" on="1"/>
        <pt x="295" y="0" on="0"/>
        <pt x="216" y="0" on="1"/>
        <pt x="99" y="0" on="0"/>
        <pt x="5" y="-10" on="1"/>
        <pt x="21" y="57" on="1"/>
        <pt x="62" y="63" on="0"/>
        <pt x="95" y="99" on="0"/>
        <pt x="100" y="142" on="1"/>
        <pt x="150" y="539" on="0"/>
        <pt x="150" y="562" on="0"/>
        <pt x="143" y="578" on="0"/>
        <pt x="124" y="578" on="1"/>
        <pt x="94" y="576" on="1"/>
        <pt x="89" y="585" on="1"/>
        <pt x="104" y="644" on="1"/>
        <pt x="210" y="641" on="0"/>
        <pt x="488" y="641" on="0"/>
        <pt x="578" y="653" on="1"/>
        <pt x="584" y="643" on="1"/>
        <pt x="556" y="555" on="0"/>
        <pt x="540" y="462" on="1"/>
        <pt x="450" y="456" on="1"/>
        <pt x="458" y="491" on="0"/>
        <pt x="458" y="543" on="0"/>
        <pt x="414" y="560" on="0"/>
        <pt x="309" y="560" on="0"/>
        <pt x="292" y="550" on="0"/>
        <pt x="288" y="527" on="1"/>
      </contour>
      <contour>
        <pt x="222" y="762" on="1"/>
        <pt x="217" y="775" on="1"/>
        <pt x="242" y="852" on="1"/>
        <pt x="255" y="857" on="1"/>
        <pt x="370" y="800" on="0"/>
        <pt x="478" y="753" on="1"/>
        <pt x="465" y="706" on="1"/>
        <pt x="451" y="697" on="1"/>
        <pt x="329" y="735" on="0"/>
      </contour>
    </TTGlyph>
    <TTGlyph name="Emacron" xMin="5" yMin="-10" xMax="584" yMax="805">
      <contour>
        <pt x="262" y="369" on="1"/>
        <pt x="352" y="368" on="1"/>
        <pt x="465" y="376" on="1"/>
        <pt x="471" y="368" on="1"/>
        <pt x="447" y="283" on="1"/>
        <pt x="370" y="286" on="0"/>
        <pt x="299" y="286" on="0"/>
        <pt x="248" y="280" on="1"/>
        <pt x="225" y="123" on="0"/>
        <pt x="225" y="90" on="0"/>
        <pt x="247" y="77" on="0"/>
        <pt x="282" y="77" on="1"/>
        <pt x="371" y="77" on="0"/>
        <pt x="426" y="115" on="0"/>
        <pt x="446" y="191" on="1"/>
        <pt x="529" y="198" on="1"/>
        <pt x="535" y="188" on="1"/>
        <pt x="506" y="99" on="0"/>
        <pt x="485" y="3" on="1"/>
        <pt x="474" y="-7" on="1"/>
        <pt x="295" y="0" on="0"/>
        <pt x="216" y="0" on="1"/>
        <pt x="99" y="0" on="0"/>
        <pt x="5" y="-10" on="1"/>
        <pt x="21" y="57" on="1"/>
        <pt x="62" y="63" on="0"/>
        <pt x="95" y="99" on="0"/>
        <pt x="100" y="142" on="1"/>
        <pt x="150" y="539" on="0"/>
        <pt x="150" y="562" on="0"/>
        <pt x="143" y="578" on="0"/>
        <pt x="124" y="578" on="1"/>
        <pt x="94" y="576" on="1"/>
        <pt x="89" y="585" on="1"/>
        <pt x="104" y="644" on="1"/>
        <pt x="210" y="641" on="0"/>
        <pt x="488" y="641" on="0"/>
        <pt x="578" y="653" on="1"/>
        <pt x="584" y="643" on="1"/>
        <pt x="556" y="555" on="0"/>
        <pt x="540" y="462" on="1"/>
        <pt x="450" y="456" on="1"/>
        <pt x="458" y="491" on="0"/>
        <pt x="458" y="543" on="0"/>
        <pt x="414" y="560" on="0"/>
        <pt x="309" y="560" on="0"/>
        <pt x="292" y="550" on="0"/>
        <pt x="288" y="527" on="1"/>
      </contour>
      <contour>
        <pt x="521" y="805" on="1"/>
        <pt x="528" y="791" on="1"/>
        <pt x="506" y="714" on="1"/>
        <pt x="236" y="712" on="1"/>
        <pt x="227" y="724" on="1"/>
        <pt x="250" y="800" on="1"/>
        <pt x="342" y="799" on="0"/>
        <pt x="398" y="799" on="1"/>
      </contour>
    </TTGlyph>
    <TTGlyph name="Eng" xMin="13" yMin="-163" xMax="738" yMax="648">
      <contour>
        <pt x="511" y="228" on="1"/>
        <pt x="548" y="540" on="0"/>
        <pt x="548" y="551" on="1"/>
        <pt x="548" y="579" on="0"/>
        <pt x="521" y="579" on="1"/>
        <pt x="487" y="578" on="1"/>
        <pt x="485" y="584" on="1"/>
        <pt x="499" y="646" on="1"/>
        <pt x="595" y="642" on="0"/>
        <pt x="625" y="642" on="1"/>
        <pt x="738" y="648" on="1"/>
        <pt x="726" y="582" on="1"/>
        <pt x="692" y="578" on="0"/>
        <pt x="662" y="549" on="0"/>
        <pt x="657" y="519" on="1"/>
        <pt x="594" y="86" on="1"/>
        <pt x="578" y="-14" on="0"/>
        <pt x="468" y="-131" on="0"/>
        <pt x="360" y="-163" on="1"/>
        <pt x="336" y="-122" on="1"/>
        <pt x="340" y="-111" on="1"/>
        <pt x="427" y="-72" on="0"/>
        <pt x="460" y="4" on="1"/>
        <pt x="365" y="204" on="0"/>
        <pt x="249" y="425" on="1"/>
        <pt x="240" y="425" on="1"/>
        <pt x="199" y="100" on="0"/>
        <pt x="199" y="80" on="0"/>
        <pt x="209" y="63" on="0"/>
        <pt x="228" y="63" on="1"/>
        <pt x="269" y="65" on="1"/>
        <pt x="274" y="59" on="1"/>
        <pt x="257" y="-4" on="1"/>
        <pt x="176" y="0" on="0"/>
        <pt x="115" y="0" on="1"/>
        <pt x="13" y="-8" on="1"/>
        <pt x="29" y="57" on="1"/>
        <pt x="60" y="61" on="0"/>
        <pt x="89" y="94" on="0"/>
        <pt x="96" y="133" on="1"/>
        <pt x="155" y="525" on="0"/>
        <pt x="155" y="554" on="0"/>
        <pt x="130" y="575" on="0"/>
        <pt x="84" y="581" on="1"/>
        <pt x="78" y="591" on="1"/>
        <pt x="91" y="647" on="1"/>
        <pt x="165" y="642" on="0"/>
        <pt x="201" y="642" on="1"/>
        <pt x="296" y="646" on="1"/>
        <pt x="374" y="472" on="0"/>
        <pt x="502" y="228" on="1"/>
      </contour>
    </TTGlyph>
    <TTGlyph name="Eogonek" xMin="5" yMin="-241" xMax="584" yMax="653">
      <contour>
        <pt x="262" y="369" on="1"/>
        <pt x="352" y="368" on="1"/>
        <pt x="465" y="376" on="1"/>
        <pt x="471" y="368" on="1"/>
        <pt x="447" y="283" on="1"/>
        <pt x="370" y="286" on="0"/>
        <pt x="299" y="286" on="0"/>
        <pt x="248" y="280" on="1"/>
        <pt x="225" y="123" on="0"/>
        <pt x="225" y="90" on="0"/>
        <pt x="247" y="77" on="0"/>
        <pt x="282" y="77" on="1"/>
        <pt x="371" y="77" on="0"/>
        <pt x="426" y="115" on="0"/>
        <pt x="446" y="191" on="1"/>
        <pt x="529" y="198" on="1"/>
        <pt x="535" y="188" on="1"/>
        <pt x="506" y="99" on="0"/>
        <pt x="485" y="3" on="1"/>
        <pt x="474" y="-7" on="1"/>
        <pt x="459" y="-6" on="0"/>
        <pt x="435" y="-5" on="1"/>
        <pt x="390" y="-54" on="0"/>
        <pt x="359" y="-104" on="0"/>
        <pt x="359" y="-146" on="0"/>
        <pt x="381" y="-169" on="0"/>
        <pt x="398" y="-169" on="1"/>
        <pt x="430" y="-169" on="0"/>
        <pt x="472" y="-145" on="1"/>
        <pt x="487" y="-174" on="1"/>
        <pt x="430" y="-224" on="0"/>
        <pt x="380" y="-241" on="1"/>
        <pt x="331" y="-241" on="0"/>
        <pt x="274" y="-198" on="0"/>
        <pt x="274" y="-126" on="0"/>
        <pt x="322" y="-55" on="0"/>
        <pt x="376" y="-3" on="1"/>
        <pt x="284" y="0" on="0"/>
        <pt x="210" y="0" on="1"/>
        <pt x="99" y="0" on="0"/>
        <pt x="5" y="-10" on="1"/>
        <pt x="21" y="57" on="1"/>
        <pt x="62" y="63" on="0"/>
        <pt x="95" y="99" on="0"/>
        <pt x="100" y="142" on="1"/>
        <pt x="150" y="539" on="0"/>
        <pt x="150" y="562" on="0"/>
        <pt x="143" y="578" on="0"/>
        <pt x="124" y="578" on="1"/>
        <pt x="94" y="576" on="1"/>
        <pt x="89" y="585" on="1"/>
        <pt x="104" y="644" on="1"/>
        <pt x="210" y="641" on="0"/>
        <pt x="488" y="641" on="0"/>
        <pt x="578" y="653" on="1"/>
        <pt x="584" y="643" on="1"/>
        <pt x="556" y="555" on="0"/>
        <pt x="540" y="462" on="1"/>
        <pt x="450" y="456" on="1"/>
        <pt x="458" y="491" on="0"/>
        <pt x="458" y="543" on="0"/>
        <pt x="414" y="560" on="0"/>
        <pt x="309" y="560" on="0"/>
        <pt x="292" y="550" on="0"/>
        <pt x="288" y="527" on="1"/>
      </contour>
    </TTGlyph>
    <TTGlyph name="Eth" xMin="16" yMin="-12" xMax="674" yMax="646">
      <contour>
        <pt x="298" y="-12" on="1"/>
        <pt x="203" y="0" on="0"/>
        <pt x="164" y="0" on="1"/>
        <pt x="102" y="0" on="0"/>
        <pt x="22" y="-10" on="1"/>
        <pt x="37" y="57" on="1"/>
        <pt x="78" y="64" on="0"/>
        <pt x="111" y="99" on="0"/>
        <pt x="117" y="141" on="1"/>
        <pt x="135" y="286" on="1"/>
        <pt x="23" y="286" on="1"/>
        <pt x="16" y="293" on="1"/>
        <pt x="33" y="353" on="1"/>
        <pt x="143" y="353" on="1"/>
        <pt x="166" y="537" on="0"/>
        <pt x="166" y="560" on="0"/>
        <pt x="158" y="577" on="0"/>
        <pt x="141" y="577" on="1"/>
        <pt x="108" y="575" on="1"/>
        <pt x="104" y="584" on="1"/>
        <pt x="119" y="644" on="1"/>
        <pt x="204" y="641" on="0"/>
        <pt x="242" y="641" on="1"/>
        <pt x="387" y="646" on="1"/>
        <pt x="519" y="646" on="0"/>
        <pt x="674" y="509" on="0"/>
        <pt x="674" y="388" on="1"/>
        <pt x="674" y="216" on="0"/>
        <pt x="460" y="-12" on="0"/>
      </contour>
      <contour>
        <pt x="335" y="562" on="1"/>
        <pt x="319" y="562" on="0"/>
        <pt x="307" y="552" on="0"/>
        <pt x="303" y="527" on="0"/>
        <pt x="275" y="353" on="1"/>
        <pt x="392" y="355" on="1"/>
        <pt x="398" y="346" on="1"/>
        <pt x="384" y="286" on="1"/>
        <pt x="264" y="286" on="1"/>
        <pt x="242" y="146" on="0"/>
        <pt x="242" y="94" on="0"/>
        <pt x="273" y="72" on="0"/>
        <pt x="314" y="72" on="1"/>
        <pt x="409" y="72" on="0"/>
        <pt x="519" y="235" on="0"/>
        <pt x="519" y="376" on="1"/>
        <pt x="519" y="562" on="0"/>
      </contour>
    </TTGlyph>
    <TTGlyph name="Euro" xMin="-3" yMin="-9" xMax="545" yMax="510">
      <contour>
        <pt x="314" y="67" on="1"/>
        <pt x="356" y="67" on="0"/>
        <pt x="407" y="115" on="0"/>
        <pt x="424" y="173" on="1"/>
        <pt x="506" y="179" on="1"/>
        <pt x="484" y="97" on="0"/>
        <pt x="473" y="31" on="1"/>
        <pt x="464" y="22" on="1"/>
        <pt x="392" y="-9" on="0"/>
        <pt x="202" y="-9" on="0"/>
        <pt x="89" y="82" on="0"/>
        <pt x="78" y="165" on="1"/>
        <pt x="2" y="165" on="1"/>
        <pt x="-3" y="172" on="1"/>
        <pt x="9" y="219" on="1"/>
        <pt x="76" y="219" on="1"/>
        <pt x="78" y="254" on="0"/>
        <pt x="83" y="279" on="1"/>
        <pt x="16" y="279" on="1"/>
        <pt x="11" y="286" on="1"/>
        <pt x="23" y="333" on="1"/>
        <pt x="98" y="333" on="1"/>
        <pt x="131" y="417" on="0"/>
        <pt x="275" y="510" on="0"/>
        <pt x="378" y="510" on="1"/>
        <pt x="437" y="510" on="0"/>
        <pt x="541" y="490" on="1"/>
        <pt x="545" y="479" on="1"/>
        <pt x="521" y="414" on="0"/>
        <pt x="505" y="331" on="1"/>
        <pt x="423" y="325" on="1"/>
        <pt x="430" y="363" on="0"/>
        <pt x="430" y="378" on="1"/>
        <pt x="430" y="432" on="0"/>
        <pt x="350" y="432" on="1"/>
        <pt x="256" y="432" on="0"/>
        <pt x="222" y="333" on="1"/>
        <pt x="225" y="333" on="1"/>
        <pt x="370" y="337" on="1"/>
        <pt x="376" y="328" on="1"/>
        <pt x="365" y="280" on="1"/>
        <pt x="211" y="279" on="1"/>
        <pt x="207" y="255" on="0"/>
        <pt x="207" y="219" on="1"/>
        <pt x="211" y="219" on="1"/>
        <pt x="356" y="223" on="1"/>
        <pt x="362" y="214" on="1"/>
        <pt x="351" y="166" on="1"/>
        <pt x="211" y="165" on="1"/>
        <pt x="229" y="67" on="0"/>
      </contour>
    </TTGlyph>
    <TTGlyph name="F" xMin="5" yMin="-11" xMax="561" yMax="653">
      <contour>
        <pt x="246" y="262" on="1"/>
        <pt x="226" y="126" on="0"/>
        <pt x="226" y="98" on="0"/>
        <pt x="238" y="76" on="0"/>
        <pt x="262" y="76" on="1"/>
        <pt x="325" y="81" on="1"/>
        <pt x="332" y="71" on="1"/>
        <pt x="313" y="-4" on="1"/>
        <pt x="211" y="0" on="0"/>
        <pt x="170" y="0" on="1"/>
        <pt x="106" y="0" on="0"/>
        <pt x="5" y="-11" on="1"/>
        <pt x="20" y="55" on="1"/>
        <pt x="62" y="63" on="0"/>
        <pt x="95" y="99" on="0"/>
        <pt x="100" y="142" on="1"/>
        <pt x="150" y="539" on="0"/>
        <pt x="150" y="562" on="0"/>
        <pt x="143" y="578" on="0"/>
        <pt x="124" y="578" on="1"/>
        <pt x="94" y="576" on="1"/>
        <pt x="89" y="585" on="1"/>
        <pt x="104" y="644" on="1"/>
        <pt x="210" y="641" on="0"/>
        <pt x="471" y="641" on="0"/>
        <pt x="555" y="653" on="1"/>
        <pt x="561" y="643" on="1"/>
        <pt x="535" y="553" on="0"/>
        <pt x="519" y="461" on="1"/>
        <pt x="430" y="455" on="1"/>
        <pt x="438" y="491" on="0"/>
        <pt x="438" y="543" on="0"/>
        <pt x="400" y="560" on="0"/>
        <pt x="309" y="560" on="0"/>
        <pt x="292" y="550" on="0"/>
        <pt x="288" y="527" on="1"/>
        <pt x="260" y="352" on="1"/>
        <pt x="350" y="351" on="1"/>
        <pt x="452" y="359" on="1"/>
        <pt x="458" y="351" on="1"/>
        <pt x="435" y="266" on="1"/>
        <pt x="364" y="269" on="0"/>
        <pt x="286" y="269" on="0"/>
      </contour>
    </TTGlyph>
    <TTGlyph name="G" xMin="32" yMin="-12" xMax="603" yMax="653">
      <contour>
        <pt x="415" y="326" on="1"/>
        <pt x="466" y="325" on="1"/>
        <pt x="491" y="325" on="1"/>
        <pt x="526" y="325" on="0"/>
        <pt x="586" y="329" on="0"/>
        <pt x="586" y="330" on="1"/>
        <pt x="588" y="292" on="1"/>
        <pt x="553" y="270" on="0"/>
        <pt x="544" y="210" on="1"/>
        <pt x="527" y="123" on="0"/>
        <pt x="527" y="74" on="1"/>
        <pt x="528" y="41" on="1"/>
        <pt x="518" y="29" on="1"/>
        <pt x="488" y="14" on="0"/>
        <pt x="356" y="-12" on="0"/>
        <pt x="294" y="-12" on="1"/>
        <pt x="172" y="-12" on="0"/>
        <pt x="32" y="131" on="0"/>
        <pt x="32" y="256" on="1"/>
        <pt x="32" y="437" on="0"/>
        <pt x="233" y="653" on="0"/>
        <pt x="402" y="653" on="1"/>
        <pt x="473" y="653" on="0"/>
        <pt x="599" y="629" on="1"/>
        <pt x="603" y="616" on="1"/>
        <pt x="573" y="540" on="0"/>
        <pt x="554" y="435" on="1"/>
        <pt x="457" y="428" on="1"/>
        <pt x="466" y="471" on="0"/>
        <pt x="466" y="490" on="1"/>
        <pt x="466" y="559" on="0"/>
        <pt x="367" y="559" on="1"/>
        <pt x="282" y="559" on="0"/>
        <pt x="188" y="412" on="0"/>
        <pt x="188" y="275" on="1"/>
        <pt x="188" y="180" on="0"/>
        <pt x="255" y="80" on="0"/>
        <pt x="319" y="80" on="1"/>
        <pt x="344" y="80" on="0"/>
        <pt x="393" y="93" on="0"/>
        <pt x="416" y="106" on="1"/>
        <pt x="428" y="209" on="0"/>
        <pt x="428" y="233" on="0"/>
        <pt x="416" y="249" on="0"/>
        <pt x="391" y="249" on="1"/>
        <pt x="341" y="249" on="1"/>
        <pt x="337" y="257" on="1"/>
        <pt x="356" y="327" on="1"/>
        <pt x="360" y="327" on="1"/>
        <pt x="392" y="326" on="1"/>
      </contour>
    </TTGlyph>
    <TTGlyph name="Gbreve" xMin="32" yMin="-12" xMax="603" yMax="868">
      <contour>
        <pt x="415" y="326" on="1"/>
        <pt x="466" y="325" on="1"/>
        <pt x="491" y="325" on="1"/>
        <pt x="526" y="325" on="0"/>
        <pt x="586" y="329" on="0"/>
        <pt x="586" y="330" on="1"/>
        <pt x="588" y="292" on="1"/>
        <pt x="553" y="270" on="0"/>
        <pt x="544" y="210" on="1"/>
        <pt x="527" y="123" on="0"/>
        <pt x="527" y="74" on="1"/>
        <pt x="528" y="41" on="1"/>
        <pt x="518" y="29" on="1"/>
        <pt x="488" y="14" on="0"/>
        <pt x="356" y="-12" on="0"/>
        <pt x="294" y="-12" on="1"/>
        <pt x="172" y="-12" on="0"/>
        <pt x="32" y="131" on="0"/>
        <pt x="32" y="256" on="1"/>
        <pt x="32" y="437" on="0"/>
        <pt x="233" y="653" on="0"/>
        <pt x="402" y="653" on="1"/>
        <pt x="473" y="653" on="0"/>
        <pt x="599" y="629" on="1"/>
        <pt x="603" y="616" on="1"/>
        <pt x="573" y="540" on="0"/>
        <pt x="554" y="435" on="1"/>
        <pt x="457" y="428" on="1"/>
        <pt x="466" y="471" on="0"/>
        <pt x="466" y="490" on="1"/>
        <pt x="466" y="559" on="0"/>
        <pt x="367" y="559" on="1"/>
        <pt x="282" y="559" on="0"/>
        <pt x="188" y="412" on="0"/>
        <pt x="188" y="275" on="1"/>
        <pt x="188" y="180" on="0"/>
        <pt x="255" y="80" on="0"/>
        <pt x="319" y="80" on="1"/>
        <pt x="344" y="80" on="0"/>
        <pt x="393" y="93" on="0"/>
        <pt x="416" y="106" on="1"/>
        <pt x="428" y="209" on="0"/>
        <pt x="428" y="233" on="0"/>
        <pt x="416" y="249" on="0"/>
        <pt x="391" y="249" on="1"/>
        <pt x="341" y="249" on="1"/>
        <pt x="337" y="257" on="1"/>
        <pt x="356" y="327" on="1"/>
        <pt x="360" y="327" on="1"/>
        <pt x="392" y="326" on="1"/>
      </contour>
      <contour>
        <pt x="306" y="868" on="1"/>
        <pt x="325" y="809" on="0"/>
        <pt x="473" y="809" on="0"/>
        <pt x="507" y="868" on="1"/>
        <pt x="523" y="865" on="1"/>
        <pt x="546" y="830" on="1"/>
        <pt x="526" y="781" on="0"/>
        <pt x="445" y="714" on="0"/>
        <pt x="329" y="714" on="0"/>
        <pt x="264" y="781" on="0"/>
        <pt x="256" y="830" on="1"/>
        <pt x="289" y="865" on="1"/>
      </contour>
    </TTGlyph>
    <TTGlyph name="Gcircumflex" xMin="32" yMin="-12" xMax="603" yMax="904">
      <contour>
        <pt x="415" y="326" on="1"/>
        <pt x="466" y="325" on="1"/>
        <pt x="491" y="325" on="1"/>
        <pt x="526" y="325" on="0"/>
        <pt x="586" y="329" on="0"/>
        <pt x="586" y="330" on="1"/>
        <pt x="588" y="292" on="1"/>
        <pt x="553" y="270" on="0"/>
        <pt x="544" y="210" on="1"/>
        <pt x="527" y="123" on="0"/>
        <pt x="527" y="74" on="1"/>
        <pt x="528" y="41" on="1"/>
        <pt x="518" y="29" on="1"/>
        <pt x="488" y="14" on="0"/>
        <pt x="356" y="-12" on="0"/>
        <pt x="294" y="-12" on="1"/>
        <pt x="172" y="-12" on="0"/>
        <pt x="32" y="131" on="0"/>
        <pt x="32" y="256" on="1"/>
        <pt x="32" y="437" on="0"/>
        <pt x="233" y="653" on="0"/>
        <pt x="402" y="653" on="1"/>
        <pt x="473" y="653" on="0"/>
        <pt x="599" y="629" on="1"/>
        <pt x="603" y="616" on="1"/>
        <pt x="573" y="540" on="0"/>
        <pt x="554" y="435" on="1"/>
        <pt x="457" y="428" on="1"/>
        <pt x="466" y="471" on="0"/>
        <pt x="466" y="490" on="1"/>
        <pt x="466" y="559" on="0"/>
        <pt x="367" y="559" on="1"/>
        <pt x="282" y="559" on="0"/>
        <pt x="188" y="412" on="0"/>
        <pt x="188" y="275" on="1"/>
        <pt x="188" y="180" on="0"/>
        <pt x="255" y="80" on="0"/>
        <pt x="319" y="80" on="1"/>
        <pt x="344" y="80" on="0"/>
        <pt x="393" y="93" on="0"/>
        <pt x="416" y="106" on="1"/>
        <pt x="428" y="209" on="0"/>
        <pt x="428" y="233" on="0"/>
        <pt x="416" y="249" on="0"/>
        <pt x="391" y="249" on="1"/>
        <pt x="341" y="249" on="1"/>
        <pt x="337" y="257" on="1"/>
        <pt x="356" y="327" on="1"/>
        <pt x="360" y="327" on="1"/>
        <pt x="392" y="326" on="1"/>
      </contour>
      <contour>
        <pt x="491" y="705" on="1"/>
        <pt x="405" y="777" on="0"/>
        <pt x="388" y="788" on="1"/>
        <pt x="385" y="786" on="0"/>
        <pt x="266" y="705" on="1"/>
        <pt x="250" y="709" on="1"/>
        <pt x="226" y="750" on="1"/>
        <pt x="262" y="780" on="0"/>
        <pt x="392" y="904" on="1"/>
        <pt x="412" y="904" on="1"/>
        <pt x="509" y="783" on="0"/>
        <pt x="541" y="750" on="1"/>
        <pt x="507" y="709" on="1"/>
      </contour>
    </TTGlyph>
    <TTGlyph name="Gcommaaccent" xMin="32" yMin="-318" xMax="603" yMax="653">
      <contour>
        <pt x="415" y="326" on="1"/>
        <pt x="466" y="325" on="1"/>
        <pt x="491" y="325" on="1"/>
        <pt x="526" y="325" on="0"/>
        <pt x="586" y="329" on="0"/>
        <pt x="586" y="330" on="1"/>
        <pt x="588" y="292" on="1"/>
        <pt x="553" y="270" on="0"/>
        <pt x="544" y="210" on="1"/>
        <pt x="527" y="123" on="0"/>
        <pt x="527" y="74" on="1"/>
        <pt x="528" y="41" on="1"/>
        <pt x="518" y="29" on="1"/>
        <pt x="488" y="14" on="0"/>
        <pt x="356" y="-12" on="0"/>
        <pt x="294" y="-12" on="1"/>
        <pt x="172" y="-12" on="0"/>
        <pt x="32" y="131" on="0"/>
        <pt x="32" y="256" on="1"/>
        <pt x="32" y="437" on="0"/>
        <pt x="233" y="653" on="0"/>
        <pt x="402" y="653" on="1"/>
        <pt x="473" y="653" on="0"/>
        <pt x="599" y="629" on="1"/>
        <pt x="603" y="616" on="1"/>
        <pt x="573" y="540" on="0"/>
        <pt x="554" y="435" on="1"/>
        <pt x="457" y="428" on="1"/>
        <pt x="466" y="471" on="0"/>
        <pt x="466" y="490" on="1"/>
        <pt x="466" y="559" on="0"/>
        <pt x="367" y="559" on="1"/>
        <pt x="282" y="559" on="0"/>
        <pt x="188" y="412" on="0"/>
        <pt x="188" y="275" on="1"/>
        <pt x="188" y="180" on="0"/>
        <pt x="255" y="80" on="0"/>
        <pt x="319" y="80" on="1"/>
        <pt x="344" y="80" on="0"/>
        <pt x="393" y="93" on="0"/>
        <pt x="416" y="106" on="1"/>
        <pt x="428" y="209" on="0"/>
        <pt x="428" y="233" on="0"/>
        <pt x="416" y="249" on="0"/>
        <pt x="391" y="249" on="1"/>
        <pt x="341" y="249" on="1"/>
        <pt x="337" y="257" on="1"/>
        <pt x="356" y="327" on="1"/>
        <pt x="360" y="327" on="1"/>
        <pt x="392" y="326" on="1"/>
      </contour>
      <contour>
        <pt x="209" y="-86" on="1"/>
        <pt x="253" y="-51" on="0"/>
        <pt x="318" y="-51" on="0"/>
        <pt x="357" y="-98" on="0"/>
        <pt x="357" y="-187" on="0"/>
        <pt x="274" y="-283" on="0"/>
        <pt x="210" y="-318" on="1"/>
        <pt x="173" y="-288" on="1"/>
        <pt x="173" y="-271" on="1"/>
        <pt x="203" y="-250" on="0"/>
        <pt x="241" y="-194" on="0"/>
        <pt x="241" y="-169" on="1"/>
        <pt x="241" y="-128" on="0"/>
        <pt x="206" y="-100" on="1"/>
      </contour>
    </TTGlyph>
    <TTGlyph name="Gdotaccent" xMin="32" yMin="-12" xMax="603" yMax="854">
      <contour>
        <pt x="415" y="326" on="1"/>
        <pt x="466" y="325" on="1"/>
        <pt x="491" y="325" on="1"/>
        <pt x="526" y="325" on="0"/>
        <pt x="586" y="329" on="0"/>
        <pt x="586" y="330" on="1"/>
        <pt x="588" y="292" on="1"/>
        <pt x="553" y="270" on="0"/>
        <pt x="544" y="210" on="1"/>
        <pt x="527" y="123" on="0"/>
        <pt x="527" y="74" on="1"/>
        <pt x="528" y="41" on="1"/>
        <pt x="518" y="29" on="1"/>
        <pt x="488" y="14" on="0"/>
        <pt x="356" y="-12" on="0"/>
        <pt x="294" y="-12" on="1"/>
        <pt x="172" y="-12" on="0"/>
        <pt x="32" y="131" on="0"/>
        <pt x="32" y="256" on="1"/>
        <pt x="32" y="437" on="0"/>
        <pt x="233" y="653" on="0"/>
        <pt x="402" y="653" on="1"/>
        <pt x="473" y="653" on="0"/>
        <pt x="599" y="629" on="1"/>
        <pt x="603" y="616" on="1"/>
        <pt x="573" y="540" on="0"/>
        <pt x="554" y="435" on="1"/>
        <pt x="457" y="428" on="1"/>
        <pt x="466" y="471" on="0"/>
        <pt x="466" y="490" on="1"/>
        <pt x="466" y="559" on="0"/>
        <pt x="367" y="559" on="1"/>
        <pt x="282" y="559" on="0"/>
        <pt x="188" y="412" on="0"/>
        <pt x="188" y="275" on="1"/>
        <pt x="188" y="180" on="0"/>
        <pt x="255" y="80" on="0"/>
        <pt x="319" y="80" on="1"/>
        <pt x="344" y="80" on="0"/>
        <pt x="393" y="93" on="0"/>
        <pt x="416" y="106" on="1"/>
        <pt x="428" y="209" on="0"/>
        <pt x="428" y="233" on="0"/>
        <pt x="416" y="249" on="0"/>
        <pt x="391" y="249" on="1"/>
        <pt x="341" y="249" on="1"/>
        <pt x="337" y="257" on="1"/>
        <pt x="356" y="327" on="1"/>
        <pt x="360" y="327" on="1"/>
        <pt x="392" y="326" on="1"/>
      </contour>
      <contour>
        <pt x="481" y="753" on="0"/>
        <pt x="431" y="702" on="0"/>
        <pt x="396" y="702" on="1"/>
        <pt x="330" y="702" on="0"/>
        <pt x="330" y="764" on="1"/>
        <pt x="330" y="803" on="0"/>
        <pt x="381" y="854" on="0"/>
        <pt x="449" y="854" on="0"/>
        <pt x="481" y="820" on="0"/>
      </contour>
    </TTGlyph>
    <TTGlyph name="H" xMin="6" yMin="-9" xMax="735" yMax="649">
      <contour>
        <pt x="663" y="67" on="1"/>
        <pt x="667" y="60" on="1"/>
        <pt x="651" y="-3" on="1"/>
        <pt x="584" y="0" on="0"/>
        <pt x="532" y="0" on="1"/>
        <pt x="492" y="0" on="1"/>
        <pt x="374" y="-2" on="1"/>
        <pt x="390" y="63" on="1"/>
        <pt x="430" y="64" on="0"/>
        <pt x="463" y="101" on="0"/>
        <pt x="470" y="155" on="1"/>
        <pt x="486" y="284" on="1"/>
        <pt x="418" y="285" on="0"/>
        <pt x="383" y="285" on="1"/>
        <pt x="247" y="275" on="1"/>
        <pt x="226" y="107" on="0"/>
        <pt x="226" y="95" on="0"/>
        <pt x="226" y="85" on="1"/>
        <pt x="228" y="64" on="0"/>
        <pt x="256" y="64" on="1"/>
        <pt x="291" y="67" on="1"/>
        <pt x="295" y="60" on="1"/>
        <pt x="279" y="-3" on="1"/>
        <pt x="197" y="0" on="0"/>
        <pt x="133" y="0" on="0"/>
        <pt x="96" y="-2" on="1"/>
        <pt x="6" y="-5" on="0"/>
        <pt x="6" y="-9" on="1"/>
        <pt x="21" y="55" on="1"/>
        <pt x="67" y="65" on="0"/>
        <pt x="97" y="102" on="0"/>
        <pt x="103" y="156" on="1"/>
        <pt x="150" y="540" on="0"/>
        <pt x="150" y="562" on="0"/>
        <pt x="141" y="578" on="0"/>
        <pt x="120" y="578" on="1"/>
        <pt x="91" y="577" on="1"/>
        <pt x="87" y="585" on="1"/>
        <pt x="101" y="643" on="1"/>
        <pt x="177" y="641" on="0"/>
        <pt x="217" y="641" on="1"/>
        <pt x="364" y="649" on="1"/>
        <pt x="351" y="583" on="1"/>
        <pt x="314" y="577" on="0"/>
        <pt x="291" y="552" on="0"/>
        <pt x="285" y="511" on="1"/>
        <pt x="261" y="367" on="1"/>
        <pt x="303" y="367" on="0"/>
        <pt x="443" y="365" on="0"/>
        <pt x="496" y="372" on="1"/>
        <pt x="518" y="538" on="0"/>
        <pt x="518" y="560" on="0"/>
        <pt x="508" y="578" on="0"/>
        <pt x="488" y="578" on="1"/>
        <pt x="458" y="577" on="1"/>
        <pt x="454" y="585" on="1"/>
        <pt x="469" y="643" on="1"/>
        <pt x="575" y="641" on="0"/>
        <pt x="605" y="641" on="1"/>
        <pt x="735" y="649" on="1"/>
        <pt x="723" y="584" on="1"/>
        <pt x="687" y="579" on="0"/>
        <pt x="661" y="558" on="0"/>
        <pt x="656" y="529" on="1"/>
        <pt x="637" y="421" on="0"/>
        <pt x="594" y="136" on="0"/>
        <pt x="594" y="83" on="0"/>
        <pt x="609" y="64" on="0"/>
        <pt x="627" y="64" on="1"/>
      </contour>
    </TTGlyph>
    <TTGlyph name="Hbar" xMin="6" yMin="-9" xMax="746" yMax="649">
      <contour>
        <pt x="663" y="67" on="1"/>
        <pt x="667" y="60" on="1"/>
        <pt x="651" y="-3" on="1"/>
        <pt x="584" y="0" on="0"/>
        <pt x="532" y="0" on="1"/>
        <pt x="492" y="0" on="1"/>
        <pt x="374" y="-2" on="1"/>
        <pt x="390" y="63" on="1"/>
        <pt x="430" y="64" on="0"/>
        <pt x="463" y="101" on="0"/>
        <pt x="470" y="155" on="1"/>
        <pt x="486" y="284" on="1"/>
        <pt x="418" y="285" on="0"/>
        <pt x="383" y="285" on="1"/>
        <pt x="247" y="275" on="1"/>
        <pt x="226" y="107" on="0"/>
        <pt x="226" y="95" on="0"/>
        <pt x="226" y="85" on="1"/>
        <pt x="228" y="64" on="0"/>
        <pt x="256" y="64" on="1"/>
        <pt x="291" y="67" on="1"/>
        <pt x="295" y="60" on="1"/>
        <pt x="279" y="-3" on="1"/>
        <pt x="197" y="0" on="0"/>
        <pt x="133" y="0" on="0"/>
        <pt x="96" y="-2" on="1"/>
        <pt x="6" y="-5" on="0"/>
        <pt x="6" y="-9" on="1"/>
        <pt x="21" y="55" on="1"/>
        <pt x="67" y="65" on="0"/>
        <pt x="97" y="102" on="0"/>
        <pt x="103" y="156" on="1"/>
        <pt x="138" y="442" on="1"/>
        <pt x="48" y="442" on="1"/>
        <pt x="38" y="452" on="1"/>
        <pt x="46" y="500" on="1"/>
        <pt x="89" y="499" on="0"/>
        <pt x="145" y="499" on="1"/>
        <pt x="150" y="541" on="0"/>
        <pt x="150" y="562" on="0"/>
        <pt x="141" y="578" on="0"/>
        <pt x="120" y="578" on="1"/>
        <pt x="91" y="577" on="1"/>
        <pt x="87" y="585" on="1"/>
        <pt x="101" y="643" on="1"/>
        <pt x="177" y="641" on="0"/>
        <pt x="217" y="641" on="1"/>
        <pt x="364" y="649" on="1"/>
        <pt x="351" y="583" on="1"/>
        <pt x="314" y="577" on="0"/>
        <pt x="302" y="564" on="1"/>
        <pt x="292" y="553" on="0"/>
        <pt x="283" y="499" on="1"/>
        <pt x="512" y="499" on="1"/>
        <pt x="518" y="537" on="0"/>
        <pt x="518" y="560" on="0"/>
        <pt x="508" y="578" on="0"/>
        <pt x="488" y="578" on="1"/>
        <pt x="458" y="577" on="1"/>
        <pt x="454" y="585" on="1"/>
        <pt x="469" y="643" on="1"/>
        <pt x="575" y="641" on="0"/>
        <pt x="605" y="641" on="1"/>
        <pt x="735" y="649" on="1"/>
        <pt x="723" y="584" on="1"/>
        <pt x="687" y="579" on="0"/>
        <pt x="661" y="558" on="0"/>
        <pt x="656" y="529" on="1"/>
        <pt x="651" y="502" on="1"/>
        <pt x="732" y="504" on="1"/>
        <pt x="746" y="490" on="1"/>
        <pt x="741" y="444" on="1"/>
        <pt x="641" y="444" on="1"/>
        <pt x="594" y="156" on="0"/>
        <pt x="594" y="83" on="0"/>
        <pt x="609" y="64" on="0"/>
        <pt x="627" y="64" on="1"/>
      </contour>
      <contour>
        <pt x="505" y="443" on="1"/>
        <pt x="273" y="443" on="1"/>
        <pt x="261" y="367" on="1"/>
        <pt x="303" y="367" on="0"/>
        <pt x="443" y="365" on="0"/>
        <pt x="496" y="372" on="1"/>
      </contour>
    </TTGlyph>
    <TTGlyph name="Hcircumflex" xMin="6" yMin="-9" xMax="735" yMax="930">
      <contour>
        <pt x="663" y="67" on="1"/>
        <pt x="667" y="60" on="1"/>
        <pt x="651" y="-3" on="1"/>
        <pt x="584" y="0" on="0"/>
        <pt x="532" y="0" on="1"/>
        <pt x="492" y="0" on="1"/>
        <pt x="374" y="-2" on="1"/>
        <pt x="390" y="63" on="1"/>
        <pt x="430" y="64" on="0"/>
        <pt x="463" y="101" on="0"/>
        <pt x="470" y="155" on="1"/>
        <pt x="486" y="284" on="1"/>
        <pt x="418" y="285" on="0"/>
        <pt x="383" y="285" on="1"/>
        <pt x="247" y="275" on="1"/>
        <pt x="226" y="107" on="0"/>
        <pt x="226" y="95" on="0"/>
        <pt x="226" y="85" on="1"/>
        <pt x="228" y="64" on="0"/>
        <pt x="256" y="64" on="1"/>
        <pt x="291" y="67" on="1"/>
        <pt x="295" y="60" on="1"/>
        <pt x="279" y="-3" on="1"/>
        <pt x="197" y="0" on="0"/>
        <pt x="133" y="0" on="0"/>
        <pt x="96" y="-2" on="1"/>
        <pt x="6" y="-5" on="0"/>
        <pt x="6" y="-9" on="1"/>
        <pt x="21" y="55" on="1"/>
        <pt x="67" y="65" on="0"/>
        <pt x="97" y="102" on="0"/>
        <pt x="103" y="156" on="1"/>
        <pt x="150" y="540" on="0"/>
        <pt x="150" y="562" on="0"/>
        <pt x="141" y="578" on="0"/>
        <pt x="120" y="578" on="1"/>
        <pt x="91" y="577" on="1"/>
        <pt x="87" y="585" on="1"/>
        <pt x="101" y="643" on="1"/>
        <pt x="177" y="641" on="0"/>
        <pt x="217" y="641" on="1"/>
        <pt x="364" y="649" on="1"/>
        <pt x="351" y="583" on="1"/>
        <pt x="314" y="577" on="0"/>
        <pt x="291" y="552" on="0"/>
        <pt x="285" y="511" on="1"/>
        <pt x="261" y="367" on="1"/>
        <pt x="303" y="367" on="0"/>
        <pt x="443" y="365" on="0"/>
        <pt x="496" y="372" on="1"/>
        <pt x="518" y="538" on="0"/>
        <pt x="518" y="560" on="0"/>
        <pt x="508" y="578" on="0"/>
        <pt x="488" y="578" on="1"/>
        <pt x="458" y="577" on="1"/>
        <pt x="454" y="585" on="1"/>
        <pt x="469" y="643" on="1"/>
        <pt x="575" y="641" on="0"/>
        <pt x="605" y="641" on="1"/>
        <pt x="735" y="649" on="1"/>
        <pt x="723" y="584" on="1"/>
        <pt x="687" y="579" on="0"/>
        <pt x="661" y="558" on="0"/>
        <pt x="656" y="529" on="1"/>
        <pt x="637" y="421" on="0"/>
        <pt x="594" y="136" on="0"/>
        <pt x="594" y="83" on="0"/>
        <pt x="609" y="64" on="0"/>
        <pt x="627" y="64" on="1"/>
      </contour>
      <contour>
        <pt x="534" y="731" on="1"/>
        <pt x="448" y="803" on="0"/>
        <pt x="431" y="814" on="1"/>
        <pt x="428" y="812" on="0"/>
        <pt x="309" y="731" on="1"/>
        <pt x="293" y="735" on="1"/>
        <pt x="269" y="776" on="1"/>
        <pt x="305" y="806" on="0"/>
        <pt x="435" y="930" on="1"/>
        <pt x="455" y="930" on="1"/>
        <pt x="552" y="809" on="0"/>
        <pt x="584" y="776" on="1"/>
        <pt x="550" y="735" on="1"/>
      </contour>
    </TTGlyph>
    <TTGlyph name="I" xMin="5" yMin="-9" xMax="371" yMax="649">
      <contour>
        <pt x="97" y="643" on="1"/>
        <pt x="232" y="641" on="1"/>
        <pt x="371" y="649" on="1"/>
        <pt x="357" y="583" on="1"/>
        <pt x="320" y="578" on="0"/>
        <pt x="293" y="557" on="0"/>
        <pt x="288" y="529" on="1"/>
        <pt x="225" y="164" on="0"/>
        <pt x="225" y="104" on="1"/>
        <pt x="225" y="81" on="0"/>
        <pt x="239" y="64" on="0"/>
        <pt x="256" y="64" on="1"/>
        <pt x="298" y="67" on="1"/>
        <pt x="301" y="60" on="1"/>
        <pt x="285" y="-3" on="1"/>
        <pt x="185" y="0" on="0"/>
        <pt x="152" y="0" on="1"/>
        <pt x="84" y="0" on="0"/>
        <pt x="5" y="-9" on="1"/>
        <pt x="20" y="55" on="1"/>
        <pt x="63" y="64" on="0"/>
        <pt x="96" y="98" on="0"/>
        <pt x="101" y="139" on="1"/>
        <pt x="150" y="540" on="0"/>
        <pt x="150" y="561" on="0"/>
        <pt x="141" y="578" on="0"/>
        <pt x="120" y="578" on="1"/>
        <pt x="87" y="577" on="1"/>
        <pt x="83" y="585" on="1"/>
      </contour>
    </TTGlyph>
    <TTGlyph name="IJ" xMin="5" yMin="-153" xMax="703" yMax="650">
      <contour>
        <pt x="97" y="643" on="1"/>
        <pt x="232" y="641" on="1"/>
        <pt x="371" y="649" on="1"/>
        <pt x="357" y="583" on="1"/>
        <pt x="320" y="578" on="0"/>
        <pt x="293" y="557" on="0"/>
        <pt x="288" y="529" on="1"/>
        <pt x="225" y="164" on="0"/>
        <pt x="225" y="104" on="1"/>
        <pt x="225" y="81" on="0"/>
        <pt x="239" y="64" on="0"/>
        <pt x="256" y="64" on="1"/>
        <pt x="298" y="67" on="1"/>
        <pt x="301" y="60" on="1"/>
        <pt x="285" y="-3" on="1"/>
        <pt x="185" y="0" on="0"/>
        <pt x="152" y="0" on="1"/>
        <pt x="84" y="0" on="0"/>
        <pt x="5" y="-9" on="1"/>
        <pt x="20" y="55" on="1"/>
        <pt x="63" y="64" on="0"/>
        <pt x="96" y="98" on="0"/>
        <pt x="101" y="139" on="1"/>
        <pt x="150" y="540" on="0"/>
        <pt x="150" y="561" on="0"/>
        <pt x="141" y="578" on="0"/>
        <pt x="120" y="578" on="1"/>
        <pt x="87" y="577" on="1"/>
        <pt x="83" y="585" on="1"/>
      </contour>
      <contour>
        <pt x="442" y="123" on="1"/>
        <pt x="494" y="540" on="0"/>
        <pt x="494" y="562" on="0"/>
        <pt x="486" y="578" on="0"/>
        <pt x="466" y="578" on="1"/>
        <pt x="424" y="575" on="1"/>
        <pt x="421" y="583" on="1"/>
        <pt x="435" y="641" on="1"/>
        <pt x="555" y="642" on="1"/>
        <pt x="615" y="642" on="0"/>
        <pt x="703" y="650" on="1"/>
        <pt x="689" y="583" on="1"/>
        <pt x="657" y="577" on="0"/>
        <pt x="637" y="558" on="0"/>
        <pt x="632" y="529" on="1"/>
        <pt x="593" y="306" on="0"/>
        <pt x="568" y="102" on="1"/>
        <pt x="555" y="2" on="0"/>
        <pt x="443" y="-119" on="0"/>
        <pt x="334" y="-153" on="1"/>
        <pt x="311" y="-113" on="1"/>
        <pt x="315" y="-102" on="1"/>
        <pt x="379" y="-61" on="0"/>
        <pt x="430" y="30" on="0"/>
      </contour>
    </TTGlyph>
    <TTGlyph name="Iacute" xMin="5" yMin="-9" xMax="394" yMax="857">
      <contour>
        <pt x="97" y="643" on="1"/>
        <pt x="232" y="641" on="1"/>
        <pt x="371" y="649" on="1"/>
        <pt x="357" y="583" on="1"/>
        <pt x="320" y="578" on="0"/>
        <pt x="293" y="557" on="0"/>
        <pt x="288" y="529" on="1"/>
        <pt x="225" y="164" on="0"/>
        <pt x="225" y="104" on="1"/>
        <pt x="225" y="81" on="0"/>
        <pt x="239" y="64" on="0"/>
        <pt x="256" y="64" on="1"/>
        <pt x="298" y="67" on="1"/>
        <pt x="301" y="60" on="1"/>
        <pt x="285" y="-3" on="1"/>
        <pt x="185" y="0" on="0"/>
        <pt x="152" y="0" on="1"/>
        <pt x="84" y="0" on="0"/>
        <pt x="5" y="-9" on="1"/>
        <pt x="20" y="55" on="1"/>
        <pt x="63" y="64" on="0"/>
        <pt x="96" y="98" on="0"/>
        <pt x="101" y="139" on="1"/>
        <pt x="150" y="540" on="0"/>
        <pt x="150" y="561" on="0"/>
        <pt x="141" y="578" on="0"/>
        <pt x="120" y="578" on="1"/>
        <pt x="87" y="577" on="1"/>
        <pt x="83" y="585" on="1"/>
      </contour>
      <contour>
        <pt x="394" y="775" on="1"/>
        <pt x="389" y="762" on="1"/>
        <pt x="274" y="733" on="0"/>
        <pt x="160" y="697" on="1"/>
        <pt x="147" y="706" on="1"/>
        <pt x="133" y="753" on="1"/>
        <pt x="356" y="857" on="1"/>
        <pt x="369" y="852" on="1"/>
      </contour>
    </TTGlyph>
    <TTGlyph name="Ibreve" xMin="5" yMin="-9" xMax="393" yMax="862">
      <contour>
        <pt x="97" y="643" on="1"/>
        <pt x="232" y="641" on="1"/>
        <pt x="371" y="649" on="1"/>
        <pt x="357" y="583" on="1"/>
        <pt x="320" y="578" on="0"/>
        <pt x="293" y="557" on="0"/>
        <pt x="288" y="529" on="1"/>
        <pt x="225" y="164" on="0"/>
        <pt x="225" y="104" on="1"/>
        <pt x="225" y="81" on="0"/>
        <pt x="239" y="64" on="0"/>
        <pt x="256" y="64" on="1"/>
        <pt x="298" y="67" on="1"/>
        <pt x="301" y="60" on="1"/>
        <pt x="285" y="-3" on="1"/>
        <pt x="185" y="0" on="0"/>
        <pt x="152" y="0" on="1"/>
        <pt x="84" y="0" on="0"/>
        <pt x="5" y="-9" on="1"/>
        <pt x="20" y="55" on="1"/>
        <pt x="63" y="64" on="0"/>
        <pt x="96" y="98" on="0"/>
        <pt x="101" y="139" on="1"/>
        <pt x="150" y="540" on="0"/>
        <pt x="150" y="561" on="0"/>
        <pt x="141" y="578" on="0"/>
        <pt x="120" y="578" on="1"/>
        <pt x="87" y="577" on="1"/>
        <pt x="83" y="585" on="1"/>
      </contour>
      <contour>
        <pt x="153" y="862" on="1"/>
        <pt x="172" y="803" on="0"/>
        <pt x="320" y="803" on="0"/>
        <pt x="354" y="862" on="1"/>
        <pt x="370" y="859" on="1"/>
        <pt x="393" y="824" on="1"/>
        <pt x="373" y="775" on="0"/>
        <pt x="292" y="708" on="0"/>
        <pt x="176" y="708" on="0"/>
        <pt x="111" y="775" on="0"/>
        <pt x="103" y="824" on="1"/>
        <pt x="136" y="859" on="1"/>
      </contour>
    </TTGlyph>
    <TTGlyph name="Icircumflex" xMin="5" yMin="-9" xMax="405" yMax="876">
      <contour>
        <pt x="97" y="643" on="1"/>
        <pt x="232" y="641" on="1"/>
        <pt x="371" y="649" on="1"/>
        <pt x="357" y="583" on="1"/>
        <pt x="320" y="578" on="0"/>
        <pt x="293" y="557" on="0"/>
        <pt x="288" y="529" on="1"/>
        <pt x="225" y="164" on="0"/>
        <pt x="225" y="104" on="1"/>
        <pt x="225" y="81" on="0"/>
        <pt x="239" y="64" on="0"/>
        <pt x="256" y="64" on="1"/>
        <pt x="298" y="67" on="1"/>
        <pt x="301" y="60" on="1"/>
        <pt x="285" y="-3" on="1"/>
        <pt x="185" y="0" on="0"/>
        <pt x="152" y="0" on="1"/>
        <pt x="84" y="0" on="0"/>
        <pt x="5" y="-9" on="1"/>
        <pt x="20" y="55" on="1"/>
        <pt x="63" y="64" on="0"/>
        <pt x="96" y="98" on="0"/>
        <pt x="101" y="139" on="1"/>
        <pt x="150" y="540" on="0"/>
        <pt x="150" y="561" on="0"/>
        <pt x="141" y="578" on="0"/>
        <pt x="120" y="578" on="1"/>
        <pt x="87" y="577" on="1"/>
        <pt x="83" y="585" on="1"/>
      </contour>
      <contour>
        <pt x="244" y="765" on="1"/>
        <pt x="114" y="707" on="1"/>
        <pt x="99" y="711" on="1"/>
        <pt x="80" y="752" on="1"/>
        <pt x="248" y="876" on="1"/>
        <pt x="268" y="876" on="1"/>
        <pt x="268" y="877" on="0"/>
        <pt x="294" y="853" on="1"/>
        <pt x="383" y="771" on="0"/>
        <pt x="405" y="752" on="1"/>
        <pt x="376" y="711" on="1"/>
        <pt x="359" y="707" on="1"/>
      </contour>
    </TTGlyph>
    <TTGlyph name="Idieresis" xMin="5" yMin="-9" xMax="395" yMax="839">
      <contour>
        <pt x="97" y="643" on="1"/>
        <pt x="232" y="641" on="1"/>
        <pt x="371" y="649" on="1"/>
        <pt x="357" y="583" on="1"/>
        <pt x="320" y="578" on="0"/>
        <pt x="293" y="557" on="0"/>
        <pt x="288" y="529" on="1"/>
        <pt x="225" y="164" on="0"/>
        <pt x="225" y="104" on="1"/>
        <pt x="225" y="81" on="0"/>
        <pt x="239" y="64" on="0"/>
        <pt x="256" y="64" on="1"/>
        <pt x="298" y="67" on="1"/>
        <pt x="301" y="60" on="1"/>
        <pt x="285" y="-3" on="1"/>
        <pt x="185" y="0" on="0"/>
        <pt x="152" y="0" on="1"/>
        <pt x="84" y="0" on="0"/>
        <pt x="5" y="-9" on="1"/>
        <pt x="20" y="55" on="1"/>
        <pt x="63" y="64" on="0"/>
        <pt x="96" y="98" on="0"/>
        <pt x="101" y="139" on="1"/>
        <pt x="150" y="540" on="0"/>
        <pt x="150" y="561" on="0"/>
        <pt x="141" y="578" on="0"/>
        <pt x="120" y="578" on="1"/>
        <pt x="87" y="577" on="1"/>
        <pt x="83" y="585" on="1"/>
      </contour>
      <contour>
        <pt x="395" y="754" on="0"/>
        <pt x="353" y="711" on="0"/>
        <pt x="324" y="711" on="1"/>
        <pt x="268" y="711" on="0"/>
        <pt x="268" y="763" on="1"/>
        <pt x="268" y="796" on="0"/>
        <pt x="311" y="839" on="0"/>
        <pt x="368" y="839" on="0"/>
        <pt x="395" y="811" on="0"/>
      </contour>
      <contour>
        <pt x="147" y="711" on="1"/>
        <pt x="95" y="711" on="0"/>
        <pt x="95" y="763" on="1"/>
        <pt x="95" y="796" on="0"/>
        <pt x="137" y="839" on="0"/>
        <pt x="166" y="839" on="1"/>
        <pt x="222" y="839" on="0"/>
        <pt x="222" y="787" on="1"/>
        <pt x="222" y="754" on="0"/>
        <pt x="180" y="711" on="0"/>
      </contour>
    </TTGlyph>
    <TTGlyph name="Idotaccent" xMin="5" yMin="-9" xMax="371" yMax="854">
      <contour>
        <pt x="97" y="643" on="1"/>
        <pt x="232" y="641" on="1"/>
        <pt x="371" y="649" on="1"/>
        <pt x="357" y="583" on="1"/>
        <pt x="320" y="578" on="0"/>
        <pt x="293" y="557" on="0"/>
        <pt x="288" y="529" on="1"/>
        <pt x="225" y="164" on="0"/>
        <pt x="225" y="104" on="1"/>
        <pt x="225" y="81" on="0"/>
        <pt x="239" y="64" on="0"/>
        <pt x="256" y="64" on="1"/>
        <pt x="298" y="67" on="1"/>
        <pt x="301" y="60" on="1"/>
        <pt x="285" y="-3" on="1"/>
        <pt x="185" y="0" on="0"/>
        <pt x="152" y="0" on="1"/>
        <pt x="84" y="0" on="0"/>
        <pt x="5" y="-9" on="1"/>
        <pt x="20" y="55" on="1"/>
        <pt x="63" y="64" on="0"/>
        <pt x="96" y="98" on="0"/>
        <pt x="101" y="139" on="1"/>
        <pt x="150" y="540" on="0"/>
        <pt x="150" y="561" on="0"/>
        <pt x="141" y="578" on="0"/>
        <pt x="120" y="578" on="1"/>
        <pt x="87" y="577" on="1"/>
        <pt x="83" y="585" on="1"/>
      </contour>
      <contour>
        <pt x="322" y="753" on="0"/>
        <pt x="272" y="702" on="0"/>
        <pt x="238" y="702" on="1"/>
        <pt x="171" y="702" on="0"/>
        <pt x="171" y="764" on="1"/>
        <pt x="171" y="803" on="0"/>
        <pt x="222" y="854" on="0"/>
        <pt x="290" y="854" on="0"/>
        <pt x="322" y="820" on="0"/>
      </contour>
    </TTGlyph>
    <TTGlyph name="Igrave" xMin="5" yMin="-9" xMax="371" yMax="857">
      <contour>
        <pt x="97" y="643" on="1"/>
        <pt x="232" y="641" on="1"/>
        <pt x="371" y="649" on="1"/>
        <pt x="357" y="583" on="1"/>
        <pt x="320" y="578" on="0"/>
        <pt x="293" y="557" on="0"/>
        <pt x="288" y="529" on="1"/>
        <pt x="225" y="164" on="0"/>
        <pt x="225" y="104" on="1"/>
        <pt x="225" y="81" on="0"/>
        <pt x="239" y="64" on="0"/>
        <pt x="256" y="64" on="1"/>
        <pt x="298" y="67" on="1"/>
        <pt x="301" y="60" on="1"/>
        <pt x="285" y="-3" on="1"/>
        <pt x="185" y="0" on="0"/>
        <pt x="152" y="0" on="1"/>
        <pt x="84" y="0" on="0"/>
        <pt x="5" y="-9" on="1"/>
        <pt x="20" y="55" on="1"/>
        <pt x="63" y="64" on="0"/>
        <pt x="96" y="98" on="0"/>
        <pt x="101" y="139" on="1"/>
        <pt x="150" y="540" on="0"/>
        <pt x="150" y="561" on="0"/>
        <pt x="141" y="578" on="0"/>
        <pt x="120" y="578" on="1"/>
        <pt x="87" y="577" on="1"/>
        <pt x="83" y="585" on="1"/>
      </contour>
      <contour>
        <pt x="93" y="762" on="1"/>
        <pt x="88" y="775" on="1"/>
        <pt x="113" y="852" on="1"/>
        <pt x="126" y="857" on="1"/>
        <pt x="241" y="800" on="0"/>
        <pt x="349" y="753" on="1"/>
        <pt x="336" y="706" on="1"/>
        <pt x="322" y="697" on="1"/>
        <pt x="200" y="735" on="0"/>
      </contour>
    </TTGlyph>
    <TTGlyph name="Imacron" xMin="5" yMin="-9" xMax="396" yMax="805">
      <contour>
        <pt x="97" y="643" on="1"/>
        <pt x="232" y="641" on="1"/>
        <pt x="371" y="649" on="1"/>
        <pt x="357" y="583" on="1"/>
        <pt x="320" y="578" on="0"/>
        <pt x="293" y="557" on="0"/>
        <pt x="288" y="529" on="1"/>
        <pt x="225" y="164" on="0"/>
        <pt x="225" y="104" on="1"/>
        <pt x="225" y="81" on="0"/>
        <pt x="239" y="64" on="0"/>
        <pt x="256" y="64" on="1"/>
        <pt x="298" y="67" on="1"/>
        <pt x="301" y="60" on="1"/>
        <pt x="285" y="-3" on="1"/>
        <pt x="185" y="0" on="0"/>
        <pt x="152" y="0" on="1"/>
        <pt x="84" y="0" on="0"/>
        <pt x="5" y="-9" on="1"/>
        <pt x="20" y="55" on="1"/>
        <pt x="63" y="64" on="0"/>
        <pt x="96" y="98" on="0"/>
        <pt x="101" y="139" on="1"/>
        <pt x="150" y="540" on="0"/>
        <pt x="150" y="561" on="0"/>
        <pt x="141" y="578" on="0"/>
        <pt x="120" y="578" on="1"/>
        <pt x="87" y="577" on="1"/>
        <pt x="83" y="585" on="1"/>
      </contour>
      <contour>
        <pt x="389" y="805" on="1"/>
        <pt x="396" y="791" on="1"/>
        <pt x="374" y="714" on="1"/>
        <pt x="104" y="712" on="1"/>
        <pt x="95" y="724" on="1"/>
        <pt x="118" y="800" on="1"/>
        <pt x="210" y="799" on="0"/>
        <pt x="266" y="799" on="1"/>
      </contour>
    </TTGlyph>
    <TTGlyph name="Iogonek" xMin="5" yMin="-242" xMax="371" yMax="649">
      <contour>
        <pt x="97" y="643" on="1"/>
        <pt x="232" y="641" on="1"/>
        <pt x="371" y="649" on="1"/>
        <pt x="357" y="583" on="1"/>
        <pt x="320" y="578" on="0"/>
        <pt x="293" y="557" on="0"/>
        <pt x="288" y="529" on="1"/>
        <pt x="225" y="164" on="0"/>
        <pt x="225" y="104" on="1"/>
        <pt x="225" y="81" on="0"/>
        <pt x="239" y="64" on="0"/>
        <pt x="256" y="64" on="1"/>
        <pt x="298" y="67" on="1"/>
        <pt x="301" y="60" on="1"/>
        <pt x="285" y="-3" on="1"/>
        <pt x="265" y="-2" on="0"/>
        <pt x="241" y="-1" on="1"/>
        <pt x="193" y="-53" on="0"/>
        <pt x="161" y="-104" on="0"/>
        <pt x="161" y="-147" on="0"/>
        <pt x="183" y="-170" on="0"/>
        <pt x="200" y="-170" on="1"/>
        <pt x="232" y="-170" on="0"/>
        <pt x="274" y="-146" on="1"/>
        <pt x="289" y="-175" on="1"/>
        <pt x="232" y="-225" on="0"/>
        <pt x="182" y="-242" on="1"/>
        <pt x="133" y="-242" on="0"/>
        <pt x="76" y="-199" on="0"/>
        <pt x="76" y="-127" on="0"/>
        <pt x="126" y="-55" on="0"/>
        <pt x="183" y="0" on="1"/>
        <pt x="142" y="0" on="1"/>
        <pt x="84" y="0" on="0"/>
        <pt x="5" y="-9" on="1"/>
        <pt x="20" y="55" on="1"/>
        <pt x="63" y="64" on="0"/>
        <pt x="96" y="98" on="0"/>
        <pt x="101" y="139" on="1"/>
        <pt x="150" y="540" on="0"/>
        <pt x="150" y="561" on="0"/>
        <pt x="141" y="578" on="0"/>
        <pt x="120" y="578" on="1"/>
        <pt x="87" y="577" on="1"/>
        <pt x="83" y="585" on="1"/>
      </contour>
    </TTGlyph>
    <TTGlyph name="Itilde" xMin="5" yMin="-9" xMax="427" yMax="889">
      <contour>
        <pt x="97" y="643" on="1"/>
        <pt x="232" y="641" on="1"/>
        <pt x="371" y="649" on="1"/>
        <pt x="357" y="583" on="1"/>
        <pt x="320" y="578" on="0"/>
        <pt x="293" y="557" on="0"/>
        <pt x="288" y="529" on="1"/>
        <pt x="225" y="164" on="0"/>
        <pt x="225" y="104" on="1"/>
        <pt x="225" y="81" on="0"/>
        <pt x="239" y="64" on="0"/>
        <pt x="256" y="64" on="1"/>
        <pt x="298" y="67" on="1"/>
        <pt x="301" y="60" on="1"/>
        <pt x="285" y="-3" on="1"/>
        <pt x="185" y="0" on="0"/>
        <pt x="152" y="0" on="1"/>
        <pt x="84" y="0" on="0"/>
        <pt x="5" y="-9" on="1"/>
        <pt x="20" y="55" on="1"/>
        <pt x="63" y="64" on="0"/>
        <pt x="96" y="98" on="0"/>
        <pt x="101" y="139" on="1"/>
        <pt x="150" y="540" on="0"/>
        <pt x="150" y="561" on="0"/>
        <pt x="141" y="578" on="0"/>
        <pt x="120" y="578" on="1"/>
        <pt x="87" y="577" on="1"/>
        <pt x="83" y="585" on="1"/>
      </contour>
      <contour>
        <pt x="186" y="866" on="0"/>
        <pt x="298" y="833" on="0"/>
        <pt x="310" y="833" on="1"/>
        <pt x="330" y="833" on="0"/>
        <pt x="368" y="875" on="1"/>
        <pt x="380" y="889" on="1"/>
        <pt x="391" y="889" on="1"/>
        <pt x="427" y="852" on="1"/>
        <pt x="425" y="842" on="1"/>
        <pt x="337" y="740" on="1"/>
        <pt x="321" y="736" on="1"/>
        <pt x="304" y="736" on="0"/>
        <pt x="193" y="770" on="0"/>
        <pt x="169" y="770" on="0"/>
        <pt x="134" y="742" on="0"/>
        <pt x="110" y="714" on="1"/>
        <pt x="99" y="714" on="1"/>
        <pt x="64" y="750" on="1"/>
        <pt x="65" y="761" on="1"/>
        <pt x="153" y="862" on="1"/>
        <pt x="169" y="866" on="1"/>
      </contour>
    </TTGlyph>
    <TTGlyph name="J" xMin="-42" yMin="-153" xMax="350" yMax="650">
      <contour>
        <pt x="89" y="123" on="1"/>
        <pt x="141" y="540" on="0"/>
        <pt x="141" y="561" on="0"/>
        <pt x="132" y="578" on="0"/>
        <pt x="113" y="578" on="1"/>
        <pt x="71" y="575" on="1"/>
        <pt x="68" y="583" on="1"/>
        <pt x="82" y="641" on="1"/>
        <pt x="202" y="642" on="1"/>
        <pt x="262" y="642" on="0"/>
        <pt x="350" y="650" on="1"/>
        <pt x="336" y="583" on="1"/>
        <pt x="304" y="577" on="0"/>
        <pt x="284" y="558" on="0"/>
        <pt x="279" y="529" on="1"/>
        <pt x="240" y="306" on="0"/>
        <pt x="215" y="102" on="1"/>
        <pt x="202" y="2" on="0"/>
        <pt x="90" y="-119" on="0"/>
        <pt x="-19" y="-153" on="1"/>
        <pt x="-42" y="-113" on="1"/>
        <pt x="-38" y="-102" on="1"/>
        <pt x="26" y="-61" on="0"/>
        <pt x="77" y="30" on="0"/>
      </contour>
    </TTGlyph>
    <TTGlyph name="Jcircumflex" xMin="-42" yMin="-153" xMax="394" yMax="904">
      <contour>
        <pt x="89" y="123" on="1"/>
        <pt x="141" y="540" on="0"/>
        <pt x="141" y="561" on="0"/>
        <pt x="132" y="578" on="0"/>
        <pt x="113" y="578" on="1"/>
        <pt x="71" y="575" on="1"/>
        <pt x="68" y="583" on="1"/>
        <pt x="82" y="641" on="1"/>
        <pt x="202" y="642" on="1"/>
        <pt x="262" y="642" on="0"/>
        <pt x="350" y="650" on="1"/>
        <pt x="336" y="583" on="1"/>
        <pt x="304" y="577" on="0"/>
        <pt x="284" y="558" on="0"/>
        <pt x="279" y="529" on="1"/>
        <pt x="240" y="306" on="0"/>
        <pt x="215" y="102" on="1"/>
        <pt x="202" y="2" on="0"/>
        <pt x="90" y="-119" on="0"/>
        <pt x="-19" y="-153" on="1"/>
        <pt x="-42" y="-113" on="1"/>
        <pt x="-38" y="-102" on="1"/>
        <pt x="26" y="-61" on="0"/>
        <pt x="77" y="30" on="0"/>
      </contour>
      <contour>
        <pt x="344" y="705" on="1"/>
        <pt x="258" y="777" on="0"/>
        <pt x="241" y="788" on="1"/>
        <pt x="238" y="786" on="0"/>
        <pt x="119" y="705" on="1"/>
        <pt x="103" y="709" on="1"/>
        <pt x="79" y="750" on="1"/>
        <pt x="115" y="780" on="0"/>
        <pt x="245" y="904" on="1"/>
        <pt x="265" y="904" on="1"/>
        <pt x="362" y="783" on="0"/>
        <pt x="394" y="750" on="1"/>
        <pt x="360" y="709" on="1"/>
      </contour>
    </TTGlyph>
    <TTGlyph name="K" xMin="6" yMin="-15" xMax="672" yMax="649">
      <contour>
        <pt x="101" y="139" on="1"/>
        <pt x="150" y="540" on="0"/>
        <pt x="150" y="562" on="0"/>
        <pt x="141" y="578" on="0"/>
        <pt x="120" y="578" on="1"/>
        <pt x="91" y="577" on="1"/>
        <pt x="87" y="585" on="1"/>
        <pt x="102" y="644" on="1"/>
        <pt x="205" y="641" on="0"/>
        <pt x="232" y="641" on="1"/>
        <pt x="367" y="649" on="1"/>
        <pt x="354" y="583" on="1"/>
        <pt x="317" y="576" on="0"/>
        <pt x="289" y="552" on="0"/>
        <pt x="285" y="525" on="1"/>
        <pt x="227" y="132" on="1"/>
        <pt x="225" y="113" on="0"/>
        <pt x="225" y="85" on="0"/>
        <pt x="228" y="78" on="1"/>
        <pt x="233" y="64" on="0"/>
        <pt x="256" y="64" on="1"/>
        <pt x="294" y="67" on="1"/>
        <pt x="298" y="60" on="1"/>
        <pt x="281" y="-3" on="1"/>
        <pt x="184" y="0" on="0"/>
        <pt x="142" y="0" on="1"/>
        <pt x="6" y="-3" on="1"/>
        <pt x="23" y="60" on="1"/>
        <pt x="66" y="67" on="0"/>
        <pt x="96" y="97" on="0"/>
      </contour>
      <contour>
        <pt x="431" y="495" on="1"/>
        <pt x="466" y="530" on="0"/>
        <pt x="466" y="576" on="0"/>
        <pt x="420" y="579" on="1"/>
        <pt x="417" y="586" on="1"/>
        <pt x="432" y="647" on="1"/>
        <pt x="513" y="641" on="0"/>
        <pt x="553" y="641" on="1"/>
        <pt x="667" y="646" on="1"/>
        <pt x="672" y="635" on="1"/>
        <pt x="658" y="579" on="1"/>
        <pt x="624" y="566" on="0"/>
        <pt x="570" y="523" on="0"/>
        <pt x="526" y="476" on="1"/>
        <pt x="404" y="347" on="1"/>
        <pt x="506" y="145" on="1"/>
        <pt x="529" y="99" on="0"/>
        <pt x="573" y="59" on="0"/>
        <pt x="604" y="57" on="1"/>
        <pt x="610" y="49" on="1"/>
        <pt x="596" y="-3" on="1"/>
        <pt x="498" y="-15" on="0"/>
        <pt x="481" y="-15" on="1"/>
        <pt x="424" y="-15" on="0"/>
        <pt x="384" y="69" on="1"/>
        <pt x="269" y="316" on="1"/>
        <pt x="274" y="337" on="1"/>
      </contour>
    </TTGlyph>
    <TTGlyph name="Kcommaaccent" xMin="6" yMin="-318" xMax="672" yMax="649">
      <contour>
        <pt x="101" y="139" on="1"/>
        <pt x="150" y="540" on="0"/>
        <pt x="150" y="562" on="0"/>
        <pt x="141" y="578" on="0"/>
        <pt x="120" y="578" on="1"/>
        <pt x="91" y="577" on="1"/>
        <pt x="87" y="585" on="1"/>
        <pt x="102" y="644" on="1"/>
        <pt x="205" y="641" on="0"/>
        <pt x="232" y="641" on="1"/>
        <pt x="367" y="649" on="1"/>
        <pt x="354" y="583" on="1"/>
        <pt x="317" y="576" on="0"/>
        <pt x="289" y="552" on="0"/>
        <pt x="285" y="525" on="1"/>
        <pt x="227" y="132" on="1"/>
        <pt x="225" y="113" on="0"/>
        <pt x="225" y="85" on="0"/>
        <pt x="228" y="78" on="1"/>
        <pt x="233" y="64" on="0"/>
        <pt x="256" y="64" on="1"/>
        <pt x="294" y="67" on="1"/>
        <pt x="298" y="60" on="1"/>
        <pt x="281" y="-3" on="1"/>
        <pt x="184" y="0" on="0"/>
        <pt x="142" y="0" on="1"/>
        <pt x="6" y="-3" on="1"/>
        <pt x="23" y="60" on="1"/>
        <pt x="66" y="67" on="0"/>
        <pt x="96" y="97" on="0"/>
      </contour>
      <contour>
        <pt x="431" y="495" on="1"/>
        <pt x="466" y="530" on="0"/>
        <pt x="466" y="576" on="0"/>
        <pt x="420" y="579" on="1"/>
        <pt x="417" y="586" on="1"/>
        <pt x="432" y="647" on="1"/>
        <pt x="513" y="641" on="0"/>
        <pt x="553" y="641" on="1"/>
        <pt x="667" y="646" on="1"/>
        <pt x="672" y="635" on="1"/>
        <pt x="658" y="579" on="1"/>
        <pt x="624" y="566" on="0"/>
        <pt x="570" y="523" on="0"/>
        <pt x="526" y="476" on="1"/>
        <pt x="404" y="347" on="1"/>
        <pt x="506" y="145" on="1"/>
        <pt x="529" y="99" on="0"/>
        <pt x="573" y="59" on="0"/>
        <pt x="604" y="57" on="1"/>
        <pt x="610" y="49" on="1"/>
        <pt x="596" y="-3" on="1"/>
        <pt x="498" y="-15" on="0"/>
        <pt x="481" y="-15" on="1"/>
        <pt x="424" y="-15" on="0"/>
        <pt x="384" y="69" on="1"/>
        <pt x="269" y="316" on="1"/>
        <pt x="274" y="337" on="1"/>
      </contour>
      <contour>
        <pt x="221" y="-86" on="1"/>
        <pt x="265" y="-51" on="0"/>
        <pt x="330" y="-51" on="0"/>
        <pt x="369" y="-98" on="0"/>
        <pt x="369" y="-187" on="0"/>
        <pt x="286" y="-283" on="0"/>
        <pt x="222" y="-318" on="1"/>
        <pt x="185" y="-288" on="1"/>
        <pt x="185" y="-271" on="1"/>
        <pt x="215" y="-250" on="0"/>
        <pt x="253" y="-194" on="0"/>
        <pt x="253" y="-169" on="1"/>
        <pt x="253" y="-128" on="0"/>
        <pt x="218" y="-100" on="1"/>
      </contour>
    </TTGlyph>
    <TTGlyph name="L" xMin="10" yMin="-10" xMax="512" yMax="649">
      <contour>
        <pt x="101" y="643" on="1"/>
        <pt x="232" y="641" on="1"/>
        <pt x="383" y="649" on="1"/>
        <pt x="368" y="580" on="1"/>
        <pt x="321" y="574" on="0"/>
        <pt x="292" y="549" on="0"/>
        <pt x="269" y="425" on="0"/>
        <pt x="227" y="144" on="0"/>
        <pt x="227" y="94" on="0"/>
        <pt x="249" y="77" on="0"/>
        <pt x="280" y="77" on="1"/>
        <pt x="348" y="77" on="0"/>
        <pt x="400" y="132" on="0"/>
        <pt x="422" y="228" on="1"/>
        <pt x="506" y="236" on="1"/>
        <pt x="512" y="227" on="1"/>
        <pt x="483" y="119" on="0"/>
        <pt x="458" y="2" on="1"/>
        <pt x="447" y="-8" on="1"/>
        <pt x="292" y="0" on="0"/>
        <pt x="216" y="0" on="1"/>
        <pt x="102" y="0" on="0"/>
        <pt x="10" y="-10" on="1"/>
        <pt x="26" y="57" on="1"/>
        <pt x="64" y="63" on="0"/>
        <pt x="95" y="99" on="0"/>
        <pt x="100" y="142" on="1"/>
        <pt x="150" y="539" on="0"/>
        <pt x="150" y="561" on="0"/>
        <pt x="140" y="578" on="0"/>
        <pt x="119" y="578" on="1"/>
        <pt x="90" y="577" on="1"/>
        <pt x="86" y="585" on="1"/>
      </contour>
    </TTGlyph>
    <TTGlyph name="Lacute" xMin="10" yMin="-10" xMax="512" yMax="857">
      <contour>
        <pt x="101" y="643" on="1"/>
        <pt x="232" y="641" on="1"/>
        <pt x="383" y="649" on="1"/>
        <pt x="368" y="580" on="1"/>
        <pt x="321" y="574" on="0"/>
        <pt x="292" y="549" on="0"/>
        <pt x="269" y="425" on="0"/>
        <pt x="227" y="144" on="0"/>
        <pt x="227" y="94" on="0"/>
        <pt x="249" y="77" on="0"/>
        <pt x="280" y="77" on="1"/>
        <pt x="348" y="77" on="0"/>
        <pt x="400" y="132" on="0"/>
        <pt x="422" y="228" on="1"/>
        <pt x="506" y="236" on="1"/>
        <pt x="512" y="227" on="1"/>
        <pt x="483" y="119" on="0"/>
        <pt x="458" y="2" on="1"/>
        <pt x="447" y="-8" on="1"/>
        <pt x="292" y="0" on="0"/>
        <pt x="216" y="0" on="1"/>
        <pt x="102" y="0" on="0"/>
        <pt x="10" y="-10" on="1"/>
        <pt x="26" y="57" on="1"/>
        <pt x="64" y="63" on="0"/>
        <pt x="95" y="99" on="0"/>
        <pt x="100" y="142" on="1"/>
        <pt x="150" y="539" on="0"/>
        <pt x="150" y="561" on="0"/>
        <pt x="140" y="578" on="0"/>
        <pt x="119" y="578" on="1"/>
        <pt x="90" y="577" on="1"/>
        <pt x="86" y="585" on="1"/>
      </contour>
      <contour>
        <pt x="404" y="775" on="1"/>
        <pt x="399" y="762" on="1"/>
        <pt x="284" y="733" on="0"/>
        <pt x="170" y="697" on="1"/>
        <pt x="157" y="706" on="1"/>
        <pt x="143" y="753" on="1"/>
        <pt x="366" y="857" on="1"/>
        <pt x="379" y="852" on="1"/>
      </contour>
    </TTGlyph>
    <TTGlyph name="Lcaron" xMin="10" yMin="-10" xMax="555" yMax="649">
      <contour>
        <pt x="454" y="399" on="1"/>
        <pt x="454" y="419" on="0"/>
        <pt x="454" y="446" on="1"/>
        <pt x="454" y="533" on="0"/>
        <pt x="447" y="626" on="1"/>
        <pt x="547" y="640" on="1"/>
        <pt x="555" y="630" on="1"/>
        <pt x="540" y="521" on="0"/>
        <pt x="517" y="414" on="1"/>
        <pt x="469" y="395" on="1"/>
      </contour>
      <contour>
        <pt x="101" y="643" on="1"/>
        <pt x="232" y="641" on="1"/>
        <pt x="383" y="649" on="1"/>
        <pt x="368" y="580" on="1"/>
        <pt x="321" y="574" on="0"/>
        <pt x="292" y="549" on="0"/>
        <pt x="269" y="425" on="0"/>
        <pt x="227" y="144" on="0"/>
        <pt x="227" y="94" on="0"/>
        <pt x="249" y="77" on="0"/>
        <pt x="280" y="77" on="1"/>
        <pt x="348" y="77" on="0"/>
        <pt x="400" y="132" on="0"/>
        <pt x="422" y="228" on="1"/>
        <pt x="506" y="236" on="1"/>
        <pt x="512" y="227" on="1"/>
        <pt x="483" y="119" on="0"/>
        <pt x="458" y="2" on="1"/>
        <pt x="447" y="-8" on="1"/>
        <pt x="292" y="0" on="0"/>
        <pt x="216" y="0" on="1"/>
        <pt x="102" y="0" on="0"/>
        <pt x="10" y="-10" on="1"/>
        <pt x="26" y="57" on="1"/>
        <pt x="64" y="63" on="0"/>
        <pt x="95" y="99" on="0"/>
        <pt x="100" y="142" on="1"/>
        <pt x="150" y="539" on="0"/>
        <pt x="150" y="561" on="0"/>
        <pt x="140" y="578" on="0"/>
        <pt x="119" y="578" on="1"/>
        <pt x="90" y="577" on="1"/>
        <pt x="86" y="585" on="1"/>
      </contour>
    </TTGlyph>
    <TTGlyph name="Lcommaaccent" xMin="10" yMin="-318" xMax="512" yMax="649">
      <contour>
        <pt x="101" y="643" on="1"/>
        <pt x="232" y="641" on="1"/>
        <pt x="383" y="649" on="1"/>
        <pt x="368" y="580" on="1"/>
        <pt x="321" y="574" on="0"/>
        <pt x="292" y="549" on="0"/>
        <pt x="269" y="425" on="0"/>
        <pt x="227" y="144" on="0"/>
        <pt x="227" y="94" on="0"/>
        <pt x="249" y="77" on="0"/>
        <pt x="280" y="77" on="1"/>
        <pt x="348" y="77" on="0"/>
        <pt x="400" y="132" on="0"/>
        <pt x="422" y="228" on="1"/>
        <pt x="506" y="236" on="1"/>
        <pt x="512" y="227" on="1"/>
        <pt x="483" y="119" on="0"/>
        <pt x="458" y="2" on="1"/>
        <pt x="447" y="-8" on="1"/>
        <pt x="292" y="0" on="0"/>
        <pt x="216" y="0" on="1"/>
        <pt x="102" y="0" on="0"/>
        <pt x="10" y="-10" on="1"/>
        <pt x="26" y="57" on="1"/>
        <pt x="64" y="63" on="0"/>
        <pt x="95" y="99" on="0"/>
        <pt x="100" y="142" on="1"/>
        <pt x="150" y="539" on="0"/>
        <pt x="150" y="561" on="0"/>
        <pt x="140" y="578" on="0"/>
        <pt x="119" y="578" on="1"/>
        <pt x="90" y="577" on="1"/>
        <pt x="86" y="585" on="1"/>
      </contour>
      <contour>
        <pt x="165" y="-86" on="1"/>
        <pt x="209" y="-51" on="0"/>
        <pt x="274" y="-51" on="0"/>
        <pt x="313" y="-98" on="0"/>
        <pt x="313" y="-187" on="0"/>
        <pt x="230" y="-283" on="0"/>
        <pt x="166" y="-318" on="1"/>
        <pt x="129" y="-288" on="1"/>
        <pt x="129" y="-271" on="1"/>
        <pt x="159" y="-250" on="0"/>
        <pt x="197" y="-194" on="0"/>
        <pt x="197" y="-169" on="1"/>
        <pt x="197" y="-128" on="0"/>
        <pt x="162" y="-100" on="1"/>
      </contour>
    </TTGlyph>
    <TTGlyph name="Ldot" xMin="10" yMin="-10" xMax="556" yMax="649">
      <contour>
        <pt x="101" y="643" on="1"/>
        <pt x="232" y="641" on="1"/>
        <pt x="383" y="649" on="1"/>
        <pt x="368" y="580" on="1"/>
        <pt x="321" y="574" on="0"/>
        <pt x="292" y="549" on="0"/>
        <pt x="269" y="425" on="0"/>
        <pt x="227" y="144" on="0"/>
        <pt x="227" y="94" on="0"/>
        <pt x="249" y="77" on="0"/>
        <pt x="280" y="77" on="1"/>
        <pt x="348" y="77" on="0"/>
        <pt x="400" y="132" on="0"/>
        <pt x="422" y="228" on="1"/>
        <pt x="506" y="236" on="1"/>
        <pt x="512" y="227" on="1"/>
        <pt x="483" y="119" on="0"/>
        <pt x="458" y="2" on="1"/>
        <pt x="447" y="-8" on="1"/>
        <pt x="292" y="0" on="0"/>
        <pt x="216" y="0" on="1"/>
        <pt x="102" y="0" on="0"/>
        <pt x="10" y="-10" on="1"/>
        <pt x="26" y="57" on="1"/>
        <pt x="64" y="63" on="0"/>
        <pt x="95" y="99" on="0"/>
        <pt x="100" y="142" on="1"/>
        <pt x="150" y="539" on="0"/>
        <pt x="150" y="561" on="0"/>
        <pt x="140" y="578" on="0"/>
        <pt x="119" y="578" on="1"/>
        <pt x="90" y="577" on="1"/>
        <pt x="86" y="585" on="1"/>
      </contour>
      <contour>
        <pt x="556" y="448" on="0"/>
        <pt x="505" y="396" on="0"/>
        <pt x="469" y="396" on="1"/>
        <pt x="401" y="396" on="0"/>
        <pt x="401" y="461" on="1"/>
        <pt x="401" y="501" on="0"/>
        <pt x="451" y="554" on="0"/>
        <pt x="522" y="554" on="0"/>
        <pt x="556" y="519" on="0"/>
      </contour>
    </TTGlyph>
    <TTGlyph name="Lslash" xMin="10" yMin="-10" xMax="512" yMax="649">
      <contour>
        <pt x="101" y="643" on="1"/>
        <pt x="232" y="641" on="1"/>
        <pt x="383" y="649" on="1"/>
        <pt x="368" y="580" on="1"/>
        <pt x="321" y="574" on="0"/>
        <pt x="292" y="549" on="0"/>
        <pt x="276" y="467" on="0"/>
        <pt x="267" y="409" on="1"/>
        <pt x="378" y="464" on="1"/>
        <pt x="386" y="460" on="1"/>
        <pt x="404" y="399" on="1"/>
        <pt x="254" y="324" on="1"/>
        <pt x="227" y="155" on="0"/>
        <pt x="227" y="94" on="0"/>
        <pt x="249" y="77" on="0"/>
        <pt x="280" y="77" on="1"/>
        <pt x="348" y="77" on="0"/>
        <pt x="400" y="132" on="0"/>
        <pt x="422" y="228" on="1"/>
        <pt x="506" y="236" on="1"/>
        <pt x="512" y="227" on="1"/>
        <pt x="483" y="119" on="0"/>
        <pt x="458" y="2" on="1"/>
        <pt x="447" y="-8" on="1"/>
        <pt x="292" y="0" on="0"/>
        <pt x="216" y="0" on="1"/>
        <pt x="102" y="0" on="0"/>
        <pt x="10" y="-10" on="1"/>
        <pt x="26" y="57" on="1"/>
        <pt x="64" y="63" on="0"/>
        <pt x="95" y="99" on="0"/>
        <pt x="100" y="142" on="1"/>
        <pt x="116" y="269" on="1"/>
        <pt x="46" y="235" on="1"/>
        <pt x="37" y="237" on="1"/>
        <pt x="19" y="299" on="1"/>
        <pt x="126" y="352" on="1"/>
        <pt x="150" y="539" on="0"/>
        <pt x="150" y="561" on="0"/>
        <pt x="140" y="578" on="0"/>
        <pt x="119" y="578" on="1"/>
        <pt x="90" y="577" on="1"/>
        <pt x="86" y="585" on="1"/>
      </contour>
    </TTGlyph>
    <TTGlyph name="M" xMin="-3" yMin="-16" xMax="809" yMax="647">
      <contour>
        <pt x="587" y="643" on="1"/>
        <pt x="680" y="642" on="1"/>
        <pt x="697" y="642" on="0"/>
        <pt x="805" y="647" on="1"/>
        <pt x="809" y="643" on="1"/>
        <pt x="795" y="583" on="1"/>
        <pt x="754" y="580" on="0"/>
        <pt x="723" y="558" on="0"/>
        <pt x="720" y="530" on="1"/>
        <pt x="708" y="425" on="0"/>
        <pt x="701" y="156" on="1"/>
        <pt x="701" y="144" on="0"/>
        <pt x="701" y="98" on="0"/>
        <pt x="713" y="64" on="0"/>
        <pt x="736" y="64" on="1"/>
        <pt x="764" y="66" on="1"/>
        <pt x="767" y="61" on="1"/>
        <pt x="751" y="-3" on="1"/>
        <pt x="693" y="0" on="0"/>
        <pt x="630" y="0" on="0"/>
        <pt x="514" y="-6" on="0"/>
        <pt x="509" y="-8" on="1"/>
        <pt x="525" y="58" on="1"/>
        <pt x="554" y="62" on="0"/>
        <pt x="581" y="85" on="0"/>
        <pt x="584" y="108" on="1"/>
        <pt x="608" y="449" on="1"/>
        <pt x="599" y="449" on="1"/>
        <pt x="482" y="192" on="0"/>
        <pt x="397" y="-8" on="1"/>
        <pt x="324" y="-16" on="1"/>
        <pt x="282" y="216" on="0"/>
        <pt x="235" y="449" on="1"/>
        <pt x="227" y="449" on="1"/>
        <pt x="164" y="106" on="0"/>
        <pt x="164" y="90" on="1"/>
        <pt x="164" y="64" on="0"/>
        <pt x="191" y="64" on="1"/>
        <pt x="224" y="65" on="1"/>
        <pt x="229" y="60" on="1"/>
        <pt x="210" y="-4" on="1"/>
        <pt x="127" y="0" on="0"/>
        <pt x="95" y="0" on="1"/>
        <pt x="-3" y="-8" on="1"/>
        <pt x="12" y="58" on="1"/>
        <pt x="41" y="62" on="0"/>
        <pt x="70" y="93" on="0"/>
        <pt x="78" y="130" on="1"/>
        <pt x="163" y="520" on="0"/>
        <pt x="163" y="561" on="0"/>
        <pt x="134" y="579" on="0"/>
        <pt x="96" y="582" on="1"/>
        <pt x="91" y="588" on="1"/>
        <pt x="107" y="646" on="1"/>
        <pt x="194" y="641" on="0"/>
        <pt x="229" y="641" on="1"/>
        <pt x="336" y="645" on="1"/>
        <pt x="366" y="431" on="0"/>
        <pt x="407" y="230" on="1"/>
        <pt x="415" y="230" on="1"/>
        <pt x="499" y="419" on="0"/>
      </contour>
    </TTGlyph>
    <TTGlyph name="N" xMin="12" yMin="-28" xMax="738" yMax="647">
      <contour>
        <pt x="520" y="578" on="1"/>
        <pt x="487" y="577" on="1"/>
        <pt x="484" y="585" on="1"/>
        <pt x="498" y="645" on="1"/>
        <pt x="580" y="641" on="0"/>
        <pt x="623" y="641" on="1"/>
        <pt x="738" y="647" on="1"/>
        <pt x="725" y="581" on="1"/>
        <pt x="693" y="576" on="0"/>
        <pt x="661" y="548" on="0"/>
        <pt x="657" y="518" on="1"/>
        <pt x="579" y="-15" on="1"/>
        <pt x="473" y="-28" on="1"/>
        <pt x="373" y="188" on="0"/>
        <pt x="249" y="423" on="1"/>
        <pt x="240" y="423" on="1"/>
        <pt x="199" y="100" on="0"/>
        <pt x="199" y="80" on="0"/>
        <pt x="209" y="63" on="0"/>
        <pt x="228" y="63" on="1"/>
        <pt x="269" y="65" on="1"/>
        <pt x="274" y="59" on="1"/>
        <pt x="257" y="-4" on="1"/>
        <pt x="174" y="0" on="0"/>
        <pt x="142" y="0" on="1"/>
        <pt x="86" y="0" on="0"/>
        <pt x="12" y="-8" on="1"/>
        <pt x="28" y="58" on="1"/>
        <pt x="85" y="65" on="0"/>
        <pt x="93" y="121" on="1"/>
        <pt x="155" y="524" on="0"/>
        <pt x="155" y="553" on="0"/>
        <pt x="130" y="575" on="0"/>
        <pt x="83" y="580" on="1"/>
        <pt x="77" y="590" on="1"/>
        <pt x="90" y="646" on="1"/>
        <pt x="154" y="641" on="0"/>
        <pt x="203" y="641" on="1"/>
        <pt x="296" y="645" on="1"/>
        <pt x="380" y="464" on="0"/>
        <pt x="501" y="230" on="1"/>
        <pt x="511" y="230" on="1"/>
        <pt x="546" y="539" on="0"/>
        <pt x="546" y="545" on="1"/>
        <pt x="546" y="578" on="0"/>
      </contour>
    </TTGlyph>
    <TTGlyph name="Nacute" xMin="12" yMin="-28" xMax="738" yMax="857">
      <contour>
        <pt x="520" y="578" on="1"/>
        <pt x="487" y="577" on="1"/>
        <pt x="484" y="585" on="1"/>
        <pt x="498" y="645" on="1"/>
        <pt x="580" y="641" on="0"/>
        <pt x="623" y="641" on="1"/>
        <pt x="738" y="647" on="1"/>
        <pt x="725" y="581" on="1"/>
        <pt x="693" y="576" on="0"/>
        <pt x="661" y="548" on="0"/>
        <pt x="657" y="518" on="1"/>
        <pt x="579" y="-15" on="1"/>
        <pt x="473" y="-28" on="1"/>
        <pt x="373" y="188" on="0"/>
        <pt x="249" y="423" on="1"/>
        <pt x="240" y="423" on="1"/>
        <pt x="199" y="100" on="0"/>
        <pt x="199" y="80" on="0"/>
        <pt x="209" y="63" on="0"/>
        <pt x="228" y="63" on="1"/>
        <pt x="269" y="65" on="1"/>
        <pt x="274" y="59" on="1"/>
        <pt x="257" y="-4" on="1"/>
        <pt x="174" y="0" on="0"/>
        <pt x="142" y="0" on="1"/>
        <pt x="86" y="0" on="0"/>
        <pt x="12" y="-8" on="1"/>
        <pt x="28" y="58" on="1"/>
        <pt x="85" y="65" on="0"/>
        <pt x="93" y="121" on="1"/>
        <pt x="155" y="524" on="0"/>
        <pt x="155" y="553" on="0"/>
        <pt x="130" y="575" on="0"/>
        <pt x="83" y="580" on="1"/>
        <pt x="77" y="590" on="1"/>
        <pt x="90" y="646" on="1"/>
        <pt x="154" y="641" on="0"/>
        <pt x="203" y="641" on="1"/>
        <pt x="296" y="645" on="1"/>
        <pt x="380" y="464" on="0"/>
        <pt x="501" y="230" on="1"/>
        <pt x="511" y="230" on="1"/>
        <pt x="546" y="539" on="0"/>
        <pt x="546" y="545" on="1"/>
        <pt x="546" y="578" on="0"/>
      </contour>
      <contour>
        <pt x="566" y="775" on="1"/>
        <pt x="561" y="762" on="1"/>
        <pt x="446" y="733" on="0"/>
        <pt x="332" y="697" on="1"/>
        <pt x="319" y="706" on="1"/>
        <pt x="305" y="753" on="1"/>
        <pt x="528" y="857" on="1"/>
        <pt x="541" y="852" on="1"/>
      </contour>
    </TTGlyph>
    <TTGlyph name="Ncaron" xMin="12" yMin="-28" xMax="738" yMax="865">
      <contour>
        <pt x="520" y="578" on="1"/>
        <pt x="487" y="577" on="1"/>
        <pt x="484" y="585" on="1"/>
        <pt x="498" y="645" on="1"/>
        <pt x="580" y="641" on="0"/>
        <pt x="623" y="641" on="1"/>
        <pt x="738" y="647" on="1"/>
        <pt x="725" y="581" on="1"/>
        <pt x="693" y="576" on="0"/>
        <pt x="661" y="548" on="0"/>
        <pt x="657" y="518" on="1"/>
        <pt x="579" y="-15" on="1"/>
        <pt x="473" y="-28" on="1"/>
        <pt x="373" y="188" on="0"/>
        <pt x="249" y="423" on="1"/>
        <pt x="240" y="423" on="1"/>
        <pt x="199" y="100" on="0"/>
        <pt x="199" y="80" on="0"/>
        <pt x="209" y="63" on="0"/>
        <pt x="228" y="63" on="1"/>
        <pt x="269" y="65" on="1"/>
        <pt x="274" y="59" on="1"/>
        <pt x="257" y="-4" on="1"/>
        <pt x="174" y="0" on="0"/>
        <pt x="142" y="0" on="1"/>
        <pt x="86" y="0" on="0"/>
        <pt x="12" y="-8" on="1"/>
        <pt x="28" y="58" on="1"/>
        <pt x="85" y="65" on="0"/>
        <pt x="93" y="121" on="1"/>
        <pt x="155" y="524" on="0"/>
        <pt x="155" y="553" on="0"/>
        <pt x="130" y="575" on="0"/>
        <pt x="83" y="580" on="1"/>
        <pt x="77" y="590" on="1"/>
        <pt x="90" y="646" on="1"/>
        <pt x="154" y="641" on="0"/>
        <pt x="203" y="641" on="1"/>
        <pt x="296" y="645" on="1"/>
        <pt x="380" y="464" on="0"/>
        <pt x="501" y="230" on="1"/>
        <pt x="511" y="230" on="1"/>
        <pt x="546" y="539" on="0"/>
        <pt x="546" y="545" on="1"/>
        <pt x="546" y="578" on="0"/>
      </contour>
      <contour>
        <pt x="430" y="807" on="1"/>
        <pt x="560" y="865" on="1"/>
        <pt x="575" y="861" on="1"/>
        <pt x="595" y="820" on="1"/>
        <pt x="426" y="696" on="1"/>
        <pt x="407" y="696" on="1"/>
        <pt x="305" y="791" on="0"/>
        <pt x="270" y="820" on="1"/>
        <pt x="298" y="861" on="1"/>
        <pt x="315" y="865" on="1"/>
      </contour>
    </TTGlyph>
    <TTGlyph name="Ncommaaccent" xMin="12" yMin="-318" xMax="738" yMax="647">
      <contour>
        <pt x="520" y="578" on="1"/>
        <pt x="487" y="577" on="1"/>
        <pt x="484" y="585" on="1"/>
        <pt x="498" y="645" on="1"/>
        <pt x="580" y="641" on="0"/>
        <pt x="623" y="641" on="1"/>
        <pt x="738" y="647" on="1"/>
        <pt x="725" y="581" on="1"/>
        <pt x="693" y="576" on="0"/>
        <pt x="661" y="548" on="0"/>
        <pt x="657" y="518" on="1"/>
        <pt x="579" y="-15" on="1"/>
        <pt x="473" y="-28" on="1"/>
        <pt x="373" y="188" on="0"/>
        <pt x="249" y="423" on="1"/>
        <pt x="240" y="423" on="1"/>
        <pt x="199" y="100" on="0"/>
        <pt x="199" y="80" on="0"/>
        <pt x="209" y="63" on="0"/>
        <pt x="228" y="63" on="1"/>
        <pt x="269" y="65" on="1"/>
        <pt x="274" y="59" on="1"/>
        <pt x="257" y="-4" on="1"/>
        <pt x="174" y="0" on="0"/>
        <pt x="142" y="0" on="1"/>
        <pt x="86" y="0" on="0"/>
        <pt x="12" y="-8" on="1"/>
        <pt x="28" y="58" on="1"/>
        <pt x="85" y="65" on="0"/>
        <pt x="93" y="121" on="1"/>
        <pt x="155" y="524" on="0"/>
        <pt x="155" y="553" on="0"/>
        <pt x="130" y="575" on="0"/>
        <pt x="83" y="580" on="1"/>
        <pt x="77" y="590" on="1"/>
        <pt x="90" y="646" on="1"/>
        <pt x="154" y="641" on="0"/>
        <pt x="203" y="641" on="1"/>
        <pt x="296" y="645" on="1"/>
        <pt x="380" y="464" on="0"/>
        <pt x="501" y="230" on="1"/>
        <pt x="511" y="230" on="1"/>
        <pt x="546" y="539" on="0"/>
        <pt x="546" y="545" on="1"/>
        <pt x="546" y="578" on="0"/>
      </contour>
      <contour>
        <pt x="245" y="-86" on="1"/>
        <pt x="289" y="-51" on="0"/>
        <pt x="354" y="-51" on="0"/>
        <pt x="393" y="-98" on="0"/>
        <pt x="393" y="-187" on="0"/>
        <pt x="310" y="-283" on="0"/>
        <pt x="246" y="-318" on="1"/>
        <pt x="209" y="-288" on="1"/>
        <pt x="209" y="-271" on="1"/>
        <pt x="239" y="-250" on="0"/>
        <pt x="277" y="-194" on="0"/>
        <pt x="277" y="-169" on="1"/>
        <pt x="277" y="-128" on="0"/>
        <pt x="242" y="-100" on="1"/>
      </contour>
    </TTGlyph>
    <TTGlyph name="Ntilde" xMin="12" yMin="-28" xMax="738" yMax="853">
      <contour>
        <pt x="520" y="578" on="1"/>
        <pt x="487" y="577" on="1"/>
        <pt x="484" y="585" on="1"/>
        <pt x="498" y="645" on="1"/>
        <pt x="580" y="641" on="0"/>
        <pt x="623" y="641" on="1"/>
        <pt x="738" y="647" on="1"/>
        <pt x="725" y="581" on="1"/>
        <pt x="693" y="576" on="0"/>
        <pt x="661" y="548" on="0"/>
        <pt x="657" y="518" on="1"/>
        <pt x="579" y="-15" on="1"/>
        <pt x="473" y="-28" on="1"/>
        <pt x="373" y="188" on="0"/>
        <pt x="249" y="423" on="1"/>
        <pt x="240" y="423" on="1"/>
        <pt x="199" y="100" on="0"/>
        <pt x="199" y="80" on="0"/>
        <pt x="209" y="63" on="0"/>
        <pt x="228" y="63" on="1"/>
        <pt x="269" y="65" on="1"/>
        <pt x="274" y="59" on="1"/>
        <pt x="257" y="-4" on="1"/>
        <pt x="174" y="0" on="0"/>
        <pt x="142" y="0" on="1"/>
        <pt x="86" y="0" on="0"/>
        <pt x="12" y="-8" on="1"/>
        <pt x="28" y="58" on="1"/>
        <pt x="85" y="65" on="0"/>
        <pt x="93" y="121" on="1"/>
        <pt x="155" y="524" on="0"/>
        <pt x="155" y="553" on="0"/>
        <pt x="130" y="575" on="0"/>
        <pt x="83" y="580" on="1"/>
        <pt x="77" y="590" on="1"/>
        <pt x="90" y="646" on="1"/>
        <pt x="154" y="641" on="0"/>
        <pt x="203" y="641" on="1"/>
        <pt x="296" y="645" on="1"/>
        <pt x="380" y="464" on="0"/>
        <pt x="501" y="230" on="1"/>
        <pt x="511" y="230" on="1"/>
        <pt x="546" y="539" on="0"/>
        <pt x="546" y="545" on="1"/>
        <pt x="546" y="578" on="0"/>
      </contour>
      <contour>
        <pt x="370" y="835" on="0"/>
        <pt x="481" y="801" on="0"/>
        <pt x="504" y="801" on="0"/>
        <pt x="539" y="827" on="0"/>
        <pt x="563" y="853" on="1"/>
        <pt x="574" y="853" on="1"/>
        <pt x="609" y="816" on="1"/>
        <pt x="608" y="806" on="1"/>
        <pt x="520" y="709" on="1"/>
        <pt x="503" y="705" on="1"/>
        <pt x="486" y="705" on="0"/>
        <pt x="376" y="739" on="0"/>
        <pt x="364" y="739" on="1"/>
        <pt x="342" y="739" on="0"/>
        <pt x="306" y="700" on="1"/>
        <pt x="294" y="687" on="1"/>
        <pt x="283" y="687" on="1"/>
        <pt x="248" y="724" on="1"/>
        <pt x="249" y="735" on="1"/>
        <pt x="337" y="831" on="1"/>
        <pt x="353" y="835" on="1"/>
      </contour>
    </TTGlyph>
    <TTGlyph name="O" xMin="32" yMin="-12" xMax="641" yMax="653">
      <contour>
        <pt x="311" y="73" on="1"/>
        <pt x="391" y="73" on="0"/>
        <pt x="485" y="230" on="0"/>
        <pt x="485" y="371" on="1"/>
        <pt x="485" y="459" on="0"/>
        <pt x="416" y="559" on="0"/>
        <pt x="356" y="559" on="1"/>
        <pt x="277" y="559" on="0"/>
        <pt x="185" y="401" on="0"/>
        <pt x="185" y="261" on="1"/>
        <pt x="185" y="173" on="0"/>
        <pt x="252" y="73" on="0"/>
      </contour>
      <contour>
        <pt x="285" y="-12" on="1"/>
        <pt x="170" y="-12" on="0"/>
        <pt x="32" y="132" on="0"/>
        <pt x="32" y="255" on="1"/>
        <pt x="32" y="433" on="0"/>
        <pt x="226" y="653" on="0"/>
        <pt x="385" y="653" on="1"/>
        <pt x="503" y="653" on="0"/>
        <pt x="641" y="513" on="0"/>
        <pt x="641" y="390" on="1"/>
        <pt x="641" y="212" on="0"/>
        <pt x="443" y="-12" on="0"/>
      </contour>
    </TTGlyph>
    <TTGlyph name="OE" xMin="32" yMin="-11" xMax="914" yMax="654">
      <contour>
        <pt x="577" y="279" on="1"/>
        <pt x="556" y="126" on="0"/>
        <pt x="556" y="95" on="0"/>
        <pt x="571" y="79" on="0"/>
        <pt x="612" y="79" on="1"/>
        <pt x="698" y="79" on="0"/>
        <pt x="754" y="118" on="0"/>
        <pt x="773" y="193" on="1"/>
        <pt x="858" y="200" on="1"/>
        <pt x="864" y="190" on="1"/>
        <pt x="836" y="100" on="0"/>
        <pt x="815" y="4" on="1"/>
        <pt x="804" y="-7" on="1"/>
        <pt x="623" y="2" on="0"/>
        <pt x="456" y="2" on="0"/>
        <pt x="311" y="-11" on="0"/>
        <pt x="284" y="-11" on="1"/>
        <pt x="169" y="-11" on="0"/>
        <pt x="32" y="133" on="0"/>
        <pt x="32" y="256" on="1"/>
        <pt x="32" y="433" on="0"/>
        <pt x="221" y="649" on="0"/>
        <pt x="378" y="649" on="1"/>
        <pt x="408" y="649" on="0"/>
        <pt x="560" y="636" on="0"/>
        <pt x="604" y="636" on="1"/>
        <pt x="774" y="636" on="0"/>
        <pt x="907" y="654" on="1"/>
        <pt x="914" y="643" on="1"/>
        <pt x="886" y="554" on="0"/>
        <pt x="869" y="461" on="1"/>
        <pt x="777" y="455" on="1"/>
        <pt x="785" y="490" on="0"/>
        <pt x="785" y="541" on="0"/>
        <pt x="741" y="558" on="0"/>
        <pt x="637" y="558" on="0"/>
        <pt x="621" y="548" on="0"/>
        <pt x="618" y="525" on="1"/>
        <pt x="592" y="370" on="1"/>
        <pt x="680" y="369" on="1"/>
        <pt x="794" y="377" on="1"/>
        <pt x="801" y="368" on="1"/>
        <pt x="776" y="282" on="1"/>
        <pt x="699" y="285" on="0"/>
        <pt x="652" y="285" on="1"/>
      </contour>
      <contour>
        <pt x="188" y="169" on="0"/>
        <pt x="249" y="73" on="0"/>
        <pt x="369" y="73" on="0"/>
        <pt x="431" y="133" on="0"/>
        <pt x="440" y="202" on="1"/>
        <pt x="474" y="466" on="0"/>
        <pt x="474" y="479" on="1"/>
        <pt x="474" y="519" on="0"/>
        <pt x="429" y="561" on="0"/>
        <pt x="282" y="561" on="0"/>
        <pt x="188" y="397" on="0"/>
        <pt x="188" y="258" on="1"/>
      </contour>
    </TTGlyph>
    <TTGlyph name="Oacute" xMin="32" yMin="-12" xMax="641" yMax="857">
      <contour>
        <pt x="311" y="73" on="1"/>
        <pt x="391" y="73" on="0"/>
        <pt x="485" y="230" on="0"/>
        <pt x="485" y="371" on="1"/>
        <pt x="485" y="459" on="0"/>
        <pt x="416" y="559" on="0"/>
        <pt x="356" y="559" on="1"/>
        <pt x="277" y="559" on="0"/>
        <pt x="185" y="401" on="0"/>
        <pt x="185" y="261" on="1"/>
        <pt x="185" y="173" on="0"/>
        <pt x="252" y="73" on="0"/>
      </contour>
      <contour>
        <pt x="285" y="-12" on="1"/>
        <pt x="170" y="-12" on="0"/>
        <pt x="32" y="132" on="0"/>
        <pt x="32" y="255" on="1"/>
        <pt x="32" y="433" on="0"/>
        <pt x="226" y="653" on="0"/>
        <pt x="385" y="653" on="1"/>
        <pt x="503" y="653" on="0"/>
        <pt x="641" y="513" on="0"/>
        <pt x="641" y="390" on="1"/>
        <pt x="641" y="212" on="0"/>
        <pt x="443" y="-12" on="0"/>
      </contour>
      <contour>
        <pt x="528" y="775" on="1"/>
        <pt x="523" y="762" on="1"/>
        <pt x="408" y="733" on="0"/>
        <pt x="294" y="697" on="1"/>
        <pt x="281" y="706" on="1"/>
        <pt x="267" y="753" on="1"/>
        <pt x="490" y="857" on="1"/>
        <pt x="503" y="852" on="1"/>
      </contour>
    </TTGlyph>
    <TTGlyph name="Obreve" xMin="32" yMin="-12" xMax="641" yMax="875">
      <contour>
        <pt x="311" y="73" on="1"/>
        <pt x="391" y="73" on="0"/>
        <pt x="485" y="230" on="0"/>
        <pt x="485" y="371" on="1"/>
        <pt x="485" y="459" on="0"/>
        <pt x="416" y="559" on="0"/>
        <pt x="356" y="559" on="1"/>
        <pt x="277" y="559" on="0"/>
        <pt x="185" y="401" on="0"/>
        <pt x="185" y="261" on="1"/>
        <pt x="185" y="173" on="0"/>
        <pt x="252" y="73" on="0"/>
      </contour>
      <contour>
        <pt x="285" y="-12" on="1"/>
        <pt x="170" y="-12" on="0"/>
        <pt x="32" y="132" on="0"/>
        <pt x="32" y="255" on="1"/>
        <pt x="32" y="433" on="0"/>
        <pt x="226" y="653" on="0"/>
        <pt x="385" y="653" on="1"/>
        <pt x="503" y="653" on="0"/>
        <pt x="641" y="513" on="0"/>
        <pt x="641" y="390" on="1"/>
        <pt x="641" y="212" on="0"/>
        <pt x="443" y="-12" on="0"/>
      </contour>
      <contour>
        <pt x="305" y="807" on="0"/>
        <pt x="453" y="807" on="0"/>
        <pt x="487" y="875" on="1"/>
        <pt x="505" y="871" on="1"/>
        <pt x="527" y="837" on="1"/>
        <pt x="507" y="784" on="0"/>
        <pt x="425" y="712" on="0"/>
        <pt x="310" y="712" on="0"/>
        <pt x="246" y="784" on="0"/>
        <pt x="238" y="837" on="1"/>
        <pt x="269" y="871" on="1"/>
        <pt x="287" y="875" on="1"/>
      </contour>
    </TTGlyph>
    <TTGlyph name="Ocircumflex" xMin="32" yMin="-12" xMax="641" yMax="876">
      <contour>
        <pt x="311" y="73" on="1"/>
        <pt x="391" y="73" on="0"/>
        <pt x="485" y="230" on="0"/>
        <pt x="485" y="371" on="1"/>
        <pt x="485" y="459" on="0"/>
        <pt x="416" y="559" on="0"/>
        <pt x="356" y="559" on="1"/>
        <pt x="277" y="559" on="0"/>
        <pt x="185" y="401" on="0"/>
        <pt x="185" y="261" on="1"/>
        <pt x="185" y="173" on="0"/>
        <pt x="252" y="73" on="0"/>
      </contour>
      <contour>
        <pt x="285" y="-12" on="1"/>
        <pt x="170" y="-12" on="0"/>
        <pt x="32" y="132" on="0"/>
        <pt x="32" y="255" on="1"/>
        <pt x="32" y="433" on="0"/>
        <pt x="226" y="653" on="0"/>
        <pt x="385" y="653" on="1"/>
        <pt x="503" y="653" on="0"/>
        <pt x="641" y="513" on="0"/>
        <pt x="641" y="390" on="1"/>
        <pt x="641" y="212" on="0"/>
        <pt x="443" y="-12" on="0"/>
      </contour>
      <contour>
        <pt x="387" y="765" on="1"/>
        <pt x="257" y="707" on="1"/>
        <pt x="242" y="711" on="1"/>
        <pt x="223" y="752" on="1"/>
        <pt x="391" y="876" on="1"/>
        <pt x="411" y="876" on="1"/>
        <pt x="411" y="877" on="0"/>
        <pt x="437" y="853" on="1"/>
        <pt x="526" y="771" on="0"/>
        <pt x="548" y="752" on="1"/>
        <pt x="519" y="711" on="1"/>
        <pt x="502" y="707" on="1"/>
      </contour>
    </TTGlyph>
    <TTGlyph name="Odieresis" xMin="32" yMin="-12" xMax="641" yMax="839">
      <contour>
        <pt x="311" y="73" on="1"/>
        <pt x="391" y="73" on="0"/>
        <pt x="485" y="230" on="0"/>
        <pt x="485" y="371" on="1"/>
        <pt x="485" y="459" on="0"/>
        <pt x="416" y="559" on="0"/>
        <pt x="356" y="559" on="1"/>
        <pt x="277" y="559" on="0"/>
        <pt x="185" y="401" on="0"/>
        <pt x="185" y="261" on="1"/>
        <pt x="185" y="173" on="0"/>
        <pt x="252" y="73" on="0"/>
      </contour>
      <contour>
        <pt x="285" y="-12" on="1"/>
        <pt x="170" y="-12" on="0"/>
        <pt x="32" y="132" on="0"/>
        <pt x="32" y="255" on="1"/>
        <pt x="32" y="433" on="0"/>
        <pt x="226" y="653" on="0"/>
        <pt x="385" y="653" on="1"/>
        <pt x="503" y="653" on="0"/>
        <pt x="641" y="513" on="0"/>
        <pt x="641" y="390" on="1"/>
        <pt x="641" y="212" on="0"/>
        <pt x="443" y="-12" on="0"/>
      </contour>
      <contour>
        <pt x="538" y="754" on="0"/>
        <pt x="496" y="711" on="0"/>
        <pt x="467" y="711" on="1"/>
        <pt x="411" y="711" on="0"/>
        <pt x="411" y="763" on="1"/>
        <pt x="411" y="796" on="0"/>
        <pt x="454" y="839" on="0"/>
        <pt x="511" y="839" on="0"/>
        <pt x="538" y="811" on="0"/>
      </contour>
      <contour>
        <pt x="290" y="711" on="1"/>
        <pt x="238" y="711" on="0"/>
        <pt x="238" y="763" on="1"/>
        <pt x="238" y="796" on="0"/>
        <pt x="280" y="839" on="0"/>
        <pt x="309" y="839" on="1"/>
        <pt x="365" y="839" on="0"/>
        <pt x="365" y="787" on="1"/>
        <pt x="365" y="754" on="0"/>
        <pt x="323" y="711" on="0"/>
      </contour>
    </TTGlyph>
    <TTGlyph name="Ograve" xMin="32" yMin="-12" xMax="641" yMax="857">
      <contour>
        <pt x="311" y="73" on="1"/>
        <pt x="391" y="73" on="0"/>
        <pt x="485" y="230" on="0"/>
        <pt x="485" y="371" on="1"/>
        <pt x="485" y="459" on="0"/>
        <pt x="416" y="559" on="0"/>
        <pt x="356" y="559" on="1"/>
        <pt x="277" y="559" on="0"/>
        <pt x="185" y="401" on="0"/>
        <pt x="185" y="261" on="1"/>
        <pt x="185" y="173" on="0"/>
        <pt x="252" y="73" on="0"/>
      </contour>
      <contour>
        <pt x="285" y="-12" on="1"/>
        <pt x="170" y="-12" on="0"/>
        <pt x="32" y="132" on="0"/>
        <pt x="32" y="255" on="1"/>
        <pt x="32" y="433" on="0"/>
        <pt x="226" y="653" on="0"/>
        <pt x="385" y="653" on="1"/>
        <pt x="503" y="653" on="0"/>
        <pt x="641" y="513" on="0"/>
        <pt x="641" y="390" on="1"/>
        <pt x="641" y="212" on="0"/>
        <pt x="443" y="-12" on="0"/>
      </contour>
      <contour>
        <pt x="246" y="762" on="1"/>
        <pt x="241" y="775" on="1"/>
        <pt x="266" y="852" on="1"/>
        <pt x="279" y="857" on="1"/>
        <pt x="394" y="800" on="0"/>
        <pt x="502" y="753" on="1"/>
        <pt x="489" y="706" on="1"/>
        <pt x="475" y="697" on="1"/>
        <pt x="353" y="735" on="0"/>
      </contour>
    </TTGlyph>
    <TTGlyph name="Ohungarumlaut" xMin="32" yMin="-12" xMax="641" yMax="857">
      <contour>
        <pt x="311" y="73" on="1"/>
        <pt x="391" y="73" on="0"/>
        <pt x="485" y="230" on="0"/>
        <pt x="485" y="371" on="1"/>
        <pt x="485" y="459" on="0"/>
        <pt x="416" y="559" on="0"/>
        <pt x="356" y="559" on="1"/>
        <pt x="277" y="559" on="0"/>
        <pt x="185" y="401" on="0"/>
        <pt x="185" y="261" on="1"/>
        <pt x="185" y="173" on="0"/>
        <pt x="252" y="73" on="0"/>
      </contour>
      <contour>
        <pt x="285" y="-12" on="1"/>
        <pt x="170" y="-12" on="0"/>
        <pt x="32" y="132" on="0"/>
        <pt x="32" y="255" on="1"/>
        <pt x="32" y="433" on="0"/>
        <pt x="226" y="653" on="0"/>
        <pt x="385" y="653" on="1"/>
        <pt x="503" y="653" on="0"/>
        <pt x="641" y="513" on="0"/>
        <pt x="641" y="390" on="1"/>
        <pt x="641" y="212" on="0"/>
        <pt x="443" y="-12" on="0"/>
      </contour>
      <contour>
        <pt x="420" y="794" on="1"/>
        <pt x="419" y="782" on="1"/>
        <pt x="334" y="736" on="0"/>
        <pt x="250" y="684" on="1"/>
        <pt x="237" y="689" on="1"/>
        <pt x="214" y="723" on="1"/>
        <pt x="365" y="857" on="1"/>
        <pt x="377" y="856" on="1"/>
      </contour>
      <contour>
        <pt x="588" y="790" on="1"/>
        <pt x="586" y="778" on="1"/>
        <pt x="502" y="732" on="0"/>
        <pt x="418" y="680" on="1"/>
        <pt x="405" y="684" on="1"/>
        <pt x="382" y="718" on="1"/>
        <pt x="533" y="852" on="1"/>
        <pt x="545" y="850" on="1"/>
      </contour>
    </TTGlyph>
    <TTGlyph name="Omacron" xMin="32" yMin="-12" xMax="641" yMax="805">
      <contour>
        <pt x="311" y="73" on="1"/>
        <pt x="391" y="73" on="0"/>
        <pt x="485" y="230" on="0"/>
        <pt x="485" y="371" on="1"/>
        <pt x="485" y="459" on="0"/>
        <pt x="416" y="559" on="0"/>
        <pt x="356" y="559" on="1"/>
        <pt x="277" y="559" on="0"/>
        <pt x="185" y="401" on="0"/>
        <pt x="185" y="261" on="1"/>
        <pt x="185" y="173" on="0"/>
        <pt x="252" y="73" on="0"/>
      </contour>
      <contour>
        <pt x="285" y="-12" on="1"/>
        <pt x="170" y="-12" on="0"/>
        <pt x="32" y="132" on="0"/>
        <pt x="32" y="255" on="1"/>
        <pt x="32" y="433" on="0"/>
        <pt x="226" y="653" on="0"/>
        <pt x="385" y="653" on="1"/>
        <pt x="503" y="653" on="0"/>
        <pt x="641" y="513" on="0"/>
        <pt x="641" y="390" on="1"/>
        <pt x="641" y="212" on="0"/>
        <pt x="443" y="-12" on="0"/>
      </contour>
      <contour>
        <pt x="537" y="805" on="1"/>
        <pt x="544" y="791" on="1"/>
        <pt x="522" y="714" on="1"/>
        <pt x="252" y="712" on="1"/>
        <pt x="243" y="724" on="1"/>
        <pt x="266" y="800" on="1"/>
        <pt x="358" y="799" on="0"/>
        <pt x="414" y="799" on="1"/>
      </contour>
    </TTGlyph>
    <TTGlyph name="Omega" xMin="6" yMin="-5" xMax="802" yMax="654">
      <contour>
        <pt x="418" y="47" on="1"/>
        <pt x="573" y="185" on="0"/>
        <pt x="573" y="372" on="1"/>
        <pt x="573" y="464" on="0"/>
        <pt x="509" y="557" on="0"/>
        <pt x="451" y="557" on="1"/>
        <pt x="371" y="557" on="0"/>
        <pt x="279" y="415" on="0"/>
        <pt x="279" y="283" on="1"/>
        <pt x="279" y="130" on="0"/>
        <pt x="361" y="48" on="1"/>
        <pt x="338" y="-3" on="1"/>
        <pt x="284" y="6" on="1"/>
        <pt x="21" y="-5" on="1"/>
        <pt x="6" y="14" on="1"/>
        <pt x="12" y="70" on="0"/>
        <pt x="19" y="206" on="1"/>
        <pt x="91" y="213" on="1"/>
        <pt x="91" y="205" on="0"/>
        <pt x="91" y="198" on="1"/>
        <pt x="91" y="140" on="0"/>
        <pt x="120" y="85" on="0"/>
        <pt x="161" y="83" on="1"/>
        <pt x="230" y="79" on="1"/>
        <pt x="128" y="179" on="0"/>
        <pt x="128" y="464" on="0"/>
        <pt x="324" y="654" on="0"/>
        <pt x="467" y="654" on="1"/>
        <pt x="586" y="654" on="0"/>
        <pt x="733" y="521" on="0"/>
        <pt x="733" y="318" on="0"/>
        <pt x="637" y="145" on="0"/>
        <pt x="550" y="78" on="1"/>
        <pt x="628" y="83" on="1"/>
        <pt x="668" y="85" on="0"/>
        <pt x="713" y="139" on="0"/>
        <pt x="729" y="206" on="1"/>
        <pt x="802" y="213" on="1"/>
        <pt x="777" y="96" on="0"/>
        <pt x="766" y="14" on="1"/>
        <pt x="747" y="-5" on="1"/>
        <pt x="484" y="6" on="1"/>
        <pt x="428" y="-2" on="1"/>
      </contour>
    </TTGlyph>
    <TTGlyph name="Oslash" xMin="32" yMin="-107" xMax="641" yMax="729">
      <contour>
        <pt x="32" y="255" on="1"/>
        <pt x="32" y="433" on="0"/>
        <pt x="226" y="653" on="0"/>
        <pt x="385" y="653" on="1"/>
        <pt x="434" y="653" on="0"/>
        <pt x="478" y="639" on="1"/>
        <pt x="532" y="729" on="1"/>
        <pt x="593" y="700" on="1"/>
        <pt x="596" y="687" on="1"/>
        <pt x="546" y="605" on="1"/>
        <pt x="641" y="535" on="0"/>
        <pt x="641" y="390" on="1"/>
        <pt x="641" y="212" on="0"/>
        <pt x="443" y="-12" on="0"/>
        <pt x="285" y="-12" on="1"/>
        <pt x="234" y="-12" on="0"/>
        <pt x="190" y="3" on="1"/>
        <pt x="123" y="-107" on="1"/>
        <pt x="63" y="-78" on="1"/>
        <pt x="60" y="-68" on="1"/>
        <pt x="125" y="38" on="1"/>
        <pt x="32" y="109" on="0"/>
      </contour>
      <contour>
        <pt x="311" y="73" on="1"/>
        <pt x="391" y="73" on="0"/>
        <pt x="485" y="230" on="0"/>
        <pt x="485" y="371" on="1"/>
        <pt x="485" y="431" on="0"/>
        <pt x="468" y="476" on="1"/>
        <pt x="245" y="94" on="1"/>
        <pt x="272" y="73" on="0"/>
      </contour>
      <contour>
        <pt x="185" y="261" on="1"/>
        <pt x="185" y="205" on="0"/>
        <pt x="199" y="161" on="1"/>
        <pt x="419" y="540" on="1"/>
        <pt x="390" y="559" on="0"/>
        <pt x="356" y="559" on="1"/>
        <pt x="277" y="559" on="0"/>
        <pt x="185" y="401" on="0"/>
      </contour>
    </TTGlyph>
    <TTGlyph name="Oslashacute" xMin="32" yMin="-107" xMax="641" yMax="862">
      <contour>
        <pt x="32" y="255" on="1"/>
        <pt x="32" y="433" on="0"/>
        <pt x="226" y="653" on="0"/>
        <pt x="385" y="653" on="1"/>
        <pt x="434" y="653" on="0"/>
        <pt x="478" y="639" on="1"/>
        <pt x="532" y="729" on="1"/>
        <pt x="593" y="700" on="1"/>
        <pt x="596" y="687" on="1"/>
        <pt x="546" y="605" on="1"/>
        <pt x="641" y="535" on="0"/>
        <pt x="641" y="390" on="1"/>
        <pt x="641" y="212" on="0"/>
        <pt x="443" y="-12" on="0"/>
        <pt x="285" y="-12" on="1"/>
        <pt x="234" y="-12" on="0"/>
        <pt x="190" y="3" on="1"/>
        <pt x="123" y="-107" on="1"/>
        <pt x="63" y="-78" on="1"/>
        <pt x="60" y="-68" on="1"/>
        <pt x="125" y="38" on="1"/>
        <pt x="32" y="109" on="0"/>
      </contour>
      <contour>
        <pt x="311" y="73" on="1"/>
        <pt x="391" y="73" on="0"/>
        <pt x="485" y="230" on="0"/>
        <pt x="485" y="371" on="1"/>
        <pt x="485" y="431" on="0"/>
        <pt x="468" y="476" on="1"/>
        <pt x="245" y="94" on="1"/>
        <pt x="272" y="73" on="0"/>
      </contour>
      <contour>
        <pt x="185" y="261" on="1"/>
        <pt x="185" y="205" on="0"/>
        <pt x="199" y="161" on="1"/>
        <pt x="419" y="540" on="1"/>
        <pt x="390" y="559" on="0"/>
        <pt x="356" y="559" on="1"/>
        <pt x="277" y="559" on="0"/>
        <pt x="185" y="401" on="0"/>
      </contour>
      <contour>
        <pt x="515" y="780" on="1"/>
        <pt x="510" y="767" on="1"/>
        <pt x="395" y="738" on="0"/>
        <pt x="281" y="702" on="1"/>
        <pt x="268" y="711" on="1"/>
        <pt x="254" y="758" on="1"/>
        <pt x="477" y="862" on="1"/>
        <pt x="490" y="857" on="1"/>
      </contour>
    </TTGlyph>
    <TTGlyph name="Otilde" xMin="32" yMin="-12" xMax="641" yMax="853">
      <contour>
        <pt x="311" y="73" on="1"/>
        <pt x="391" y="73" on="0"/>
        <pt x="485" y="230" on="0"/>
        <pt x="485" y="371" on="1"/>
        <pt x="485" y="459" on="0"/>
        <pt x="416" y="559" on="0"/>
        <pt x="356" y="559" on="1"/>
        <pt x="277" y="559" on="0"/>
        <pt x="185" y="401" on="0"/>
        <pt x="185" y="261" on="1"/>
        <pt x="185" y="173" on="0"/>
        <pt x="252" y="73" on="0"/>
      </contour>
      <contour>
        <pt x="285" y="-12" on="1"/>
        <pt x="170" y="-12" on="0"/>
        <pt x="32" y="132" on="0"/>
        <pt x="32" y="255" on="1"/>
        <pt x="32" y="433" on="0"/>
        <pt x="226" y="653" on="0"/>
        <pt x="385" y="653" on="1"/>
        <pt x="503" y="653" on="0"/>
        <pt x="641" y="513" on="0"/>
        <pt x="641" y="390" on="1"/>
        <pt x="641" y="212" on="0"/>
        <pt x="443" y="-12" on="0"/>
      </contour>
      <contour>
        <pt x="336" y="835" on="0"/>
        <pt x="447" y="801" on="0"/>
        <pt x="470" y="801" on="0"/>
        <pt x="505" y="827" on="0"/>
        <pt x="529" y="853" on="1"/>
        <pt x="540" y="853" on="1"/>
        <pt x="575" y="816" on="1"/>
        <pt x="574" y="806" on="1"/>
        <pt x="486" y="709" on="1"/>
        <pt x="469" y="705" on="1"/>
        <pt x="453" y="705" on="0"/>
        <pt x="342" y="739" on="0"/>
        <pt x="330" y="739" on="1"/>
        <pt x="308" y="739" on="0"/>
        <pt x="272" y="700" on="1"/>
        <pt x="260" y="687" on="1"/>
        <pt x="249" y="687" on="1"/>
        <pt x="214" y="724" on="1"/>
        <pt x="215" y="735" on="1"/>
        <pt x="303" y="831" on="1"/>
        <pt x="319" y="835" on="1"/>
      </contour>
    </TTGlyph>
    <TTGlyph name="P" xMin="9" yMin="-8" xMax="583" yMax="646">
      <contour>
        <pt x="102" y="643" on="1"/>
        <pt x="223" y="641" on="1"/>
        <pt x="362" y="646" on="1"/>
        <pt x="475" y="646" on="0"/>
        <pt x="583" y="553" on="0"/>
        <pt x="583" y="481" on="1"/>
        <pt x="583" y="382" on="0"/>
        <pt x="427" y="228" on="0"/>
        <pt x="328" y="228" on="1"/>
        <pt x="241" y="228" on="1"/>
        <pt x="224" y="112" on="0"/>
        <pt x="224" y="85" on="0"/>
        <pt x="237" y="64" on="0"/>
        <pt x="265" y="64" on="1"/>
        <pt x="307" y="67" on="1"/>
        <pt x="310" y="61" on="1"/>
        <pt x="293" y="-3" on="1"/>
        <pt x="207" y="0" on="0"/>
        <pt x="149" y="0" on="0"/>
        <pt x="109" y="-2" on="1"/>
        <pt x="10" y="-7" on="0"/>
        <pt x="9" y="-8" on="1"/>
        <pt x="24" y="58" on="1"/>
        <pt x="65" y="66" on="0"/>
        <pt x="96" y="99" on="0"/>
        <pt x="101" y="141" on="1"/>
        <pt x="150" y="538" on="0"/>
        <pt x="150" y="561" on="0"/>
        <pt x="142" y="578" on="0"/>
        <pt x="125" y="578" on="1"/>
        <pt x="91" y="576" on="1"/>
        <pt x="86" y="584" on="1"/>
      </contour>
      <contour>
        <pt x="443" y="461" on="1"/>
        <pt x="443" y="514" on="0"/>
        <pt x="380" y="563" on="0"/>
        <pt x="314" y="563" on="1"/>
        <pt x="300" y="563" on="0"/>
        <pt x="294" y="558" on="0"/>
        <pt x="269" y="423" on="0"/>
        <pt x="254" y="315" on="1"/>
        <pt x="336" y="303" on="1"/>
        <pt x="443" y="327" on="0"/>
      </contour>
    </TTGlyph>
    <TTGlyph name="Q" xMin="32" yMin="-227" xMax="747" yMax="653">
      <contour>
        <pt x="32" y="255" on="1"/>
        <pt x="32" y="433" on="0"/>
        <pt x="226" y="653" on="0"/>
        <pt x="385" y="653" on="1"/>
        <pt x="503" y="653" on="0"/>
        <pt x="641" y="513" on="0"/>
        <pt x="641" y="250" on="0"/>
        <pt x="515" y="48" on="0"/>
        <pt x="408" y="9" on="1"/>
        <pt x="408" y="6" on="1"/>
        <pt x="545" y="-108" on="0"/>
        <pt x="651" y="-108" on="1"/>
        <pt x="690" y="-108" on="0"/>
        <pt x="734" y="-98" on="1"/>
        <pt x="741" y="-104" on="1"/>
        <pt x="747" y="-145" on="1"/>
        <pt x="634" y="-227" on="0"/>
        <pt x="607" y="-227" on="1"/>
        <pt x="543" y="-227" on="0"/>
        <pt x="422" y="-148" on="0"/>
        <pt x="280" y="-12" on="1"/>
        <pt x="167" y="-10" on="0"/>
        <pt x="32" y="133" on="0"/>
      </contour>
      <contour>
        <pt x="311" y="73" on="1"/>
        <pt x="391" y="73" on="0"/>
        <pt x="485" y="230" on="0"/>
        <pt x="485" y="371" on="1"/>
        <pt x="485" y="459" on="0"/>
        <pt x="416" y="559" on="0"/>
        <pt x="356" y="559" on="1"/>
        <pt x="277" y="559" on="0"/>
        <pt x="185" y="401" on="0"/>
        <pt x="185" y="261" on="1"/>
        <pt x="185" y="173" on="0"/>
        <pt x="252" y="73" on="0"/>
      </contour>
    </TTGlyph>
    <TTGlyph name="R" xMin="5" yMin="-16" xMax="602" yMax="646">
      <contour>
        <pt x="244" y="253" on="1"/>
        <pt x="226" y="118" on="0"/>
        <pt x="226" y="85" on="0"/>
        <pt x="242" y="64" on="0"/>
        <pt x="288" y="63" on="1"/>
        <pt x="291" y="57" on="1"/>
        <pt x="274" y="-4" on="1"/>
        <pt x="188" y="-1" on="0"/>
        <pt x="145" y="-1" on="1"/>
        <pt x="5" y="-6" on="1"/>
        <pt x="22" y="60" on="1"/>
        <pt x="64" y="66" on="0"/>
        <pt x="96" y="99" on="0"/>
        <pt x="101" y="141" on="1"/>
        <pt x="150" y="538" on="0"/>
        <pt x="150" y="562" on="0"/>
        <pt x="142" y="578" on="0"/>
        <pt x="125" y="578" on="1"/>
        <pt x="91" y="576" on="1"/>
        <pt x="86" y="584" on="1"/>
        <pt x="102" y="644" on="1"/>
        <pt x="185" y="641" on="0"/>
        <pt x="223" y="641" on="1"/>
        <pt x="363" y="646" on="1"/>
        <pt x="466" y="646" on="0"/>
        <pt x="582" y="567" on="0"/>
        <pt x="582" y="496" on="1"/>
        <pt x="582" y="358" on="0"/>
        <pt x="434" y="285" on="1"/>
        <pt x="499" y="142" on="1"/>
        <pt x="521" y="96" on="0"/>
        <pt x="566" y="56" on="0"/>
        <pt x="596" y="56" on="1"/>
        <pt x="602" y="47" on="1"/>
        <pt x="589" y="-5" on="1"/>
        <pt x="472" y="-16" on="1"/>
        <pt x="409" y="-16" on="0"/>
        <pt x="377" y="77" on="1"/>
        <pt x="317" y="253" on="1"/>
      </contour>
      <contour>
        <pt x="441" y="473" on="1"/>
        <pt x="441" y="566" on="0"/>
        <pt x="310" y="566" on="1"/>
        <pt x="300" y="566" on="0"/>
        <pt x="296" y="562" on="1"/>
        <pt x="288" y="553" on="0"/>
        <pt x="257" y="340" on="1"/>
        <pt x="343" y="330" on="1"/>
        <pt x="441" y="370" on="0"/>
      </contour>
    </TTGlyph>
    <TTGlyph name="Racute" xMin="5" yMin="-16" xMax="602" yMax="857">
      <contour>
        <pt x="244" y="253" on="1"/>
        <pt x="226" y="118" on="0"/>
        <pt x="226" y="85" on="0"/>
        <pt x="242" y="64" on="0"/>
        <pt x="288" y="63" on="1"/>
        <pt x="291" y="57" on="1"/>
        <pt x="274" y="-4" on="1"/>
        <pt x="188" y="-1" on="0"/>
        <pt x="145" y="-1" on="1"/>
        <pt x="5" y="-6" on="1"/>
        <pt x="22" y="60" on="1"/>
        <pt x="64" y="66" on="0"/>
        <pt x="96" y="99" on="0"/>
        <pt x="101" y="141" on="1"/>
        <pt x="150" y="538" on="0"/>
        <pt x="150" y="562" on="0"/>
        <pt x="142" y="578" on="0"/>
        <pt x="125" y="578" on="1"/>
        <pt x="91" y="576" on="1"/>
        <pt x="86" y="584" on="1"/>
        <pt x="102" y="644" on="1"/>
        <pt x="185" y="641" on="0"/>
        <pt x="223" y="641" on="1"/>
        <pt x="363" y="646" on="1"/>
        <pt x="466" y="646" on="0"/>
        <pt x="582" y="567" on="0"/>
        <pt x="582" y="496" on="1"/>
        <pt x="582" y="358" on="0"/>
        <pt x="434" y="285" on="1"/>
        <pt x="499" y="142" on="1"/>
        <pt x="521" y="96" on="0"/>
        <pt x="566" y="56" on="0"/>
        <pt x="596" y="56" on="1"/>
        <pt x="602" y="47" on="1"/>
        <pt x="589" y="-5" on="1"/>
        <pt x="472" y="-16" on="1"/>
        <pt x="409" y="-16" on="0"/>
        <pt x="377" y="77" on="1"/>
        <pt x="317" y="253" on="1"/>
      </contour>
      <contour>
        <pt x="441" y="473" on="1"/>
        <pt x="441" y="566" on="0"/>
        <pt x="310" y="566" on="1"/>
        <pt x="300" y="566" on="0"/>
        <pt x="296" y="562" on="1"/>
        <pt x="288" y="553" on="0"/>
        <pt x="257" y="340" on="1"/>
        <pt x="343" y="330" on="1"/>
        <pt x="441" y="370" on="0"/>
      </contour>
      <contour>
        <pt x="512" y="775" on="1"/>
        <pt x="507" y="762" on="1"/>
        <pt x="392" y="733" on="0"/>
        <pt x="278" y="697" on="1"/>
        <pt x="265" y="706" on="1"/>
        <pt x="251" y="753" on="1"/>
        <pt x="474" y="857" on="1"/>
        <pt x="487" y="852" on="1"/>
      </contour>
    </TTGlyph>
    <TTGlyph name="Rcaron" xMin="5" yMin="-16" xMax="602" yMax="865">
      <contour>
        <pt x="244" y="253" on="1"/>
        <pt x="226" y="118" on="0"/>
        <pt x="226" y="85" on="0"/>
        <pt x="242" y="64" on="0"/>
        <pt x="288" y="63" on="1"/>
        <pt x="291" y="57" on="1"/>
        <pt x="274" y="-4" on="1"/>
        <pt x="188" y="-1" on="0"/>
        <pt x="145" y="-1" on="1"/>
        <pt x="5" y="-6" on="1"/>
        <pt x="22" y="60" on="1"/>
        <pt x="64" y="66" on="0"/>
        <pt x="96" y="99" on="0"/>
        <pt x="101" y="141" on="1"/>
        <pt x="150" y="538" on="0"/>
        <pt x="150" y="562" on="0"/>
        <pt x="142" y="578" on="0"/>
        <pt x="125" y="578" on="1"/>
        <pt x="91" y="576" on="1"/>
        <pt x="86" y="584" on="1"/>
        <pt x="102" y="644" on="1"/>
        <pt x="185" y="641" on="0"/>
        <pt x="223" y="641" on="1"/>
        <pt x="363" y="646" on="1"/>
        <pt x="466" y="646" on="0"/>
        <pt x="582" y="567" on="0"/>
        <pt x="582" y="496" on="1"/>
        <pt x="582" y="358" on="0"/>
        <pt x="434" y="285" on="1"/>
        <pt x="499" y="142" on="1"/>
        <pt x="521" y="96" on="0"/>
        <pt x="566" y="56" on="0"/>
        <pt x="596" y="56" on="1"/>
        <pt x="602" y="47" on="1"/>
        <pt x="589" y="-5" on="1"/>
        <pt x="472" y="-16" on="1"/>
        <pt x="409" y="-16" on="0"/>
        <pt x="377" y="77" on="1"/>
        <pt x="317" y="253" on="1"/>
      </contour>
      <contour>
        <pt x="441" y="473" on="1"/>
        <pt x="441" y="566" on="0"/>
        <pt x="310" y="566" on="1"/>
        <pt x="300" y="566" on="0"/>
        <pt x="296" y="562" on="1"/>
        <pt x="288" y="553" on="0"/>
        <pt x="257" y="340" on="1"/>
        <pt x="343" y="330" on="1"/>
        <pt x="441" y="370" on="0"/>
      </contour>
      <contour>
        <pt x="376" y="807" on="1"/>
        <pt x="506" y="865" on="1"/>
        <pt x="521" y="861" on="1"/>
        <pt x="541" y="820" on="1"/>
        <pt x="372" y="696" on="1"/>
        <pt x="353" y="696" on="1"/>
        <pt x="251" y="791" on="0"/>
        <pt x="216" y="820" on="1"/>
        <pt x="244" y="861" on="1"/>
        <pt x="261" y="865" on="1"/>
      </contour>
    </TTGlyph>
    <TTGlyph name="Rcommaaccent" xMin="5" yMin="-318" xMax="602" yMax="646">
      <contour>
        <pt x="244" y="253" on="1"/>
        <pt x="226" y="118" on="0"/>
        <pt x="226" y="85" on="0"/>
        <pt x="242" y="64" on="0"/>
        <pt x="288" y="63" on="1"/>
        <pt x="291" y="57" on="1"/>
        <pt x="274" y="-4" on="1"/>
        <pt x="188" y="-1" on="0"/>
        <pt x="145" y="-1" on="1"/>
        <pt x="5" y="-6" on="1"/>
        <pt x="22" y="60" on="1"/>
        <pt x="64" y="66" on="0"/>
        <pt x="96" y="99" on="0"/>
        <pt x="101" y="141" on="1"/>
        <pt x="150" y="538" on="0"/>
        <pt x="150" y="562" on="0"/>
        <pt x="142" y="578" on="0"/>
        <pt x="125" y="578" on="1"/>
        <pt x="91" y="576" on="1"/>
        <pt x="86" y="584" on="1"/>
        <pt x="102" y="644" on="1"/>
        <pt x="185" y="641" on="0"/>
        <pt x="223" y="641" on="1"/>
        <pt x="363" y="646" on="1"/>
        <pt x="466" y="646" on="0"/>
        <pt x="582" y="567" on="0"/>
        <pt x="582" y="496" on="1"/>
        <pt x="582" y="358" on="0"/>
        <pt x="434" y="285" on="1"/>
        <pt x="499" y="142" on="1"/>
        <pt x="521" y="96" on="0"/>
        <pt x="566" y="56" on="0"/>
        <pt x="596" y="56" on="1"/>
        <pt x="602" y="47" on="1"/>
        <pt x="589" y="-5" on="1"/>
        <pt x="472" y="-16" on="1"/>
        <pt x="409" y="-16" on="0"/>
        <pt x="377" y="77" on="1"/>
        <pt x="317" y="253" on="1"/>
      </contour>
      <contour>
        <pt x="441" y="473" on="1"/>
        <pt x="441" y="566" on="0"/>
        <pt x="310" y="566" on="1"/>
        <pt x="300" y="566" on="0"/>
        <pt x="296" y="562" on="1"/>
        <pt x="288" y="553" on="0"/>
        <pt x="257" y="340" on="1"/>
        <pt x="343" y="330" on="1"/>
        <pt x="441" y="370" on="0"/>
      </contour>
      <contour>
        <pt x="205" y="-86" on="1"/>
        <pt x="249" y="-51" on="0"/>
        <pt x="314" y="-51" on="0"/>
        <pt x="353" y="-98" on="0"/>
        <pt x="353" y="-187" on="0"/>
        <pt x="270" y="-283" on="0"/>
        <pt x="206" y="-318" on="1"/>
        <pt x="169" y="-288" on="1"/>
        <pt x="169" y="-271" on="1"/>
        <pt x="199" y="-250" on="0"/>
        <pt x="237" y="-194" on="0"/>
        <pt x="237" y="-169" on="1"/>
        <pt x="237" y="-128" on="0"/>
        <pt x="202" y="-100" on="1"/>
      </contour>
    </TTGlyph>
    <TTGlyph name="S" xMin="10" yMin="-12" xMax="521" yMax="653">
      <contour>
        <pt x="193" y="-12" on="1"/>
        <pt x="148" y="-12" on="0"/>
        <pt x="60" y="7" on="0"/>
        <pt x="17" y="26" on="1"/>
        <pt x="10" y="40" on="1"/>
        <pt x="37" y="126" on="0"/>
        <pt x="48" y="209" on="1"/>
        <pt x="131" y="216" on="1"/>
        <pt x="127" y="188" on="0"/>
        <pt x="127" y="124" on="0"/>
        <pt x="140" y="105" on="1"/>
        <pt x="158" y="75" on="0"/>
        <pt x="267" y="75" on="0"/>
        <pt x="328" y="122" on="0"/>
        <pt x="328" y="190" on="0"/>
        <pt x="276" y="234" on="0"/>
        <pt x="193" y="279" on="0"/>
        <pt x="165" y="295" on="0"/>
        <pt x="114" y="332" on="0"/>
        <pt x="102" y="348" on="1"/>
        <pt x="69" y="390" on="0"/>
        <pt x="69" y="438" on="1"/>
        <pt x="69" y="531" on="0"/>
        <pt x="223" y="653" on="0"/>
        <pt x="343" y="653" on="1"/>
        <pt x="429" y="653" on="0"/>
        <pt x="494" y="634" on="1"/>
        <pt x="515" y="627" on="1"/>
        <pt x="521" y="614" on="1"/>
        <pt x="494" y="534" on="0"/>
        <pt x="477" y="443" on="1"/>
        <pt x="402" y="437" on="1"/>
        <pt x="394" y="443" on="1"/>
        <pt x="401" y="477" on="0"/>
        <pt x="401" y="495" on="1"/>
        <pt x="401" y="531" on="0"/>
        <pt x="361" y="562" on="0"/>
        <pt x="273" y="562" on="0"/>
        <pt x="216" y="516" on="0"/>
        <pt x="216" y="482" on="1"/>
        <pt x="216" y="440" on="0"/>
        <pt x="286" y="398" on="1"/>
        <pt x="296" y="392" on="0"/>
        <pt x="373" y="352" on="0"/>
        <pt x="406" y="329" on="0"/>
        <pt x="432" y="308" on="1"/>
        <pt x="479" y="267" on="0"/>
        <pt x="479" y="205" on="1"/>
        <pt x="479" y="108" on="0"/>
        <pt x="323" y="-12" on="0"/>
      </contour>
    </TTGlyph>
    <TTGlyph name="Sacute" xMin="10" yMin="-12" xMax="521" yMax="857">
      <contour>
        <pt x="193" y="-12" on="1"/>
        <pt x="148" y="-12" on="0"/>
        <pt x="60" y="7" on="0"/>
        <pt x="17" y="26" on="1"/>
        <pt x="10" y="40" on="1"/>
        <pt x="37" y="126" on="0"/>
        <pt x="48" y="209" on="1"/>
        <pt x="131" y="216" on="1"/>
        <pt x="127" y="188" on="0"/>
        <pt x="127" y="124" on="0"/>
        <pt x="140" y="105" on="1"/>
        <pt x="158" y="75" on="0"/>
        <pt x="267" y="75" on="0"/>
        <pt x="328" y="122" on="0"/>
        <pt x="328" y="190" on="0"/>
        <pt x="276" y="234" on="0"/>
        <pt x="193" y="279" on="0"/>
        <pt x="165" y="295" on="0"/>
        <pt x="114" y="332" on="0"/>
        <pt x="102" y="348" on="1"/>
        <pt x="69" y="390" on="0"/>
        <pt x="69" y="438" on="1"/>
        <pt x="69" y="531" on="0"/>
        <pt x="223" y="653" on="0"/>
        <pt x="343" y="653" on="1"/>
        <pt x="429" y="653" on="0"/>
        <pt x="494" y="634" on="1"/>
        <pt x="515" y="627" on="1"/>
        <pt x="521" y="614" on="1"/>
        <pt x="494" y="534" on="0"/>
        <pt x="477" y="443" on="1"/>
        <pt x="402" y="437" on="1"/>
        <pt x="394" y="443" on="1"/>
        <pt x="401" y="477" on="0"/>
        <pt x="401" y="495" on="1"/>
        <pt x="401" y="531" on="0"/>
        <pt x="361" y="562" on="0"/>
        <pt x="273" y="562" on="0"/>
        <pt x="216" y="516" on="0"/>
        <pt x="216" y="482" on="1"/>
        <pt x="216" y="440" on="0"/>
        <pt x="286" y="398" on="1"/>
        <pt x="296" y="392" on="0"/>
        <pt x="373" y="352" on="0"/>
        <pt x="406" y="329" on="0"/>
        <pt x="432" y="308" on="1"/>
        <pt x="479" y="267" on="0"/>
        <pt x="479" y="205" on="1"/>
        <pt x="479" y="108" on="0"/>
        <pt x="323" y="-12" on="0"/>
      </contour>
      <contour>
        <pt x="483" y="775" on="1"/>
        <pt x="478" y="762" on="1"/>
        <pt x="363" y="733" on="0"/>
        <pt x="249" y="697" on="1"/>
        <pt x="236" y="706" on="1"/>
        <pt x="222" y="753" on="1"/>
        <pt x="445" y="857" on="1"/>
        <pt x="458" y="852" on="1"/>
      </contour>
    </TTGlyph>
    <TTGlyph name="Scaron" xMin="10" yMin="-12" xMax="521" yMax="865">
      <contour>
        <pt x="193" y="-12" on="1"/>
        <pt x="148" y="-12" on="0"/>
        <pt x="60" y="7" on="0"/>
        <pt x="17" y="26" on="1"/>
        <pt x="10" y="40" on="1"/>
        <pt x="37" y="126" on="0"/>
        <pt x="48" y="209" on="1"/>
        <pt x="131" y="216" on="1"/>
        <pt x="127" y="188" on="0"/>
        <pt x="127" y="124" on="0"/>
        <pt x="140" y="105" on="1"/>
        <pt x="158" y="75" on="0"/>
        <pt x="267" y="75" on="0"/>
        <pt x="328" y="122" on="0"/>
        <pt x="328" y="190" on="0"/>
        <pt x="276" y="234" on="0"/>
        <pt x="193" y="279" on="0"/>
        <pt x="165" y="295" on="0"/>
        <pt x="114" y="332" on="0"/>
        <pt x="102" y="348" on="1"/>
        <pt x="69" y="390" on="0"/>
        <pt x="69" y="438" on="1"/>
        <pt x="69" y="531" on="0"/>
        <pt x="223" y="653" on="0"/>
        <pt x="343" y="653" on="1"/>
        <pt x="429" y="653" on="0"/>
        <pt x="494" y="634" on="1"/>
        <pt x="515" y="627" on="1"/>
        <pt x="521" y="614" on="1"/>
        <pt x="494" y="534" on="0"/>
        <pt x="477" y="443" on="1"/>
        <pt x="402" y="437" on="1"/>
        <pt x="394" y="443" on="1"/>
        <pt x="401" y="477" on="0"/>
        <pt x="401" y="495" on="1"/>
        <pt x="401" y="531" on="0"/>
        <pt x="361" y="562" on="0"/>
        <pt x="273" y="562" on="0"/>
        <pt x="216" y="516" on="0"/>
        <pt x="216" y="482" on="1"/>
        <pt x="216" y="440" on="0"/>
        <pt x="286" y="398" on="1"/>
        <pt x="296" y="392" on="0"/>
        <pt x="373" y="352" on="0"/>
        <pt x="406" y="329" on="0"/>
        <pt x="432" y="308" on="1"/>
        <pt x="479" y="267" on="0"/>
        <pt x="479" y="205" on="1"/>
        <pt x="479" y="108" on="0"/>
        <pt x="323" y="-12" on="0"/>
      </contour>
      <contour>
        <pt x="347" y="807" on="1"/>
        <pt x="477" y="865" on="1"/>
        <pt x="492" y="861" on="1"/>
        <pt x="512" y="820" on="1"/>
        <pt x="343" y="696" on="1"/>
        <pt x="324" y="696" on="1"/>
        <pt x="222" y="791" on="0"/>
        <pt x="187" y="820" on="1"/>
        <pt x="215" y="861" on="1"/>
        <pt x="232" y="865" on="1"/>
      </contour>
    </TTGlyph>
    <TTGlyph name="Scedilla" xMin="10" yMin="-238" xMax="521" yMax="653">
      <contour>
        <pt x="131" y="216" on="1"/>
        <pt x="127" y="188" on="0"/>
        <pt x="127" y="124" on="0"/>
        <pt x="140" y="105" on="1"/>
        <pt x="158" y="75" on="0"/>
        <pt x="267" y="75" on="0"/>
        <pt x="328" y="122" on="0"/>
        <pt x="328" y="190" on="0"/>
        <pt x="276" y="234" on="0"/>
        <pt x="193" y="279" on="0"/>
        <pt x="165" y="295" on="0"/>
        <pt x="114" y="332" on="0"/>
        <pt x="102" y="348" on="1"/>
        <pt x="69" y="390" on="0"/>
        <pt x="69" y="438" on="1"/>
        <pt x="69" y="531" on="0"/>
        <pt x="223" y="653" on="0"/>
        <pt x="343" y="653" on="1"/>
        <pt x="429" y="653" on="0"/>
        <pt x="494" y="634" on="1"/>
        <pt x="515" y="627" on="1"/>
        <pt x="521" y="614" on="1"/>
        <pt x="494" y="534" on="0"/>
        <pt x="477" y="443" on="1"/>
        <pt x="402" y="437" on="1"/>
        <pt x="394" y="443" on="1"/>
        <pt x="401" y="477" on="0"/>
        <pt x="401" y="495" on="1"/>
        <pt x="401" y="531" on="0"/>
        <pt x="361" y="562" on="0"/>
        <pt x="273" y="562" on="0"/>
        <pt x="216" y="516" on="0"/>
        <pt x="216" y="482" on="1"/>
        <pt x="216" y="440" on="0"/>
        <pt x="286" y="398" on="1"/>
        <pt x="296" y="392" on="0"/>
        <pt x="373" y="352" on="0"/>
        <pt x="406" y="329" on="0"/>
        <pt x="432" y="308" on="1"/>
        <pt x="479" y="267" on="0"/>
        <pt x="479" y="205" on="1"/>
        <pt x="479" y="117" on="0"/>
        <pt x="350" y="0" on="0"/>
        <pt x="239" y="-10" on="1"/>
        <pt x="226" y="-44" on="1"/>
        <pt x="310" y="-95" on="0"/>
        <pt x="310" y="-176" on="0"/>
        <pt x="220" y="-238" on="0"/>
        <pt x="166" y="-238" on="1"/>
        <pt x="140" y="-238" on="0"/>
        <pt x="94" y="-214" on="0"/>
        <pt x="94" y="-179" on="0"/>
        <pt x="140" y="-130" on="1"/>
        <pt x="148" y="-130" on="1"/>
        <pt x="148" y="-134" on="0"/>
        <pt x="148" y="-159" on="0"/>
        <pt x="169" y="-186" on="0"/>
        <pt x="209" y="-186" on="0"/>
        <pt x="233" y="-168" on="0"/>
        <pt x="233" y="-154" on="1"/>
        <pt x="233" y="-130" on="0"/>
        <pt x="158" y="-86" on="1"/>
        <pt x="187" y="-12" on="1"/>
        <pt x="143" y="-11" on="0"/>
        <pt x="58" y="8" on="0"/>
        <pt x="17" y="26" on="1"/>
        <pt x="10" y="40" on="1"/>
        <pt x="37" y="126" on="0"/>
        <pt x="48" y="209" on="1"/>
      </contour>
    </TTGlyph>
    <TTGlyph name="Scircumflex" xMin="10" yMin="-12" xMax="521" yMax="904">
      <contour>
        <pt x="193" y="-12" on="1"/>
        <pt x="148" y="-12" on="0"/>
        <pt x="60" y="7" on="0"/>
        <pt x="17" y="26" on="1"/>
        <pt x="10" y="40" on="1"/>
        <pt x="37" y="126" on="0"/>
        <pt x="48" y="209" on="1"/>
        <pt x="131" y="216" on="1"/>
        <pt x="127" y="188" on="0"/>
        <pt x="127" y="124" on="0"/>
        <pt x="140" y="105" on="1"/>
        <pt x="158" y="75" on="0"/>
        <pt x="267" y="75" on="0"/>
        <pt x="328" y="122" on="0"/>
        <pt x="328" y="190" on="0"/>
        <pt x="276" y="234" on="0"/>
        <pt x="193" y="279" on="0"/>
        <pt x="165" y="295" on="0"/>
        <pt x="114" y="332" on="0"/>
        <pt x="102" y="348" on="1"/>
        <pt x="69" y="390" on="0"/>
        <pt x="69" y="438" on="1"/>
        <pt x="69" y="531" on="0"/>
        <pt x="223" y="653" on="0"/>
        <pt x="343" y="653" on="1"/>
        <pt x="429" y="653" on="0"/>
        <pt x="494" y="634" on="1"/>
        <pt x="515" y="627" on="1"/>
        <pt x="521" y="614" on="1"/>
        <pt x="494" y="534" on="0"/>
        <pt x="477" y="443" on="1"/>
        <pt x="402" y="437" on="1"/>
        <pt x="394" y="443" on="1"/>
        <pt x="401" y="477" on="0"/>
        <pt x="401" y="495" on="1"/>
        <pt x="401" y="531" on="0"/>
        <pt x="361" y="562" on="0"/>
        <pt x="273" y="562" on="0"/>
        <pt x="216" y="516" on="0"/>
        <pt x="216" y="482" on="1"/>
        <pt x="216" y="440" on="0"/>
        <pt x="286" y="398" on="1"/>
        <pt x="296" y="392" on="0"/>
        <pt x="373" y="352" on="0"/>
        <pt x="406" y="329" on="0"/>
        <pt x="432" y="308" on="1"/>
        <pt x="479" y="267" on="0"/>
        <pt x="479" y="205" on="1"/>
        <pt x="479" y="108" on="0"/>
        <pt x="323" y="-12" on="0"/>
      </contour>
      <contour>
        <pt x="441" y="705" on="1"/>
        <pt x="355" y="777" on="0"/>
        <pt x="338" y="788" on="1"/>
        <pt x="335" y="786" on="0"/>
        <pt x="216" y="705" on="1"/>
        <pt x="200" y="709" on="1"/>
        <pt x="176" y="750" on="1"/>
        <pt x="212" y="780" on="0"/>
        <pt x="342" y="904" on="1"/>
        <pt x="362" y="904" on="1"/>
        <pt x="459" y="783" on="0"/>
        <pt x="491" y="750" on="1"/>
        <pt x="457" y="709" on="1"/>
      </contour>
    </TTGlyph>
    <TTGlyph name="Scommaaccent" xMin="10" yMin="-318" xMax="521" yMax="653">
      <contour>
        <pt x="193" y="-12" on="1"/>
        <pt x="148" y="-12" on="0"/>
        <pt x="60" y="7" on="0"/>
        <pt x="17" y="26" on="1"/>
        <pt x="10" y="40" on="1"/>
        <pt x="37" y="126" on="0"/>
        <pt x="48" y="209" on="1"/>
        <pt x="131" y="216" on="1"/>
        <pt x="127" y="188" on="0"/>
        <pt x="127" y="124" on="0"/>
        <pt x="140" y="105" on="1"/>
        <pt x="158" y="75" on="0"/>
        <pt x="267" y="75" on="0"/>
        <pt x="328" y="122" on="0"/>
        <pt x="328" y="190" on="0"/>
        <pt x="276" y="234" on="0"/>
        <pt x="193" y="279" on="0"/>
        <pt x="165" y="295" on="0"/>
        <pt x="114" y="332" on="0"/>
        <pt x="102" y="348" on="1"/>
        <pt x="69" y="390" on="0"/>
        <pt x="69" y="438" on="1"/>
        <pt x="69" y="531" on="0"/>
        <pt x="223" y="653" on="0"/>
        <pt x="343" y="653" on="1"/>
        <pt x="429" y="653" on="0"/>
        <pt x="494" y="634" on="1"/>
        <pt x="515" y="627" on="1"/>
        <pt x="521" y="614" on="1"/>
        <pt x="494" y="534" on="0"/>
        <pt x="477" y="443" on="1"/>
        <pt x="402" y="437" on="1"/>
        <pt x="394" y="443" on="1"/>
        <pt x="401" y="477" on="0"/>
        <pt x="401" y="495" on="1"/>
        <pt x="401" y="531" on="0"/>
        <pt x="361" y="562" on="0"/>
        <pt x="273" y="562" on="0"/>
        <pt x="216" y="516" on="0"/>
        <pt x="216" y="482" on="1"/>
        <pt x="216" y="440" on="0"/>
        <pt x="286" y="398" on="1"/>
        <pt x="296" y="392" on="0"/>
        <pt x="373" y="352" on="0"/>
        <pt x="406" y="329" on="0"/>
        <pt x="432" y="308" on="1"/>
        <pt x="479" y="267" on="0"/>
        <pt x="479" y="205" on="1"/>
        <pt x="479" y="108" on="0"/>
        <pt x="323" y="-12" on="0"/>
      </contour>
      <contour>
        <pt x="129" y="-86" on="1"/>
        <pt x="173" y="-51" on="0"/>
        <pt x="238" y="-51" on="0"/>
        <pt x="277" y="-98" on="0"/>
        <pt x="277" y="-187" on="0"/>
        <pt x="194" y="-283" on="0"/>
        <pt x="130" y="-318" on="1"/>
        <pt x="93" y="-288" on="1"/>
        <pt x="93" y="-271" on="1"/>
        <pt x="123" y="-250" on="0"/>
        <pt x="161" y="-194" on="0"/>
        <pt x="161" y="-169" on="1"/>
        <pt x="161" y="-128" on="0"/>
        <pt x="126" y="-100" on="1"/>
      </contour>
    </TTGlyph>
    <TTGlyph name="T" xMin="29" yMin="-6" xMax="585" yMax="653">
      <contour>
        <pt x="486" y="441" on="1"/>
        <pt x="486" y="523" on="0"/>
        <pt x="459" y="563" on="0"/>
        <pt x="388" y="566" on="1"/>
        <pt x="374" y="488" on="0"/>
        <pt x="323" y="142" on="0"/>
        <pt x="323" y="89" on="0"/>
        <pt x="344" y="65" on="0"/>
        <pt x="368" y="65" on="1"/>
        <pt x="421" y="68" on="1"/>
        <pt x="424" y="63" on="1"/>
        <pt x="407" y="-4" on="1"/>
        <pt x="289" y="0" on="0"/>
        <pt x="238" y="0" on="1"/>
        <pt x="75" y="-6" on="1"/>
        <pt x="91" y="59" on="1"/>
        <pt x="155" y="65" on="0"/>
        <pt x="192" y="101" on="0"/>
        <pt x="200" y="165" on="1"/>
        <pt x="249" y="566" on="1"/>
        <pt x="193" y="564" on="0"/>
        <pt x="158" y="549" on="0"/>
        <pt x="144" y="536" on="0"/>
        <pt x="136" y="518" on="1"/>
        <pt x="124" y="493" on="0"/>
        <pt x="112" y="435" on="1"/>
        <pt x="29" y="429" on="1"/>
        <pt x="52" y="545" on="0"/>
        <pt x="66" y="642" on="1"/>
        <pt x="79" y="653" on="1"/>
        <pt x="173" y="642" on="1"/>
        <pt x="475" y="642" on="1"/>
        <pt x="576" y="653" on="1"/>
        <pt x="585" y="642" on="1"/>
        <pt x="569" y="435" on="1"/>
        <pt x="486" y="429" on="1"/>
        <pt x="486" y="435" on="0"/>
      </contour>
    </TTGlyph>
    <TTGlyph name="Tbar" xMin="29" yMin="-6" xMax="585" yMax="653">
      <contour>
        <pt x="486" y="441" on="1"/>
        <pt x="486" y="523" on="0"/>
        <pt x="459" y="563" on="0"/>
        <pt x="388" y="566" on="1"/>
        <pt x="374" y="493" on="0"/>
        <pt x="351" y="334" on="1"/>
        <pt x="427" y="337" on="1"/>
        <pt x="441" y="323" on="1"/>
        <pt x="437" y="277" on="1"/>
        <pt x="342" y="277" on="1"/>
        <pt x="323" y="141" on="0"/>
        <pt x="323" y="89" on="0"/>
        <pt x="344" y="65" on="0"/>
        <pt x="368" y="65" on="1"/>
        <pt x="421" y="68" on="1"/>
        <pt x="424" y="63" on="1"/>
        <pt x="407" y="-4" on="1"/>
        <pt x="289" y="0" on="0"/>
        <pt x="238" y="0" on="1"/>
        <pt x="75" y="-6" on="1"/>
        <pt x="91" y="59" on="1"/>
        <pt x="155" y="65" on="0"/>
        <pt x="192" y="101" on="0"/>
        <pt x="200" y="165" on="1"/>
        <pt x="213" y="276" on="1"/>
        <pt x="130" y="276" on="1"/>
        <pt x="120" y="285" on="1"/>
        <pt x="127" y="333" on="1"/>
        <pt x="220" y="332" on="1"/>
        <pt x="249" y="566" on="1"/>
        <pt x="193" y="564" on="0"/>
        <pt x="158" y="549" on="0"/>
        <pt x="144" y="536" on="0"/>
        <pt x="136" y="518" on="1"/>
        <pt x="124" y="493" on="0"/>
        <pt x="112" y="435" on="1"/>
        <pt x="29" y="429" on="1"/>
        <pt x="52" y="545" on="0"/>
        <pt x="66" y="642" on="1"/>
        <pt x="79" y="653" on="1"/>
        <pt x="173" y="642" on="1"/>
        <pt x="475" y="642" on="1"/>
        <pt x="576" y="653" on="1"/>
        <pt x="585" y="642" on="1"/>
        <pt x="569" y="435" on="1"/>
        <pt x="486" y="429" on="1"/>
        <pt x="486" y="435" on="0"/>
      </contour>
    </TTGlyph>
</ttFont>
